0, 0, Header, 1, 2, 960
1, 0, Start_track
1, 0, Time_signature, 4, 2, 24, 8
1, 0, Key_signature, 0, "major"
1, 0, Tempo, 600000
1, 0, Copyright_t, "Copyright  "
1, 3360, Tempo, 200000
1, 3361, End_track
2, 0, Start_track
2, 0, Program_c, 0, 65
2, 0, Control_c, 0, 121, 0
2, 0, Control_c, 0, 64, 0
2, 0, Control_c, 0, 91, 48
2, 0, Control_c, 0, 10, 51
2, 0, Control_c, 0, 7, 95
2, 0, Title_t, "Alto Saxophone"
2, 3360, Note_on_c, 0, 53, 68
2, 3840, Note_off_c, 0, 53, 0
2, 3840, Note_on_c, 0, 58, 79
2, 4320, Note_off_c, 0, 58, 0
2, 4320, Note_on_c, 0, 62, 83
2, 4800, Note_off_c, 0, 62, 0
2, 4800, Note_on_c, 0, 60, 74
2, 5280, Note_off_c, 0, 60, 0
2, 5280, Note_on_c, 0, 58, 75
2, 5760, Note_off_c, 0, 58, 0
2, 5760, Note_on_c, 0, 63, 86
2, 6240, Note_off_c, 0, 63, 0
2, 6240, Note_on_c, 0, 61, 72
2, 6720, Note_off_c, 0, 61, 0
2, 6720, Note_on_c, 0, 62, 81
2, 7200, Note_off_c, 0, 62, 0
2, 7200, Note_on_c, 0, 65, 82
2, 7680, Note_off_c, 0, 65, 0
2, 9120, Note_on_c, 0, 63, 70
2, 9600, Note_off_c, 0, 63, 0
2, 10080, Note_on_c, 0, 65, 69
2, 10560, Note_off_c, 0, 65, 0
2, 10560, Note_on_c, 0, 63, 66
2, 11520, Note_off_c, 0, 63, 0
2, 12000, Note_on_c, 0, 62, 66
2, 12480, Note_off_c, 0, 62, 0
2, 12480, Note_on_c, 0, 63, 77
2, 12960, Note_off_c, 0, 63, 0
2, 12960, Note_on_c, 0, 62, 76
2, 13440, Note_off_c, 0, 62, 0
2, 13440, Note_on_c, 0, 60, 73
2, 13920, Note_off_c, 0, 60, 0
2, 13920, Note_on_c, 0, 57, 76
2, 14400, Note_off_c, 0, 57, 0
2, 14400, Note_on_c, 0, 58, 77
2, 14880, Note_off_c, 0, 58, 0
2, 14880, Note_on_c, 0, 62, 87
2, 15360, Note_off_c, 0, 62, 0
2, 15360, Note_on_c, 0, 60, 72
2, 15840, Note_off_c, 0, 60, 0
2, 15840, Note_on_c, 0, 55, 70
2, 16320, Note_off_c, 0, 55, 0
2, 16320, Note_on_c, 0, 58, 79
2, 16800, Note_off_c, 0, 58, 0
2, 16800, Note_on_c, 0, 57, 76
2, 17280, Note_off_c, 0, 57, 0
2, 18720, Note_on_c, 0, 58, 74
2, 20160, Note_off_c, 0, 58, 0
2, 20160, Note_on_c, 0, 55, 74
2, 20640, Note_off_c, 0, 55, 0
2, 20640, Note_on_c, 0, 58, 78
2, 21120, Note_off_c, 0, 58, 0
2, 21120, Note_on_c, 0, 62, 88
2, 21600, Note_off_c, 0, 62, 0
2, 21600, Note_on_c, 0, 58, 73
2, 22080, Note_off_c, 0, 58, 0
2, 22560, Note_on_c, 0, 64, 69
2, 23520, Note_off_c, 0, 64, 0
2, 23520, Note_on_c, 0, 63, 75
2, 24480, Note_off_c, 0, 63, 0
2, 24480, Note_on_c, 0, 54, 68
2, 25440, Note_off_c, 0, 54, 0
2, 25440, Note_on_c, 0, 58, 83
2, 25920, Note_off_c, 0, 58, 0
2, 25920, Note_on_c, 0, 60, 82
2, 26400, Note_off_c, 0, 60, 0
2, 26400, Note_on_c, 0, 62, 82
2, 26880, Note_off_c, 0, 62, 0
2, 26880, Note_on_c, 0, 65, 81
2, 27840, Note_off_c, 0, 65, 0
2, 28320, Note_on_c, 0, 59, 68
2, 28800, Note_off_c, 0, 59, 0
2, 29280, Note_on_c, 0, 68, 69
2, 30240, Note_off_c, 0, 68, 0
2, 30240, Note_on_c, 0, 66, 73
2, 30720, Note_off_c, 0, 66, 0
2, 30720, Note_on_c, 0, 67, 79
2, 31200, Note_off_c, 0, 67, 0
2, 31200, Note_on_c, 0, 63, 68
2, 31680, Note_off_c, 0, 63, 0
2, 31680, Note_on_c, 0, 58, 69
2, 32160, Note_off_c, 0, 58, 0
2, 32160, Note_on_c, 0, 55, 73
2, 32640, Note_off_c, 0, 55, 0
2, 32640, Note_on_c, 0, 62, 87
2, 33120, Note_off_c, 0, 62, 0
2, 33120, Note_on_c, 0, 65, 83
2, 33600, Note_off_c, 0, 65, 0
2, 34080, Note_on_c, 0, 53, 68
2, 34560, Note_off_c, 0, 53, 0
2, 34560, Note_on_c, 0, 58, 81
2, 35040, Note_off_c, 0, 58, 0
2, 35040, Note_on_c, 0, 62, 85
2, 35520, Note_off_c, 0, 62, 0
2, 35520, Note_on_c, 0, 60, 78
2, 36000, Note_off_c, 0, 60, 0
2, 36000, Note_on_c, 0, 58, 76
2, 36480, Note_off_c, 0, 58, 0
2, 36480, Note_on_c, 0, 63, 89
2, 36960, Note_off_c, 0, 63, 0
2, 36960, Note_on_c, 0, 61, 72
2, 37440, Note_off_c, 0, 61, 0
2, 37440, Note_on_c, 0, 62, 83
2, 37920, Note_off_c, 0, 62, 0
2, 37920, Note_on_c, 0, 65, 84
2, 38400, Note_off_c, 0, 65, 0
2, 39840, Note_on_c, 0, 63, 71
2, 40320, Note_off_c, 0, 63, 0
2, 40800, Note_on_c, 0, 65, 67
2, 41280, Note_off_c, 0, 65, 0
2, 41280, Note_on_c, 0, 63, 74
2, 42240, Note_off_c, 0, 63, 0
2, 42720, Note_on_c, 0, 62, 67
2, 43200, Note_off_c, 0, 62, 0
2, 43200, Note_on_c, 0, 63, 79
2, 43680, Note_off_c, 0, 63, 0
2, 43680, Note_on_c, 0, 62, 72
2, 44160, Note_off_c, 0, 62, 0
2, 44160, Note_on_c, 0, 60, 69
2, 44640, Note_off_c, 0, 60, 0
2, 44640, Note_on_c, 0, 57, 68
2, 45120, Note_off_c, 0, 57, 0
2, 45120, Note_on_c, 0, 58, 76
2, 45600, Note_off_c, 0, 58, 0
2, 45600, Note_on_c, 0, 62, 86
2, 46080, Note_off_c, 0, 62, 0
2, 46080, Note_on_c, 0, 60, 69
2, 46560, Note_off_c, 0, 60, 0
2, 46560, Note_on_c, 0, 55, 69
2, 47040, Note_off_c, 0, 55, 0
2, 47040, Note_on_c, 0, 58, 72
2, 47520, Note_off_c, 0, 58, 0
2, 47520, Note_on_c, 0, 57, 74
2, 48000, Note_off_c, 0, 57, 0
2, 49440, Note_on_c, 0, 58, 71
2, 50880, Note_off_c, 0, 58, 0
2, 50880, Note_on_c, 0, 55, 73
2, 51360, Note_off_c, 0, 55, 0
2, 51360, Note_on_c, 0, 58, 79
2, 51840, Note_off_c, 0, 58, 0
2, 51840, Note_on_c, 0, 62, 89
2, 52320, Note_off_c, 0, 62, 0
2, 52320, Note_on_c, 0, 58, 76
2, 52800, Note_off_c, 0, 58, 0
2, 53280, Note_on_c, 0, 64, 70
2, 54240, Note_off_c, 0, 64, 0
2, 54240, Note_on_c, 0, 63, 76
2, 55200, Note_off_c, 0, 63, 0
2, 55200, Note_on_c, 0, 54, 66
2, 56160, Note_off_c, 0, 54, 0
2, 56160, Note_on_c, 0, 58, 80
2, 56640, Note_off_c, 0, 58, 0
2, 56640, Note_on_c, 0, 60, 78
2, 57120, Note_off_c, 0, 60, 0
2, 57120, Note_on_c, 0, 62, 77
2, 57600, Note_off_c, 0, 62, 0
2, 57600, Note_on_c, 0, 63, 83
2, 57919, Note_off_c, 0, 63, 0
2, 57919, Note_on_c, 0, 65, 86
2, 58238, Note_off_c, 0, 65, 0
2, 58238, Note_on_c, 0, 63, 71
2, 58560, Note_off_c, 0, 63, 0
2, 58560, Note_on_c, 0, 62, 72
2, 59040, Note_off_c, 0, 62, 0
2, 59040, Note_on_c, 0, 65, 81
2, 59520, Note_off_c, 0, 65, 0
2, 60000, Note_on_c, 0, 62, 65
2, 60480, Note_off_c, 0, 62, 0
2, 60480, Note_on_c, 0, 63, 77
2, 60960, Note_off_c, 0, 63, 0
2, 60960, Note_on_c, 0, 55, 68
2, 61440, Note_off_c, 0, 55, 0
2, 61440, Note_on_c, 0, 60, 90
2, 61920, Note_off_c, 0, 60, 0
2, 61920, Note_on_c, 0, 55, 68
2, 62400, Note_off_c, 0, 55, 0
2, 62400, Note_on_c, 0, 58, 78
2, 62880, Note_off_c, 0, 58, 0
2, 62880, Note_on_c, 0, 60, 83
2, 63360, Note_off_c, 0, 60, 0
2, 64800, Note_on_c, 0, 66, 69
2, 66240, Note_off_c, 0, 66, 0
2, 66240, Note_on_c, 0, 67, 84
2, 66720, Note_off_c, 0, 67, 0
2, 66720, Note_on_c, 0, 68, 78
2, 67200, Note_off_c, 0, 68, 0
2, 67200, Note_on_c, 0, 69, 81
2, 67680, Note_off_c, 0, 69, 0
2, 67680, Note_on_c, 0, 66, 74
2, 68160, Note_off_c, 0, 66, 0
2, 68160, Note_on_c, 0, 67, 79
2, 68640, Note_off_c, 0, 67, 0
2, 68640, Note_on_c, 0, 69, 82
2, 69120, Note_off_c, 0, 69, 0
2, 69120, Note_on_c, 0, 66, 70
2, 69600, Note_off_c, 0, 66, 0
2, 69600, Note_on_c, 0, 62, 68
2, 70080, Note_off_c, 0, 62, 0
2, 72480, Note_on_c, 0, 64, 67
2, 72960, Note_off_c, 0, 64, 0
2, 72960, Note_on_c, 0, 65, 79
2, 73440, Note_off_c, 0, 65, 0
2, 73440, Note_on_c, 0, 64, 74
2, 73920, Note_off_c, 0, 64, 0
2, 73920, Note_on_c, 0, 62, 75
2, 74400, Note_off_c, 0, 62, 0
2, 74400, Note_on_c, 0, 59, 73
2, 74880, Note_off_c, 0, 59, 0
2, 74880, Note_on_c, 0, 64, 79
2, 75360, Note_off_c, 0, 64, 0
2, 75360, Note_on_c, 0, 62, 70
2, 75840, Note_off_c, 0, 62, 0
2, 75840, Note_on_c, 0, 59, 70
2, 76320, Note_off_c, 0, 59, 0
2, 76320, Note_on_c, 0, 57, 74
2, 76800, Note_off_c, 0, 57, 0
2, 78240, Note_on_c, 0, 69, 67
2, 79200, Note_off_c, 0, 69, 0
2, 79200, Note_on_c, 0, 69, 74
2, 80160, Note_off_c, 0, 69, 0
2, 80160, Note_on_c, 0, 69, 75
2, 81120, Note_off_c, 0, 69, 0
2, 81120, Note_on_c, 0, 67, 67
2, 81600, Note_off_c, 0, 67, 0
2, 81600, Note_on_c, 0, 64, 68
2, 82080, Note_off_c, 0, 64, 0
2, 82080, Note_on_c, 0, 62, 73
2, 84000, Note_off_c, 0, 62, 0
2, 84000, Note_on_c, 0, 55, 67
2, 84480, Note_off_c, 0, 55, 0
2, 84480, Note_on_c, 0, 60, 88
2, 84638, Note_off_c, 0, 60, 0
2, 84638, Note_on_c, 0, 62, 82
2, 84799, Note_off_c, 0, 62, 0
2, 84799, Note_on_c, 0, 60, 72
2, 84960, Note_off_c, 0, 60, 0
2, 84960, Note_on_c, 0, 55, 71
2, 85440, Note_off_c, 0, 55, 0
2, 85440, Note_on_c, 0, 58, 75
2, 85920, Note_off_c, 0, 58, 0
2, 85920, Note_on_c, 0, 60, 83
2, 86400, Note_off_c, 0, 60, 0
2, 87840, Note_on_c, 0, 63, 70
2, 89280, Note_off_c, 0, 63, 0
2, 89280, Note_on_c, 0, 62, 72
2, 89760, Note_off_c, 0, 62, 0
2, 89760, Note_on_c, 0, 60, 73
2, 90240, Note_off_c, 0, 60, 0
2, 90240, Note_on_c, 0, 59, 75
2, 90720, Note_off_c, 0, 59, 0
2, 90720, Note_on_c, 0, 62, 84
2, 91200, Note_off_c, 0, 62, 0
2, 91200, Note_on_c, 0, 60, 72
2, 91680, Note_off_c, 0, 60, 0
2, 91680, Note_on_c, 0, 55, 71
2, 92160, Note_off_c, 0, 55, 0
2, 92160, Note_on_c, 0, 60, 87
2, 93120, Note_off_c, 0, 60, 0
2, 93120, Note_on_c, 0, 58, 79
2, 93600, Note_off_c, 0, 58, 0
2, 93600, Note_on_c, 0, 57, 73
2, 94080, Note_off_c, 0, 57, 0
2, 95520, Note_on_c, 0, 53, 66
2, 96000, Note_off_c, 0, 53, 0
2, 96000, Note_on_c, 0, 58, 81
2, 96480, Note_off_c, 0, 58, 0
2, 96480, Note_on_c, 0, 62, 88
2, 96960, Note_off_c, 0, 62, 0
2, 96960, Note_on_c, 0, 60, 71
2, 97440, Note_off_c, 0, 60, 0
2, 97440, Note_on_c, 0, 58, 75
2, 97920, Note_off_c, 0, 58, 0
2, 97920, Note_on_c, 0, 63, 86
2, 98400, Note_off_c, 0, 63, 0
2, 98400, Note_on_c, 0, 61, 74
2, 98880, Note_off_c, 0, 61, 0
2, 98880, Note_on_c, 0, 62, 81
2, 99360, Note_off_c, 0, 62, 0
2, 99360, Note_on_c, 0, 65, 83
2, 99840, Note_off_c, 0, 65, 0
2, 101280, Note_on_c, 0, 63, 69
2, 101760, Note_off_c, 0, 63, 0
2, 102240, Note_on_c, 0, 65, 69
2, 102720, Note_off_c, 0, 65, 0
2, 102720, Note_on_c, 0, 63, 71
2, 103680, Note_off_c, 0, 63, 0
2, 104160, Note_on_c, 0, 62, 69
2, 104640, Note_off_c, 0, 62, 0
2, 104640, Note_on_c, 0, 63, 80
2, 105120, Note_off_c, 0, 63, 0
2, 105120, Note_on_c, 0, 62, 71
2, 105600, Note_off_c, 0, 62, 0
2, 105600, Note_on_c, 0, 60, 68
2, 106080, Note_off_c, 0, 60, 0
2, 106080, Note_on_c, 0, 57, 74
2, 106560, Note_off_c, 0, 57, 0
2, 106560, Note_on_c, 0, 58, 79
2, 107040, Note_off_c, 0, 58, 0
2, 107040, Note_on_c, 0, 62, 81
2, 107520, Note_off_c, 0, 62, 0
2, 107520, Note_on_c, 0, 60, 76
2, 108000, Note_off_c, 0, 60, 0
2, 108000, Note_on_c, 0, 55, 76
2, 108480, Note_off_c, 0, 55, 0
2, 108480, Note_on_c, 0, 58, 80
2, 108960, Note_off_c, 0, 58, 0
2, 108960, Note_on_c, 0, 57, 73
2, 109440, Note_off_c, 0, 57, 0
2, 110880, Note_on_c, 0, 58, 69
2, 112320, Note_off_c, 0, 58, 0
2, 112320, Note_on_c, 0, 55, 74
2, 112800, Note_off_c, 0, 55, 0
2, 112800, Note_on_c, 0, 58, 79
2, 113280, Note_off_c, 0, 58, 0
2, 113280, Note_on_c, 0, 62, 88
2, 113760, Note_off_c, 0, 62, 0
2, 113760, Note_on_c, 0, 58, 76
2, 114240, Note_off_c, 0, 58, 0
2, 114720, Note_on_c, 0, 64, 64
2, 115680, Note_off_c, 0, 64, 0
2, 115680, Note_on_c, 0, 63, 74
2, 116640, Note_off_c, 0, 63, 0
2, 116640, Note_on_c, 0, 54, 68
2, 117600, Note_off_c, 0, 54, 0
2, 117600, Note_on_c, 0, 58, 84
2, 118080, Note_off_c, 0, 58, 0
2, 118080, Note_on_c, 0, 60, 78
2, 118560, Note_off_c, 0, 60, 0
2, 118560, Note_on_c, 0, 62, 83
2, 119040, Note_off_c, 0, 62, 0
2, 119040, Note_on_c, 0, 63, 85
2, 119359, Note_off_c, 0, 63, 0
2, 119359, Note_on_c, 0, 65, 79
2, 119678, Note_off_c, 0, 65, 0
2, 119678, Note_on_c, 0, 63, 75
2, 120000, Note_off_c, 0, 63, 0
2, 120000, Note_on_c, 0, 62, 67
2, 120480, Note_off_c, 0, 62, 0
2, 120480, Note_on_c, 0, 65, 80
2, 120960, Note_off_c, 0, 65, 0
2, 121440, Note_on_c, 0, 62, 66
2, 121920, Note_off_c, 0, 62, 0
2, 121920, Note_on_c, 0, 63, 79
2, 122400, Note_off_c, 0, 63, 0
2, 122400, Note_on_c, 0, 55, 71
2, 122880, Note_off_c, 0, 55, 0
2, 122880, Note_on_c, 0, 60, 81
2, 123360, Note_off_c, 0, 60, 0
2, 123360, Note_on_c, 0, 58, 72
2, 123840, Note_off_c, 0, 58, 0
2, 123840, Note_on_c, 0, 57, 73
2, 124320, Note_off_c, 0, 57, 0
2, 124320, Note_on_c, 0, 58, 81
2, 124800, Note_off_c, 0, 58, 0
2, 127680, Note_on_c, 0, 65, 68
2, 128160, Note_off_c, 0, 65, 0
2, 128160, Note_on_c, 0, 67, 78
2, 128400, Note_off_c, 0, 67, 0
2, 128400, Note_on_c, 0, 69, 82
2, 128640, Note_off_c, 0, 69, 0
2, 128640, Note_on_c, 0, 70, 80
2, 128959, Note_off_c, 0, 70, 0
2, 128959, Note_on_c, 0, 72, 83
2, 129278, Note_off_c, 0, 72, 0
2, 129278, Note_on_c, 0, 73, 84
2, 129600, Note_off_c, 0, 73, 0
2, 129600, Note_on_c, 0, 74, 77
2, 130080, Note_off_c, 0, 74, 0
2, 130080, Note_on_c, 0, 70, 65
2, 130560, Note_off_c, 0, 70, 0
2, 130560, Note_on_c, 0, 72, 79
2, 131040, Note_off_c, 0, 72, 0
2, 131040, Note_on_c, 0, 70, 69
2, 131520, Note_off_c, 0, 70, 0
2, 131520, Note_on_c, 0, 69, 70
2, 132000, Note_off_c, 0, 69, 0
2, 132000, Note_on_c, 0, 70, 79
2, 132480, Note_off_c, 0, 70, 0
2, 132480, Note_on_c, 0, 72, 84
2, 132960, Note_off_c, 0, 72, 0
2, 132960, Note_on_c, 0, 65, 64
2, 133440, Note_off_c, 0, 65, 0
2, 135840, Note_on_c, 0, 61, 61
2, 136320, Note_off_c, 0, 61, 0
2, 136320, Note_on_c, 0, 62, 78
2, 136639, Note_off_c, 0, 62, 0
2, 136639, Note_on_c, 0, 65, 85
2, 136958, Note_off_c, 0, 65, 0
2, 136958, Note_on_c, 0, 69, 88
2, 137280, Note_off_c, 0, 69, 0
2, 137280, Note_on_c, 0, 70, 84
2, 137760, Note_off_c, 0, 70, 0
2, 137760, Note_on_c, 0, 67, 73
2, 138240, Note_off_c, 0, 67, 0
2, 138240, Note_on_c, 0, 63, 70
2, 138720, Note_off_c, 0, 63, 0
2, 138720, Note_on_c, 0, 60, 66
2, 139200, Note_off_c, 0, 60, 0
2, 139200, Note_on_c, 0, 70, 91
2, 139519, Note_off_c, 0, 70, 0
2, 139519, Note_on_c, 0, 72, 84
2, 139838, Note_off_c, 0, 72, 0
2, 139838, Note_on_c, 0, 70, 79
2, 140160, Note_off_c, 0, 70, 0
2, 140160, Note_on_c, 0, 69, 73
2, 140640, Note_off_c, 0, 69, 0
2, 140640, Note_on_c, 0, 67, 67
2, 141120, Note_off_c, 0, 67, 0
2, 141120, Note_on_c, 0, 62, 68
2, 141600, Note_off_c, 0, 62, 0
2, 141600, Note_on_c, 0, 63, 85
2, 142080, Note_off_c, 0, 63, 0
2, 142080, Note_on_c, 0, 65, 82
2, 142560, Note_off_c, 0, 65, 0
2, 142560, Note_on_c, 0, 67, 82
2, 143040, Note_off_c, 0, 67, 0
2, 143040, Note_on_c, 0, 68, 80
2, 143520, Note_off_c, 0, 68, 0
2, 143520, Note_on_c, 0, 67, 71
2, 144000, Note_off_c, 0, 67, 0
2, 144000, Note_on_c, 0, 65, 74
2, 144480, Note_off_c, 0, 65, 0
2, 144480, Note_on_c, 0, 63, 71
2, 144960, Note_off_c, 0, 63, 0
2, 144960, Note_on_c, 0, 62, 74
2, 145440, Note_off_c, 0, 62, 0
2, 145440, Note_on_c, 0, 60, 70
2, 145920, Note_off_c, 0, 60, 0
2, 145920, Note_on_c, 0, 58, 75
2, 146400, Note_off_c, 0, 58, 0
2, 146400, Note_on_c, 0, 57, 80
2, 146880, Note_off_c, 0, 57, 0
2, 146880, Note_on_c, 0, 56, 74
2, 147360, Note_off_c, 0, 56, 0
2, 147360, Note_on_c, 0, 60, 86
2, 147840, Note_off_c, 0, 60, 0
2, 147840, Note_on_c, 0, 70, 95
2, 148320, Note_off_c, 0, 70, 0
2, 148320, Note_on_c, 0, 67, 74
2, 148800, Note_off_c, 0, 67, 0
2, 148800, Note_on_c, 0, 63, 72
2, 149280, Note_off_c, 0, 63, 0
2, 149280, Note_on_c, 0, 60, 67
2, 149760, Note_off_c, 0, 60, 0
2, 149760, Note_on_c, 0, 70, 91
2, 150240, Note_off_c, 0, 70, 0
2, 150240, Note_on_c, 0, 66, 70
2, 150720, Note_off_c, 0, 66, 0
2, 150720, Note_on_c, 0, 63, 65
2, 151200, Note_off_c, 0, 63, 0
2, 151200, Note_on_c, 0, 57, 67
2, 151680, Note_off_c, 0, 57, 0
2, 151680, Note_on_c, 0, 58, 82
2, 152160, Note_off_c, 0, 58, 0
2, 152160, Note_on_c, 0, 63, 88
2, 152640, Note_off_c, 0, 63, 0
2, 152640, Note_on_c, 0, 60, 71
2, 153120, Note_off_c, 0, 60, 0
2, 153120, Note_on_c, 0, 61, 80
2, 153600, Note_off_c, 0, 61, 0
2, 153600, Note_on_c, 0, 62, 82
2, 155520, Note_off_c, 0, 62, 0
2, 156960, Note_on_c, 0, 62, 67
2, 157440, Note_off_c, 0, 62, 0
2, 157440, Note_on_c, 0, 70, 91
2, 157920, Note_off_c, 0, 70, 0
2, 157920, Note_on_c, 0, 65, 69
2, 158400, Note_off_c, 0, 65, 0
2, 158400, Note_on_c, 0, 62, 68
2, 158880, Note_off_c, 0, 62, 0
2, 158880, Note_on_c, 0, 58, 72
2, 159360, Note_off_c, 0, 58, 0
2, 159360, Note_on_c, 0, 53, 70
2, 159840, Note_off_c, 0, 53, 0
2, 159840, Note_on_c, 0, 58, 78
2, 160320, Note_off_c, 0, 58, 0
2, 160320, Note_on_c, 0, 62, 85
2, 160800, Note_off_c, 0, 62, 0
2, 160800, Note_on_c, 0, 65, 87
2, 161280, Note_off_c, 0, 65, 0
2, 161280, Note_on_c, 0, 70, 90
2, 161760, Note_off_c, 0, 70, 0
2, 161760, Note_on_c, 0, 66, 72
2, 162240, Note_off_c, 0, 66, 0
2, 162240, Note_on_c, 0, 62, 69
2, 162720, Note_off_c, 0, 62, 0
2, 162720, Note_on_c, 0, 58, 74
2, 163200, Note_off_c, 0, 58, 0
2, 163200, Note_on_c, 0, 54, 73
2, 163680, Note_off_c, 0, 54, 0
2, 163680, Note_on_c, 0, 58, 75
2, 164160, Note_off_c, 0, 58, 0
2, 164160, Note_on_c, 0, 62, 87
2, 164640, Note_off_c, 0, 62, 0
2, 164640, Note_on_c, 0, 66, 85
2, 165120, Note_off_c, 0, 66, 0
2, 165120, Note_on_c, 0, 70, 90
2, 165600, Note_off_c, 0, 70, 0
2, 165600, Note_on_c, 0, 67, 71
2, 166080, Note_off_c, 0, 67, 0
2, 166080, Note_on_c, 0, 63, 65
2, 166560, Note_off_c, 0, 63, 0
2, 166560, Note_on_c, 0, 60, 64
2, 167040, Note_off_c, 0, 60, 0
2, 167040, Note_on_c, 0, 62, 83
2, 167520, Note_off_c, 0, 62, 0
2, 167520, Note_on_c, 0, 63, 83
2, 168000, Note_off_c, 0, 63, 0
2, 168000, Note_on_c, 0, 65, 81
2, 168960, Note_off_c, 0, 65, 0
2, 170400, Note_on_c, 0, 65, 68
2, 170880, Note_off_c, 0, 65, 0
2, 170880, Note_on_c, 0, 67, 81
2, 171120, Note_off_c, 0, 67, 0
2, 171120, Note_on_c, 0, 70, 80
2, 171360, Note_off_c, 0, 70, 0
2, 171360, Note_on_c, 0, 74, 88
2, 171600, Note_off_c, 0, 74, 0
2, 171600, Note_on_c, 0, 77, 85
2, 171840, Note_off_c, 0, 77, 0
2, 171840, Note_on_c, 0, 75, 74
2, 172800, Note_off_c, 0, 75, 0
2, 174720, Note_on_c, 0, 74, 69
2, 175039, Note_off_c, 0, 74, 0
2, 175039, Note_on_c, 0, 75, 78
2, 175358, Note_off_c, 0, 75, 0
2, 175358, Note_on_c, 0, 76, 79
2, 175680, Note_off_c, 0, 76, 0
2, 175680, Note_on_c, 0, 77, 83
2, 176160, Note_off_c, 0, 77, 0
2, 176160, Note_on_c, 0, 75, 71
2, 176640, Note_off_c, 0, 75, 0
2, 176640, Note_on_c, 0, 74, 68
2, 177120, Note_off_c, 0, 74, 0
2, 177120, Note_on_c, 0, 72, 71
2, 177600, Note_off_c, 0, 72, 0
2, 177600, Note_on_c, 0, 70, 72
2, 178080, Note_off_c, 0, 70, 0
2, 178080, Note_on_c, 0, 68, 64
2, 178560, Note_off_c, 0, 68, 0
2, 178560, Note_on_c, 0, 67, 65
2, 179040, Note_off_c, 0, 67, 0
2, 179040, Note_on_c, 0, 70, 85
2, 179520, Note_off_c, 0, 70, 0
2, 179520, Note_on_c, 0, 72, 82
2, 180000, Note_off_c, 0, 72, 0
2, 180000, Note_on_c, 0, 74, 81
2, 180480, Note_off_c, 0, 74, 0
2, 180480, Note_on_c, 0, 77, 84
2, 180960, Note_off_c, 0, 77, 0
2, 180960, Note_on_c, 0, 75, 71
2, 181440, Note_off_c, 0, 75, 0
2, 181440, Note_on_c, 0, 74, 75
2, 181920, Note_off_c, 0, 74, 0
2, 181920, Note_on_c, 0, 72, 65
2, 182400, Note_off_c, 0, 72, 0
2, 182400, Note_on_c, 0, 69, 64
2, 182719, Note_off_c, 0, 69, 0
2, 182719, Note_on_c, 0, 70, 81
2, 183038, Note_off_c, 0, 70, 0
2, 183038, Note_on_c, 0, 71, 76
2, 183360, Note_off_c, 0, 71, 0
2, 183360, Note_on_c, 0, 72, 80
2, 183840, Note_off_c, 0, 72, 0
2, 183840, Note_on_c, 0, 69, 69
2, 184320, Note_off_c, 0, 69, 0
2, 184320, Note_on_c, 0, 70, 77
2, 184800, Note_off_c, 0, 70, 0
2, 184800, Note_on_c, 0, 65, 62
2, 186240, Note_off_c, 0, 65, 0
2, 188160, Note_on_c, 0, 76, 71
2, 188479, Note_off_c, 0, 76, 0
2, 188479, Note_on_c, 0, 74, 69
2, 188798, Note_off_c, 0, 74, 0
2, 188798, Note_on_c, 0, 72, 75
2, 189120, Note_off_c, 0, 72, 0
2, 189120, Note_on_c, 0, 71, 73
2, 189600, Note_off_c, 0, 71, 0
2, 189600, Note_on_c, 0, 69, 69
2, 190080, Note_off_c, 0, 69, 0
2, 190080, Note_on_c, 0, 67, 69
2, 190560, Note_off_c, 0, 67, 0
2, 190560, Note_on_c, 0, 66, 79
2, 191040, Note_off_c, 0, 66, 0
2, 191040, Note_on_c, 0, 64, 70
2, 191520, Note_off_c, 0, 64, 0
2, 191520, Note_on_c, 0, 59, 69
2, 192000, Note_off_c, 0, 59, 0
2, 192000, Note_on_c, 0, 60, 81
2, 192319, Note_off_c, 0, 60, 0
2, 192319, Note_on_c, 0, 63, 76
2, 192638, Note_off_c, 0, 63, 0
2, 192638, Note_on_c, 0, 66, 86
2, 192960, Note_off_c, 0, 66, 0
2, 192960, Note_on_c, 0, 70, 84
2, 193440, Note_off_c, 0, 70, 0
2, 193440, Note_on_c, 0, 66, 71
2, 193920, Note_off_c, 0, 66, 0
2, 193920, Note_on_c, 0, 63, 70
2, 194400, Note_off_c, 0, 63, 0
2, 194400, Note_on_c, 0, 60, 68
2, 194880, Note_off_c, 0, 60, 0
2, 194880, Note_on_c, 0, 69, 91
2, 195360, Note_off_c, 0, 69, 0
2, 195360, Note_on_c, 0, 67, 71
2, 195840, Note_off_c, 0, 67, 0
2, 195840, Note_on_c, 0, 65, 70
2, 196320, Note_off_c, 0, 65, 0
2, 196320, Note_on_c, 0, 64, 71
2, 196800, Note_off_c, 0, 64, 0
2, 196800, Note_on_c, 0, 62, 70
2, 197119, Note_off_c, 0, 62, 0
2, 197119, Note_on_c, 0, 61, 72
2, 197438, Note_off_c, 0, 61, 0
2, 197438, Note_on_c, 0, 60, 71
2, 197760, Note_off_c, 0, 60, 0
2, 197760, Note_on_c, 0, 59, 75
2, 198720, Note_off_c, 0, 59, 0
2, 198720, Note_on_c, 0, 76, 100
2, 199200, Note_off_c, 0, 76, 0
2, 199200, Note_on_c, 0, 71, 69
2, 199680, Note_off_c, 0, 71, 0
2, 199680, Note_on_c, 0, 68, 71
2, 200160, Note_off_c, 0, 68, 0
2, 200160, Note_on_c, 0, 65, 68
2, 200640, Note_off_c, 0, 65, 0
2, 200640, Note_on_c, 0, 63, 72
2, 201120, Note_off_c, 0, 63, 0
2, 201120, Note_on_c, 0, 59, 71
2, 201600, Note_off_c, 0, 59, 0
2, 201600, Note_on_c, 0, 63, 84
2, 202080, Note_off_c, 0, 63, 0
2, 202080, Note_on_c, 0, 64, 83
2, 202560, Note_off_c, 0, 64, 0
2, 202560, Note_on_c, 0, 67, 83
2, 203040, Note_off_c, 0, 67, 0
2, 203040, Note_on_c, 0, 69, 82
2, 203520, Note_off_c, 0, 69, 0
2, 203520, Note_on_c, 0, 70, 77
2, 204000, Note_off_c, 0, 70, 0
2, 204000, Note_on_c, 0, 72, 82
2, 204480, Note_off_c, 0, 72, 0
2, 204480, Note_on_c, 0, 74, 85
2, 204960, Note_off_c, 0, 74, 0
2, 204960, Note_on_c, 0, 68, 64
2, 205440, Note_off_c, 0, 68, 0
2, 205440, Note_on_c, 0, 69, 81
2, 205920, Note_off_c, 0, 69, 0
2, 205920, Note_on_c, 0, 72, 77
2, 206400, Note_off_c, 0, 72, 0
2, 206400, Note_on_c, 0, 70, 65
2, 206880, Note_off_c, 0, 70, 0
2, 206880, Note_on_c, 0, 69, 77
2, 207360, Note_off_c, 0, 69, 0
2, 207360, Note_on_c, 0, 67, 72
2, 207840, Note_off_c, 0, 67, 0
2, 207840, Note_on_c, 0, 65, 71
2, 208320, Note_off_c, 0, 65, 0
2, 208320, Note_on_c, 0, 64, 73
2, 208800, Note_off_c, 0, 64, 0
2, 208800, Note_on_c, 0, 62, 70
2, 209280, Note_off_c, 0, 62, 0
2, 209280, Note_on_c, 0, 68, 87
2, 209760, Note_off_c, 0, 68, 0
2, 209760, Note_on_c, 0, 64, 66
2, 210240, Note_off_c, 0, 64, 0
2, 210240, Note_on_c, 0, 61, 68
2, 210720, Note_off_c, 0, 61, 0
2, 210720, Note_on_c, 0, 59, 71
2, 211200, Note_off_c, 0, 59, 0
2, 211200, Note_on_c, 0, 67, 93
2, 212160, Note_off_c, 0, 67, 0
2, 212160, Note_on_c, 0, 63, 67
2, 212400, Note_off_c, 0, 63, 0
2, 212400, Note_on_c, 0, 62, 74
2, 212640, Note_off_c, 0, 62, 0
2, 212640, Note_on_c, 0, 60, 74
2, 212880, Note_off_c, 0, 60, 0
2, 212880, Note_on_c, 0, 59, 75
2, 213600, Note_off_c, 0, 59, 0
2, 213600, Note_on_c, 0, 67, 92
2, 214080, Note_off_c, 0, 67, 0
2, 214080, Note_on_c, 0, 63, 74
2, 214560, Note_off_c, 0, 63, 0
2, 214560, Note_on_c, 0, 59, 74
2, 215040, Note_off_c, 0, 59, 0
2, 215040, Note_on_c, 0, 58, 72
2, 215520, Note_off_c, 0, 58, 0
2, 215520, Note_on_c, 0, 56, 76
2, 216000, Note_off_c, 0, 56, 0
2, 216000, Note_on_c, 0, 57, 79
2, 216480, Note_off_c, 0, 57, 0
2, 216480, Note_on_c, 0, 66, 88
2, 216960, Note_off_c, 0, 66, 0
2, 216960, Note_on_c, 0, 63, 70
2, 217440, Note_off_c, 0, 63, 0
2, 217440, Note_on_c, 0, 64, 77
2, 217920, Note_off_c, 0, 64, 0
2, 217920, Note_on_c, 0, 65, 79
2, 218880, Note_off_c, 0, 65, 0
2, 219360, Note_on_c, 0, 63, 69
2, 219840, Note_off_c, 0, 63, 0
2, 219840, Note_on_c, 0, 60, 69
2, 220320, Note_off_c, 0, 60, 0
2, 220320, Note_on_c, 0, 61, 77
2, 220800, Note_off_c, 0, 61, 0
2, 220800, Note_on_c, 0, 62, 80
2, 221280, Note_off_c, 0, 62, 0
2, 221280, Note_on_c, 0, 58, 72
2, 221760, Note_off_c, 0, 58, 0
2, 221760, Note_on_c, 0, 55, 73
2, 222240, Note_off_c, 0, 55, 0
2, 222240, Note_on_c, 0, 57, 79
2, 222720, Note_off_c, 0, 57, 0
2, 222720, Note_on_c, 0, 60, 89
2, 223200, Note_off_c, 0, 60, 0
2, 223200, Note_on_c, 0, 58, 75
2, 223680, Note_off_c, 0, 58, 0
2, 223680, Note_on_c, 0, 57, 74
2, 223920, Note_off_c, 0, 57, 0
2, 223920, Note_on_c, 0, 60, 84
2, 224160, Note_off_c, 0, 60, 0
2, 224160, Note_on_c, 0, 63, 89
2, 224400, Note_off_c, 0, 63, 0
2, 224400, Note_on_c, 0, 66, 80
2, 224640, Note_off_c, 0, 66, 0
2, 224640, Note_on_c, 0, 65, 75
2, 225120, Note_off_c, 0, 65, 0
2, 225120, Note_on_c, 0, 61, 71
2, 225600, Note_off_c, 0, 61, 0
2, 225600, Note_on_c, 0, 62, 82
2, 225919, Note_off_c, 0, 62, 0
2, 225919, Note_on_c, 0, 65, 86
2, 226238, Note_off_c, 0, 65, 0
2, 226238, Note_on_c, 0, 69, 90
2, 226560, Note_off_c, 0, 69, 0
2, 226560, Note_on_c, 0, 70, 81
2, 227520, Note_off_c, 0, 70, 0
2, 227520, Note_on_c, 0, 65, 66
2, 228480, Note_off_c, 0, 65, 0
2, 228480, Note_on_c, 0, 67, 76
2, 230400, Note_off_c, 0, 67, 0
2, 233280, Note_on_c, 0, 65, 72
2, 233599, Note_off_c, 0, 65, 0
2, 233599, Note_on_c, 0, 67, 80
2, 233918, Note_off_c, 0, 67, 0
2, 233918, Note_on_c, 0, 69, 81
2, 234240, Note_off_c, 0, 69, 0
2, 234240, Note_on_c, 0, 70, 75
2, 234559, Note_off_c, 0, 70, 0
2, 234559, Note_on_c, 0, 72, 81
2, 234878, Note_off_c, 0, 72, 0
2, 234878, Note_on_c, 0, 73, 81
2, 235200, Note_off_c, 0, 73, 0
2, 235200, Note_on_c, 0, 74, 84
2, 236160, Note_off_c, 0, 74, 0
2, 236160, Note_on_c, 0, 70, 70
2, 237120, Note_off_c, 0, 70, 0
2, 237120, Note_on_c, 0, 65, 62
2, 238080, Note_off_c, 0, 65, 0
2, 238080, Note_on_c, 0, 67, 81
2, 240000, Note_off_c, 0, 67, 0
2, 246720, Note_on_c, 0, 74, 73
2, 249600, Note_off_c, 0, 74, 0
2, 249600, Note_on_c, 0, 65, 59
2, 250080, Note_off_c, 0, 65, 0
2, 250080, Note_on_c, 0, 70, 85
2, 250560, Note_off_c, 0, 70, 0
2, 250560, Note_on_c, 0, 74, 85
2, 251040, Note_off_c, 0, 74, 0
2, 251040, Note_on_c, 0, 79, 90
2, 251520, Note_off_c, 0, 79, 0
2, 251520, Note_on_c, 0, 77, 74
2, 252960, Note_off_c, 0, 77, 0
2, 252960, Note_on_c, 0, 75, 68
2, 254400, Note_off_c, 0, 75, 0
2, 254400, Note_on_c, 0, 74, 73
2, 255360, Note_off_c, 0, 74, 0
2, 256800, Note_on_c, 0, 62, 66
2, 257280, Note_off_c, 0, 62, 0
2, 257280, Note_on_c, 0, 64, 86
2, 257760, Note_off_c, 0, 64, 0
2, 257760, Note_on_c, 0, 67, 87
2, 258240, Note_off_c, 0, 67, 0
2, 258240, Note_on_c, 0, 70, 84
2, 258720, Note_off_c, 0, 70, 0
2, 258720, Note_on_c, 0, 74, 88
2, 259200, Note_off_c, 0, 74, 0
2, 259200, Note_on_c, 0, 72, 75
2, 259680, Note_off_c, 0, 72, 0
2, 259680, Note_on_c, 0, 72, 79
2, 260160, Note_off_c, 0, 72, 0
2, 260160, Note_on_c, 0, 72, 72
2, 260640, Note_off_c, 0, 72, 0
2, 260640, Note_on_c, 0, 69, 65
2, 262080, Note_off_c, 0, 69, 0
2, 262080, Note_on_c, 0, 67, 73
2, 263040, Note_off_c, 0, 67, 0
2, 264000, Note_on_c, 0, 79, 67
2, 264480, Note_off_c, 0, 79, 0
2, 264480, Note_on_c, 0, 78, 70
2, 264960, Note_off_c, 0, 78, 0
2, 264960, Note_on_c, 0, 77, 72
2, 265440, Note_off_c, 0, 77, 0
2, 265440, Note_on_c, 0, 75, 72
2, 265920, Note_off_c, 0, 75, 0
2, 265920, Note_on_c, 0, 74, 65
2, 266400, Note_off_c, 0, 74, 0
2, 266400, Note_on_c, 0, 72, 73
2, 266880, Note_off_c, 0, 72, 0
2, 266880, Note_on_c, 0, 70, 69
2, 267360, Note_off_c, 0, 70, 0
2, 267360, Note_on_c, 0, 69, 73
2, 267840, Note_off_c, 0, 69, 0
2, 267840, Note_on_c, 0, 68, 75
2, 268320, Note_off_c, 0, 68, 0
2, 268320, Note_on_c, 0, 72, 80
2, 268800, Note_off_c, 0, 72, 0
2, 268800, Note_on_c, 0, 67, 68
2, 269280, Note_off_c, 0, 67, 0
2, 269280, Note_on_c, 0, 70, 81
2, 269760, Note_off_c, 0, 70, 0
2, 269760, Note_on_c, 0, 72, 83
2, 270240, Note_off_c, 0, 72, 0
2, 270240, Note_on_c, 0, 74, 78
2, 270720, Note_off_c, 0, 74, 0
2, 270720, Note_on_c, 0, 77, 83
2, 271200, Note_off_c, 0, 77, 0
2, 271680, Note_on_c, 0, 77, 70
2, 272160, Note_off_c, 0, 77, 0
2, 272160, Note_on_c, 0, 75, 72
2, 272640, Note_off_c, 0, 75, 0
2, 273120, Note_on_c, 0, 75, 71
2, 273600, Note_off_c, 0, 75, 0
2, 273600, Note_on_c, 0, 72, 71
2, 275520, Note_off_c, 0, 72, 0
2, 279360, Note_on_c, 0, 73, 70
2, 279840, Note_off_c, 0, 73, 0
2, 279840, Note_on_c, 0, 74, 76
2, 280320, Note_off_c, 0, 74, 0
2, 280320, Note_on_c, 0, 79, 81
2, 280800, Note_off_c, 0, 79, 0
2, 280800, Note_on_c, 0, 77, 77
2, 281280, Note_off_c, 0, 77, 0
2, 281280, Note_on_c, 0, 69, 61
2, 281760, Note_off_c, 0, 69, 0
2, 281760, Note_on_c, 0, 70, 79
2, 282240, Note_off_c, 0, 70, 0
2, 282240, Note_on_c, 0, 75, 88
2, 282720, Note_off_c, 0, 75, 0
2, 282720, Note_on_c, 0, 74, 71
2, 283200, Note_off_c, 0, 74, 0
2, 283200, Note_on_c, 0, 64, 61
2, 283680, Note_off_c, 0, 64, 0
2, 283680, Note_on_c, 0, 65, 77
2, 284160, Note_off_c, 0, 65, 0
2, 284160, Note_on_c, 0, 72, 87
2, 284640, Note_off_c, 0, 72, 0
2, 284640, Note_on_c, 0, 70, 79
2, 285120, Note_off_c, 0, 70, 0
2, 285120, Note_on_c, 0, 61, 52
2, 285600, Note_off_c, 0, 61, 0
2, 285600, Note_on_c, 0, 62, 82
2, 286080, Note_off_c, 0, 62, 0
2, 286080, Note_on_c, 0, 67, 86
2, 286560, Note_off_c, 0, 67, 0
2, 286560, Note_on_c, 0, 65, 77
2, 287040, Note_off_c, 0, 65, 0
2, 287040, Note_on_c, 0, 57, 71
2, 287520, Note_off_c, 0, 57, 0
2, 287520, Note_on_c, 0, 58, 80
2, 288000, Note_off_c, 0, 58, 0
2, 288000, Note_on_c, 0, 62, 85
2, 288480, Note_off_c, 0, 62, 0
2, 288480, Note_on_c, 0, 63, 87
2, 288960, Note_off_c, 0, 63, 0
2, 288960, Note_on_c, 0, 62, 72
2, 289440, Note_off_c, 0, 62, 0
2, 289440, Note_on_c, 0, 60, 76
2, 289920, Note_off_c, 0, 60, 0
2, 289920, Note_on_c, 0, 59, 79
2, 290400, Note_off_c, 0, 59, 0
2, 290400, Note_on_c, 0, 68, 94
2, 290880, Note_off_c, 0, 68, 0
2, 290880, Note_on_c, 0, 67, 72
2, 291360, Note_off_c, 0, 67, 0
2, 291360, Note_on_c, 0, 65, 72
2, 291840, Note_off_c, 0, 65, 0
2, 291840, Note_on_c, 0, 63, 70
2, 292320, Note_off_c, 0, 63, 0
2, 292320, Note_on_c, 0, 55, 72
2, 292800, Note_off_c, 0, 55, 0
2, 292800, Note_on_c, 0, 58, 79
2, 293280, Note_off_c, 0, 58, 0
2, 293280, Note_on_c, 0, 62, 84
2, 293760, Note_off_c, 0, 62, 0
2, 293760, Note_on_c, 0, 60, 72
2, 294240, Note_off_c, 0, 60, 0
2, 294240, Note_on_c, 0, 58, 72
2, 294720, Note_off_c, 0, 58, 0
2, 294720, Note_on_c, 0, 57, 72
2, 294960, Note_off_c, 0, 57, 0
2, 294960, Note_on_c, 0, 60, 85
2, 295200, Note_off_c, 0, 60, 0
2, 295200, Note_on_c, 0, 63, 81
2, 295440, Note_off_c, 0, 63, 0
2, 295440, Note_on_c, 0, 66, 84
2, 295680, Note_off_c, 0, 66, 0
2, 295680, Note_on_c, 0, 65, 74
2, 296160, Note_off_c, 0, 65, 0
2, 296160, Note_on_c, 0, 61, 64
2, 296640, Note_off_c, 0, 61, 0
2, 296640, Note_on_c, 0, 62, 78
2, 296959, Note_off_c, 0, 62, 0
2, 296959, Note_on_c, 0, 65, 83
2, 297278, Note_off_c, 0, 65, 0
2, 297278, Note_on_c, 0, 69, 84
2, 297600, Note_off_c, 0, 69, 0
2, 297600, Note_on_c, 0, 72, 85
2, 298080, Note_off_c, 0, 72, 0
2, 298080, Note_on_c, 0, 71, 74
2, 298560, Note_off_c, 0, 71, 0
2, 298560, Note_on_c, 0, 70, 70
2, 299040, Note_off_c, 0, 70, 0
2, 299040, Note_on_c, 0, 68, 71
2, 299520, Note_off_c, 0, 68, 0
2, 299520, Note_on_c, 0, 67, 75
2, 300000, Note_off_c, 0, 67, 0
2, 300000, Note_on_c, 0, 65, 73
2, 300480, Note_off_c, 0, 65, 0
2, 300480, Note_on_c, 0, 63, 70
2, 300960, Note_off_c, 0, 63, 0
2, 300960, Note_on_c, 0, 60, 68
2, 301440, Note_off_c, 0, 60, 0
2, 301440, Note_on_c, 0, 70, 93
2, 301920, Note_off_c, 0, 70, 0
2, 301920, Note_on_c, 0, 66, 71
2, 302400, Note_off_c, 0, 66, 0
2, 302400, Note_on_c, 0, 63, 66
2, 302880, Note_off_c, 0, 63, 0
2, 302880, Note_on_c, 0, 57, 69
2, 303360, Note_off_c, 0, 57, 0
2, 303360, Note_on_c, 0, 58, 74
2, 303840, Note_off_c, 0, 58, 0
2, 303840, Note_on_c, 0, 63, 86
2, 304320, Note_off_c, 0, 63, 0
2, 304320, Note_on_c, 0, 60, 74
2, 304800, Note_off_c, 0, 60, 0
2, 304800, Note_on_c, 0, 61, 77
2, 305280, Note_off_c, 0, 61, 0
2, 305280, Note_on_c, 0, 62, 79
2, 307200, Note_off_c, 0, 62, 0
2, 309758, Note_on_c, 0, 74, 67
2, 310399, Note_off_c, 0, 74, 0
2, 310399, Note_on_c, 0, 76, 78
2, 311040, Note_off_c, 0, 76, 0
2, 311040, Note_on_c, 0, 79, 83
2, 312000, Note_off_c, 0, 79, 0
2, 312000, Note_on_c, 0, 78, 76
2, 312960, Note_off_c, 0, 78, 0
2, 312960, Note_on_c, 0, 74, 72
2, 313598, Note_off_c, 0, 74, 0
2, 313598, Note_on_c, 0, 76, 78
2, 314239, Note_off_c, 0, 76, 0
2, 314239, Note_on_c, 0, 79, 81
2, 314880, Note_off_c, 0, 79, 0
2, 314880, Note_on_c, 0, 78, 75
2, 316320, Note_off_c, 0, 78, 0
2, 316320, Note_on_c, 0, 76, 74
2, 316800, Note_off_c, 0, 76, 0
2, 316800, Note_on_c, 0, 74, 71
2, 317760, Note_off_c, 0, 74, 0
2, 317760, Note_on_c, 0, 71, 70
2, 318240, Note_off_c, 0, 71, 0
2, 318240, Note_on_c, 0, 62, 54
2, 318720, Note_off_c, 0, 62, 0
2, 318720, Note_on_c, 0, 70, 88
2, 319680, Note_off_c, 0, 70, 0
2, 319680, Note_on_c, 0, 70, 79
2, 321600, Note_off_c, 0, 70, 0
2, 321600, Note_on_c, 0, 77, 95
2, 321919, Note_off_c, 0, 77, 0
2, 321919, Note_on_c, 0, 73, 71
2, 322238, Note_off_c, 0, 73, 0
2, 322238, Note_on_c, 0, 70, 71
2, 322560, Note_off_c, 0, 70, 0
2, 322560, Note_on_c, 0, 63, 60
2, 323325, Note_off_c, 0, 63, 0
2, 323325, Note_on_c, 0, 62, 71
2, 324094, Note_off_c, 0, 62, 0
2, 324094, Note_on_c, 0, 60, 66
2, 324863, Note_off_c, 0, 60, 0
2, 324863, Note_on_c, 0, 59, 72
2, 325631, Note_off_c, 0, 59, 0
2, 325631, Note_on_c, 0, 56, 76
2, 326400, Note_off_c, 0, 56, 0
2, 327840, Note_on_c, 0, 66, 67
2, 328320, Note_off_c, 0, 66, 0
2, 328320, Note_on_c, 0, 67, 80
2, 328639, Note_off_c, 0, 67, 0
2, 328639, Note_on_c, 0, 70, 82
2, 328958, Note_off_c, 0, 70, 0
2, 328958, Note_on_c, 0, 74, 82
2, 329280, Note_off_c, 0, 74, 0
2, 329280, Note_on_c, 0, 77, 87
2, 329760, Note_off_c, 0, 77, 0
2, 329760, Note_on_c, 0, 74, 69
2, 330240, Note_off_c, 0, 74, 0
2, 330240, Note_on_c, 0, 75, 73
2, 330720, Note_off_c, 0, 75, 0
2, 330720, Note_on_c, 0, 76, 80
2, 331200, Note_off_c, 0, 76, 0
2, 331200, Note_on_c, 0, 72, 72
2, 331680, Note_off_c, 0, 72, 0
2, 331680, Note_on_c, 0, 73, 81
2, 332160, Note_off_c, 0, 73, 0
2, 332160, Note_on_c, 0, 74, 82
2, 332640, Note_off_c, 0, 74, 0
2, 332640, Note_on_c, 0, 72, 73
2, 333120, Note_off_c, 0, 72, 0
2, 333120, Note_on_c, 0, 70, 71
2, 333600, Note_off_c, 0, 70, 0
2, 333600, Note_on_c, 0, 69, 76
2, 334080, Note_off_c, 0, 69, 0
2, 334080, Note_on_c, 0, 67, 72
2, 334560, Note_off_c, 0, 67, 0
2, 334560, Note_on_c, 0, 65, 69
2, 335040, Note_off_c, 0, 65, 0
2, 335040, Note_on_c, 0, 63, 73
2, 336000, Note_off_c, 0, 63, 0
2, 343680, Note_on_c, 0, 65, 74
2, 343999, Note_off_c, 0, 65, 0
2, 343999, Note_on_c, 0, 67, 80
2, 344318, Note_off_c, 0, 67, 0
2, 344318, Note_on_c, 0, 69, 81
2, 344640, Note_off_c, 0, 69, 0
2, 344640, Note_on_c, 0, 70, 78
2, 344959, Note_off_c, 0, 70, 0
2, 344959, Note_on_c, 0, 72, 84
2, 345278, Note_off_c, 0, 72, 0
2, 345278, Note_on_c, 0, 73, 79
2, 345600, Note_off_c, 0, 73, 0
2, 345600, Note_on_c, 0, 74, 83
2, 346560, Note_off_c, 0, 74, 0
2, 346560, Note_on_c, 0, 65, 61
2, 347040, Note_off_c, 0, 65, 0
2, 347040, Note_on_c, 0, 67, 81
2, 347520, Note_off_c, 0, 67, 0
2, 352320, Note_on_c, 0, 65, 69
2, 352800, Note_off_c, 0, 65, 0
2, 352800, Note_on_c, 0, 66, 75
2, 353280, Note_off_c, 0, 66, 0
2, 353280, Note_on_c, 0, 67, 84
2, 353760, Note_off_c, 0, 67, 0
2, 353760, Note_on_c, 0, 75, 92
2, 354240, Note_off_c, 0, 75, 0
2, 354240, Note_on_c, 0, 72, 72
2, 354720, Note_off_c, 0, 72, 0
2, 354720, Note_on_c, 0, 73, 76
2, 355200, Note_off_c, 0, 73, 0
2, 355200, Note_on_c, 0, 74, 80
2, 355680, Note_off_c, 0, 74, 0
2, 355680, Note_on_c, 0, 73, 72
2, 356160, Note_off_c, 0, 73, 0
2, 356160, Note_on_c, 0, 72, 69
2, 356640, Note_off_c, 0, 72, 0
2, 356640, Note_on_c, 0, 71, 72
2, 357120, Note_off_c, 0, 71, 0
2, 357120, Note_on_c, 0, 70, 70
2, 357600, Note_off_c, 0, 70, 0
2, 357600, Note_on_c, 0, 69, 76
2, 358080, Note_off_c, 0, 69, 0
2, 358080, Note_on_c, 0, 68, 76
2, 358560, Note_off_c, 0, 68, 0
2, 358560, Note_on_c, 0, 60, 57
2, 359040, Note_off_c, 0, 60, 0
2, 359040, Note_on_c, 0, 70, 89
2, 359520, Note_off_c, 0, 70, 0
2, 359520, Note_on_c, 0, 68, 77
2, 360000, Note_off_c, 0, 68, 0
2, 360000, Note_on_c, 0, 67, 73
2, 360480, Note_off_c, 0, 67, 0
2, 360480, Note_on_c, 0, 65, 68
2, 360960, Note_off_c, 0, 65, 0
2, 360960, Note_on_c, 0, 63, 72
2, 361440, Note_off_c, 0, 63, 0
2, 361440, Note_on_c, 0, 57, 64
2, 361920, Note_off_c, 0, 57, 0
2, 361920, Note_on_c, 0, 58, 72
2, 362400, Note_off_c, 0, 58, 0
2, 362400, Note_on_c, 0, 60, 80
2, 362880, Note_off_c, 0, 60, 0
2, 362880, Note_on_c, 0, 61, 85
2, 363360, Note_off_c, 0, 61, 0
2, 363360, Note_on_c, 0, 58, 73
2, 363840, Note_off_c, 0, 58, 0
2, 363840, Note_on_c, 0, 53, 70
2, 364320, Note_off_c, 0, 53, 0
2, 364320, Note_on_c, 0, 57, 80
2, 364800, Note_off_c, 0, 57, 0
2, 364800, Note_on_c, 0, 60, 82
2, 365280, Note_off_c, 0, 60, 0
2, 365280, Note_on_c, 0, 58, 76
2, 365760, Note_off_c, 0, 58, 0
2, 365760, Note_on_c, 0, 57, 74
2, 366240, Note_off_c, 0, 57, 0
2, 366240, Note_on_c, 0, 58, 82
2, 366720, Note_off_c, 0, 58, 0
2, 366720, Note_on_c, 0, 62, 84
2, 367200, Note_off_c, 0, 62, 0
2, 367200, Note_on_c, 0, 65, 87
2, 368640, Note_off_c, 0, 65, 0
2, 372000, Note_on_c, 0, 62, 70
2, 372480, Note_off_c, 0, 62, 0
2, 372480, Note_on_c, 0, 65, 83
2, 372799, Note_off_c, 0, 65, 0
2, 372799, Note_on_c, 0, 67, 77
2, 373118, Note_off_c, 0, 67, 0
2, 373118, Note_on_c, 0, 65, 72
2, 373440, Note_off_c, 0, 65, 0
2, 373440, Note_on_c, 0, 62, 67
2, 373920, Note_off_c, 0, 62, 0
2, 373920, Note_on_c, 0, 65, 81
2, 374239, Note_off_c, 0, 65, 0
2, 374239, Note_on_c, 0, 70, 85
2, 374558, Note_off_c, 0, 70, 0
2, 374558, Note_on_c, 0, 72, 85
2, 374880, Note_off_c, 0, 72, 0
2, 374880, Note_on_c, 0, 70, 70
2, 375360, Note_off_c, 0, 70, 0
2, 375360, Note_on_c, 0, 65, 65
2, 375840, Note_off_c, 0, 65, 0
2, 375840, Note_on_c, 0, 70, 84
2, 376320, Note_off_c, 0, 70, 0
2, 376320, Note_on_c, 0, 74, 86
2, 376800, Note_off_c, 0, 74, 0
2, 376800, Note_on_c, 0, 72, 73
2, 377280, Note_off_c, 0, 72, 0
2, 377280, Note_on_c, 0, 70, 75
2, 377760, Note_off_c, 0, 70, 0
2, 377760, Note_on_c, 0, 69, 71
2, 378240, Note_off_c, 0, 69, 0
2, 378240, Note_on_c, 0, 72, 87
2, 378720, Note_off_c, 0, 72, 0
2, 378720, Note_on_c, 0, 70, 73
2, 379200, Note_off_c, 0, 70, 0
2, 379200, Note_on_c, 0, 69, 72
2, 379680, Note_off_c, 0, 69, 0
2, 379680, Note_on_c, 0, 67, 73
2, 380160, Note_off_c, 0, 67, 0
2, 380160, Note_on_c, 0, 65, 71
2, 380479, Note_off_c, 0, 65, 0
2, 380479, Note_on_c, 0, 67, 84
2, 380798, Note_off_c, 0, 67, 0
2, 380798, Note_on_c, 0, 65, 72
2, 381120, Note_off_c, 0, 65, 0
2, 381120, Note_on_c, 0, 62, 72
2, 381600, Note_off_c, 0, 62, 0
2, 381600, Note_on_c, 0, 65, 85
2, 382080, Note_off_c, 0, 65, 0
2, 382080, Note_on_c, 0, 70, 83
2, 382399, Note_off_c, 0, 70, 0
2, 382399, Note_on_c, 0, 72, 85
2, 382718, Note_off_c, 0, 72, 0
2, 382718, Note_on_c, 0, 70, 75
2, 383040, Note_off_c, 0, 70, 0
2, 383040, Note_on_c, 0, 65, 64
2, 383520, Note_off_c, 0, 65, 0
2, 383520, Note_on_c, 0, 70, 84
2, 384000, Note_off_c, 0, 70, 0
2, 384000, Note_on_c, 0, 74, 83
2, 384480, Note_off_c, 0, 74, 0
2, 384480, Note_on_c, 0, 72, 72
2, 384960, Note_off_c, 0, 72, 0
2, 384960, Note_on_c, 0, 70, 73
2, 385440, Note_off_c, 0, 70, 0
2, 385440, Note_on_c, 0, 69, 74
2, 385920, Note_off_c, 0, 69, 0
2, 385920, Note_on_c, 0, 72, 79
2, 386400, Note_off_c, 0, 72, 0
2, 386400, Note_on_c, 0, 70, 74
2, 386880, Note_off_c, 0, 70, 0
2, 386880, Note_on_c, 0, 69, 75
2, 387360, Note_off_c, 0, 69, 0
2, 387360, Note_on_c, 0, 67, 68
2, 387840, Note_off_c, 0, 67, 0
2, 387840, Note_on_c, 0, 65, 67
2, 388320, Note_off_c, 0, 65, 0
2, 388320, Note_on_c, 0, 63, 72
2, 388800, Note_off_c, 0, 63, 0
2, 388800, Note_on_c, 0, 62, 71
2, 389280, Note_off_c, 0, 62, 0
2, 389280, Note_on_c, 0, 60, 75
2, 389760, Note_off_c, 0, 60, 0
2, 389760, Note_on_c, 0, 72, 97
2, 390720, Note_off_c, 0, 72, 0
2, 392160, Note_on_c, 0, 72, 71
2, 392400, Note_off_c, 0, 72, 0
2, 392400, Note_on_c, 0, 71, 71
2, 392640, Note_off_c, 0, 71, 0
2, 392640, Note_on_c, 0, 70, 73
2, 393120, Note_off_c, 0, 70, 0
2, 393120, Note_on_c, 0, 68, 68
2, 393600, Note_off_c, 0, 68, 0
2, 393600, Note_on_c, 0, 67, 69
2, 394080, Note_off_c, 0, 67, 0
2, 394080, Note_on_c, 0, 70, 85
2, 394560, Note_off_c, 0, 70, 0
2, 394560, Note_on_c, 0, 72, 80
2, 395040, Note_off_c, 0, 72, 0
2, 395040, Note_on_c, 0, 74, 83
2, 395520, Note_off_c, 0, 74, 0
2, 395520, Note_on_c, 0, 77, 88
2, 396000, Note_off_c, 0, 77, 0
2, 396000, Note_on_c, 0, 75, 68
2, 396480, Note_off_c, 0, 75, 0
2, 396480, Note_on_c, 0, 74, 70
2, 396960, Note_off_c, 0, 74, 0
2, 396960, Note_on_c, 0, 72, 72
2, 397440, Note_off_c, 0, 72, 0
2, 397440, Note_on_c, 0, 69, 69
2, 397759, Note_off_c, 0, 69, 0
2, 397759, Note_on_c, 0, 70, 76
2, 398078, Note_off_c, 0, 70, 0
2, 398078, Note_on_c, 0, 71, 82
2, 398400, Note_off_c, 0, 71, 0
2, 398400, Note_on_c, 0, 72, 79
2, 398880, Note_off_c, 0, 72, 0
2, 398880, Note_on_c, 0, 69, 74
2, 399360, Note_off_c, 0, 69, 0
2, 399360, Note_on_c, 0, 70, 81
2, 399840, Note_off_c, 0, 70, 0
2, 399840, Note_on_c, 0, 67, 69
2, 400320, Note_off_c, 0, 67, 0
2, 400320, Note_on_c, 0, 63, 67
2, 400800, Note_off_c, 0, 63, 0
2, 400800, Note_on_c, 0, 60, 69
2, 401280, Note_off_c, 0, 60, 0
2, 401280, Note_on_c, 0, 61, 80
2, 401760, Note_off_c, 0, 61, 0
2, 401760, Note_on_c, 0, 69, 90
2, 402240, Note_off_c, 0, 69, 0
2, 402240, Note_on_c, 0, 67, 74
2, 402720, Note_off_c, 0, 67, 0
2, 402720, Note_on_c, 0, 66, 71
2, 403200, Note_off_c, 0, 66, 0
2, 403200, Note_on_c, 0, 65, 71
2, 403680, Note_off_c, 0, 65, 0
2, 403680, Note_on_c, 0, 64, 71
2, 403920, Note_off_c, 0, 64, 0
2, 403920, Note_on_c, 0, 63, 73
2, 404160, Note_off_c, 0, 63, 0
2, 404160, Note_on_c, 0, 62, 68
2, 404640, Note_off_c, 0, 62, 0
2, 404640, Note_on_c, 0, 63, 79
2, 405600, Note_off_c, 0, 63, 0
2, 405600, Note_on_c, 0, 62, 74
2, 405840, Note_off_c, 0, 62, 0
2, 405840, Note_on_c, 0, 61, 71
2, 406080, Note_off_c, 0, 61, 0
2, 406080, Note_on_c, 0, 60, 74
2, 406800, Note_off_c, 0, 60, 0
2, 406800, Note_on_c, 0, 66, 85
2, 408000, Note_off_c, 0, 66, 0
2, 408000, Note_on_c, 0, 65, 71
2, 408120, Note_off_c, 0, 65, 0
2, 408120, Note_on_c, 0, 64, 71
2, 408240, Note_off_c, 0, 64, 0
2, 408240, Note_on_c, 0, 63, 74
2, 408960, Note_off_c, 0, 63, 0
2, 409680, Note_on_c, 0, 64, 68
2, 410400, Note_off_c, 0, 64, 0
2, 410400, Note_on_c, 0, 63, 69
2, 410640, Note_off_c, 0, 63, 0
2, 410640, Note_on_c, 0, 62, 68
2, 410880, Note_off_c, 0, 62, 0
2, 410880, Note_on_c, 0, 61, 76
2, 411840, Note_off_c, 0, 61, 0
2, 414240, Note_on_c, 0, 62, 68
2, 414720, Note_off_c, 0, 62, 0
2, 414720, Note_on_c, 0, 63, 88
2, 415680, Note_off_c, 0, 63, 0
2, 415680, Note_on_c, 0, 65, 79
2, 416160, Note_off_c, 0, 65, 0
2, 416160, Note_on_c, 0, 74, 94
2, 416640, Note_off_c, 0, 74, 0
2, 416640, Note_on_c, 0, 63, 58
2, 417600, Note_off_c, 0, 63, 0
2, 419520, Note_on_c, 0, 72, 65
2, 420000, Note_off_c, 0, 72, 0
2, 420000, Note_on_c, 0, 71, 75
2, 420480, Note_off_c, 0, 71, 0
2, 420480, Note_on_c, 0, 70, 66
2, 420960, Note_off_c, 0, 70, 0
2, 420960, Note_on_c, 0, 69, 75
2, 421440, Note_off_c, 0, 69, 0
2, 421440, Note_on_c, 0, 68, 71
2, 421920, Note_off_c, 0, 68, 0
2, 421920, Note_on_c, 0, 72, 83
2, 422400, Note_off_c, 0, 72, 0
2, 422400, Note_on_c, 0, 67, 67
2, 422880, Note_off_c, 0, 67, 0
2, 422880, Note_on_c, 0, 70, 80
2, 423360, Note_off_c, 0, 70, 0
2, 423360, Note_on_c, 0, 72, 79
2, 423840, Note_off_c, 0, 72, 0
2, 423840, Note_on_c, 0, 74, 80
2, 424320, Note_off_c, 0, 74, 0
2, 424320, Note_on_c, 0, 77, 84
2, 424800, Note_off_c, 0, 77, 0
2, 424800, Note_on_c, 0, 76, 73
2, 425280, Note_off_c, 0, 76, 0
2, 425280, Note_on_c, 0, 75, 70
2, 425760, Note_off_c, 0, 75, 0
2, 427680, Note_on_c, 0, 69, 69
2, 428640, Note_off_c, 0, 69, 0
2, 428640, Note_on_c, 0, 70, 81
2, 428880, Note_off_c, 0, 70, 0
2, 428880, Note_on_c, 0, 71, 77
2, 429120, Note_off_c, 0, 71, 0
2, 429120, Note_on_c, 0, 72, 81
2, 429600, Note_off_c, 0, 72, 0
2, 429600, Note_on_c, 0, 69, 70
2, 430080, Note_off_c, 0, 69, 0
2, 430080, Note_on_c, 0, 70, 79
2, 430560, Note_off_c, 0, 70, 0
2, 430560, Note_on_c, 0, 65, 69
2, 431040, Note_off_c, 0, 65, 0
2, 433440, Note_on_c, 0, 74, 64
2, 433920, Note_off_c, 0, 74, 0
2, 433920, Note_on_c, 0, 73, 70
2, 434400, Note_off_c, 0, 73, 0
2, 434400, Note_on_c, 0, 74, 79
2, 434880, Note_off_c, 0, 74, 0
2, 434880, Note_on_c, 0, 75, 82
2, 435199, Note_off_c, 0, 75, 0
2, 435199, Note_on_c, 0, 74, 72
2, 435518, Note_off_c, 0, 74, 0
2, 435518, Note_on_c, 0, 73, 72
2, 435840, Note_off_c, 0, 73, 0
2, 435840, Note_on_c, 0, 72, 71
2, 436320, Note_off_c, 0, 72, 0
2, 436320, Note_on_c, 0, 71, 70
2, 436800, Note_off_c, 0, 71, 0
2, 436800, Note_on_c, 0, 70, 71
2, 437280, Note_off_c, 0, 70, 0
2, 437280, Note_on_c, 0, 69, 70
2, 437760, Note_off_c, 0, 69, 0
2, 437760, Note_on_c, 0, 67, 70
2, 438240, Note_off_c, 0, 67, 0
2, 438240, Note_on_c, 0, 66, 73
2, 438720, Note_off_c, 0, 66, 0
2, 438720, Note_on_c, 0, 64, 72
2, 439200, Note_off_c, 0, 64, 0
2, 439200, Note_on_c, 0, 62, 71
2, 439680, Note_off_c, 0, 62, 0
2, 439680, Note_on_c, 0, 70, 94
2, 440160, Note_off_c, 0, 70, 0
2, 440160, Note_on_c, 0, 66, 68
2, 440640, Note_off_c, 0, 66, 0
2, 440640, Note_on_c, 0, 63, 67
2, 441120, Note_off_c, 0, 63, 0
2, 441120, Note_on_c, 0, 60, 72
2, 441600, Note_off_c, 0, 60, 0
2, 441600, Note_on_c, 0, 69, 89
2, 442560, Note_off_c, 0, 69, 0
2, 443520, Note_on_c, 0, 76, 71
2, 443839, Note_off_c, 0, 76, 0
2, 443839, Note_on_c, 0, 77, 85
2, 444158, Note_off_c, 0, 77, 0
2, 444158, Note_on_c, 0, 78, 79
2, 444480, Note_off_c, 0, 78, 0
2, 444480, Note_on_c, 0, 79, 79
2, 444799, Note_off_c, 0, 79, 0
2, 444799, Note_on_c, 0, 78, 74
2, 445118, Note_off_c, 0, 78, 0
2, 445118, Note_on_c, 0, 77, 70
2, 445440, Note_off_c, 0, 77, 0
2, 445440, Note_on_c, 0, 76, 71
2, 445920, Note_off_c, 0, 76, 0
2, 445920, Note_on_c, 0, 75, 74
2, 446400, Note_off_c, 0, 75, 0
2, 446400, Note_on_c, 0, 74, 75
2, 446880, Note_off_c, 0, 74, 0
2, 446880, Note_on_c, 0, 72, 73
2, 447360, Note_off_c, 0, 72, 0
2, 447360, Note_on_c, 0, 71, 72
2, 447840, Note_off_c, 0, 71, 0
2, 447840, Note_on_c, 0, 69, 67
2, 448320, Note_off_c, 0, 69, 0
2, 448320, Note_on_c, 0, 67, 72
2, 448800, Note_off_c, 0, 67, 0
2, 448800, Note_on_c, 0, 65, 69
2, 449280, Note_off_c, 0, 65, 0
2, 449280, Note_on_c, 0, 64, 74
2, 450240, Note_off_c, 0, 64, 0
2, 450720, Note_on_c, 0, 66, 70
2, 451200, Note_off_c, 0, 66, 0
2, 451200, Note_on_c, 0, 67, 77
2, 451519, Note_off_c, 0, 67, 0
2, 451519, Note_on_c, 0, 70, 80
2, 451838, Note_off_c, 0, 70, 0
2, 451838, Note_on_c, 0, 74, 88
2, 452160, Note_off_c, 0, 74, 0
2, 452160, Note_on_c, 0, 77, 79
2, 452640, Note_off_c, 0, 77, 0
2, 452640, Note_on_c, 0, 74, 69
2, 453120, Note_off_c, 0, 74, 0
2, 453120, Note_on_c, 0, 75, 75
2, 453600, Note_off_c, 0, 75, 0
2, 453600, Note_on_c, 0, 76, 76
2, 454080, Note_off_c, 0, 76, 0
2, 454080, Note_on_c, 0, 72, 72
2, 454560, Note_off_c, 0, 72, 0
2, 454560, Note_on_c, 0, 73, 80
2, 455040, Note_off_c, 0, 73, 0
2, 455040, Note_on_c, 0, 74, 77
2, 455520, Note_off_c, 0, 74, 0
2, 455520, Note_on_c, 0, 72, 71
2, 456000, Note_off_c, 0, 72, 0
2, 456000, Note_on_c, 0, 70, 71
2, 456480, Note_off_c, 0, 70, 0
2, 456480, Note_on_c, 0, 69, 69
2, 456960, Note_off_c, 0, 69, 0
2, 456960, Note_on_c, 0, 67, 74
2, 457440, Note_off_c, 0, 67, 0
2, 457440, Note_on_c, 0, 65, 71
2, 457920, Note_off_c, 0, 65, 0
2, 457920, Note_on_c, 0, 63, 70
2, 458239, Note_off_c, 0, 63, 0
2, 458239, Note_on_c, 0, 67, 84
2, 458558, Note_off_c, 0, 67, 0
2, 458558, Note_on_c, 0, 70, 85
2, 458880, Note_off_c, 0, 70, 0
2, 458880, Note_on_c, 0, 74, 82
2, 459360, Note_off_c, 0, 74, 0
2, 459360, Note_on_c, 0, 73, 76
2, 459840, Note_off_c, 0, 73, 0
2, 459840, Note_on_c, 0, 72, 73
2, 460320, Note_off_c, 0, 72, 0
2, 460320, Note_on_c, 0, 71, 77
2, 460800, Note_off_c, 0, 71, 0
2, 460800, Note_on_c, 0, 70, 76
2, 461280, Note_off_c, 0, 70, 0
2, 461280, Note_on_c, 0, 67, 72
2, 461760, Note_off_c, 0, 67, 0
2, 461760, Note_on_c, 0, 63, 71
2, 462240, Note_off_c, 0, 63, 0
2, 462240, Note_on_c, 0, 60, 68
2, 462720, Note_off_c, 0, 60, 0
2, 462720, Note_on_c, 0, 68, 89
2, 463200, Note_off_c, 0, 68, 0
2, 463200, Note_on_c, 0, 66, 71
2, 463680, Note_off_c, 0, 66, 0
2, 463680, Note_on_c, 0, 59, 70
2, 464160, Note_off_c, 0, 59, 0
2, 464160, Note_on_c, 0, 57, 72
2, 464640, Note_off_c, 0, 57, 0
2, 464640, Note_on_c, 0, 58, 79
2, 469920, Note_off_c, 0, 58, 0
2, 469920, Note_on_c, 0, 59, 80
2, 471038, Note_off_c, 0, 59, 0
2, 471038, Note_on_c, 0, 61, 81
2, 471679, Note_off_c, 0, 61, 0
2, 471679, Note_on_c, 0, 66, 79
2, 472800, Note_off_c, 0, 66, 0
2, 472800, Note_on_c, 0, 65, 70
2, 476160, Note_off_c, 0, 65, 0
2, 477600, Note_on_c, 0, 58, 68
2, 478080, Note_off_c, 0, 58, 0
2, 478080, Note_on_c, 0, 59, 78
2, 478718, Note_off_c, 0, 59, 0
2, 478718, Note_on_c, 0, 63, 87
2, 479359, Note_off_c, 0, 63, 0
2, 479359, Note_on_c, 0, 66, 81
2, 480000, Note_off_c, 0, 66, 0
2, 480000, Note_on_c, 0, 65, 73
2, 483360, Note_off_c, 0, 65, 0
2, 483360, Note_on_c, 0, 63, 73
2, 486240, Note_off_c, 0, 63, 0
2, 486240, Note_on_c, 0, 61, 71
2, 487200, Note_off_c, 0, 61, 0
2, 487200, Note_on_c, 0, 58, 75
2, 487680, Note_off_c, 0, 58, 0
2, 487680, Note_on_c, 0, 62, 81
2, 488160, Note_off_c, 0, 62, 0
2, 488160, Note_on_c, 0, 65, 83
2, 488640, Note_off_c, 0, 65, 0
2, 491040, Note_on_c, 0, 62, 65
2, 491520, Note_off_c, 0, 62, 0
2, 491520, Note_on_c, 0, 63, 79
2, 492000, Note_off_c, 0, 63, 0
2, 492000, Note_on_c, 0, 65, 81
2, 492480, Note_off_c, 0, 65, 0
2, 492480, Note_on_c, 0, 67, 79
2, 492960, Note_off_c, 0, 67, 0
2, 492960, Note_on_c, 0, 69, 83
2, 493440, Note_off_c, 0, 69, 0
2, 493440, Note_on_c, 0, 70, 77
2, 493920, Note_off_c, 0, 70, 0
2, 493920, Note_on_c, 0, 65, 66
2, 494400, Note_off_c, 0, 65, 0
2, 494400, Note_on_c, 0, 62, 62
2, 494880, Note_off_c, 0, 62, 0
2, 494880, Note_on_c, 0, 58, 72
2, 495360, Note_off_c, 0, 58, 0
2, 495360, Note_on_c, 0, 66, 90
2, 495840, Note_off_c, 0, 66, 0
2, 495840, Note_on_c, 0, 67, 79
2, 496320, Note_off_c, 0, 67, 0
2, 496320, Note_on_c, 0, 63, 73
2, 496800, Note_off_c, 0, 63, 0
2, 496800, Note_on_c, 0, 60, 62
2, 497280, Note_off_c, 0, 60, 0
2, 497280, Note_on_c, 0, 66, 91
2, 497760, Note_off_c, 0, 66, 0
2, 497760, Note_on_c, 0, 60, 66
2, 500160, Note_off_c, 0, 60, 0
2, 500161, End_track
0, 0, End_of_file
