0, 0, Header, 1, 2, 960
1, 0, Start_track
1, 0, Time_signature, 4, 2, 24, 8
1, 0, Key_signature, 0, "major"
1, 0, Tempo, 288461
1, 0, Copyright_t, "Copyright  "
1, 1, End_track
2, 0, Start_track
2, 0, Program_c, 0, 65
2, 0, Control_c, 0, 121, 0
2, 0, Control_c, 0, 64, 0
2, 0, Control_c, 0, 91, 48
2, 0, Control_c, 0, 10, 51
2, 0, Control_c, 0, 7, 95
2, 0, Title_t, "Alto Saxophone"
2, 0, Note_on_c, 0, 69, 69
2, 480, Note_off_c, 0, 69, 0
2, 480, Note_on_c, 0, 72, 80
2, 1440, Note_off_c, 0, 72, 0
2, 1440, Note_on_c, 0, 69, 69
2, 1920, Note_off_c, 0, 69, 0
2, 1920, Note_on_c, 0, 70, 78
2, 2400, Note_off_c, 0, 70, 0
2, 2400, Note_on_c, 0, 69, 73
2, 2880, Note_off_c, 0, 69, 0
2, 2880, Note_on_c, 0, 64, 61
2, 3199, Note_off_c, 0, 64, 0
2, 3199, Note_on_c, 0, 65, 80
2, 3518, Note_off_c, 0, 65, 0
2, 3518, Note_on_c, 0, 66, 80
2, 3840, Note_off_c, 0, 66, 0
2, 3840, Note_on_c, 0, 67, 82
2, 4320, Note_off_c, 0, 67, 0
2, 4320, Note_on_c, 0, 74, 94
2, 4800, Note_off_c, 0, 74, 0
2, 4800, Note_on_c, 0, 70, 72
2, 5280, Note_off_c, 0, 70, 0
2, 5280, Note_on_c, 0, 67, 68
2, 5760, Note_off_c, 0, 67, 0
2, 5760, Note_on_c, 0, 69, 78
2, 6240, Note_off_c, 0, 69, 0
2, 6240, Note_on_c, 0, 61, 65
2, 7200, Note_off_c, 0, 61, 0
2, 7200, Note_on_c, 0, 67, 89
2, 7680, Note_off_c, 0, 67, 0
2, 8160, Note_on_c, 0, 65, 68
2, 8640, Note_off_c, 0, 65, 0
2, 11040, Note_on_c, 0, 69, 69
2, 11520, Note_off_c, 0, 69, 0
2, 11520, Note_on_c, 0, 67, 75
2, 12000, Note_off_c, 0, 67, 0
2, 12000, Note_on_c, 0, 70, 82
2, 12480, Note_off_c, 0, 70, 0
2, 12480, Note_on_c, 0, 69, 74
2, 12960, Note_off_c, 0, 69, 0
2, 12960, Note_on_c, 0, 67, 70
2, 13440, Note_off_c, 0, 67, 0
2, 13920, Note_on_c, 0, 65, 72
2, 14880, Note_off_c, 0, 65, 0
2, 14880, Note_on_c, 0, 70, 85
2, 15360, Note_off_c, 0, 70, 0
2, 15360, Note_on_c, 0, 71, 82
2, 15840, Note_off_c, 0, 71, 0
2, 15840, Note_on_c, 0, 70, 72
2, 16320, Note_off_c, 0, 70, 0
2, 16320, Note_on_c, 0, 68, 70
2, 16800, Note_off_c, 0, 68, 0
2, 16800, Note_on_c, 0, 65, 73
2, 17280, Note_off_c, 0, 65, 0
2, 17280, Note_on_c, 0, 70, 86
2, 17760, Note_off_c, 0, 70, 0
2, 17760, Note_on_c, 0, 68, 69
2, 19200, Note_off_c, 0, 68, 0
2, 19680, Note_on_c, 0, 72, 68
2, 20160, Note_off_c, 0, 72, 0
2, 20160, Note_on_c, 0, 70, 70
2, 20640, Note_off_c, 0, 70, 0
2, 20640, Note_on_c, 0, 67, 69
2, 21120, Note_off_c, 0, 67, 0
2, 21120, Note_on_c, 0, 66, 72
2, 21600, Note_off_c, 0, 66, 0
2, 21600, Note_on_c, 0, 69, 83
2, 22080, Note_off_c, 0, 69, 0
2, 22080, Note_on_c, 0, 62, 64
2, 22560, Note_off_c, 0, 62, 0
2, 22560, Note_on_c, 0, 71, 89
2, 24000, Note_off_c, 0, 71, 0
2, 24000, Note_on_c, 0, 76, 86
2, 24480, Note_off_c, 0, 76, 0
2, 24480, Note_on_c, 0, 69, 67
2, 24960, Note_off_c, 0, 69, 0
2, 26400, Note_on_c, 0, 75, 65
2, 26640, Note_off_c, 0, 75, 0
2, 26640, Note_on_c, 0, 74, 70
2, 26880, Note_off_c, 0, 74, 0
2, 26880, Note_on_c, 0, 73, 74
2, 27360, Note_off_c, 0, 73, 0
2, 27360, Note_on_c, 0, 65, 64
2, 27840, Note_off_c, 0, 65, 0
2, 27840, Note_on_c, 0, 67, 76
2, 28320, Note_off_c, 0, 67, 0
2, 28320, Note_on_c, 0, 64, 72
2, 28800, Note_off_c, 0, 64, 0
2, 29280, Note_on_c, 0, 72, 65
2, 30720, Note_off_c, 0, 72, 0
2, 30720, Note_on_c, 0, 69, 69
2, 31680, Note_off_c, 0, 69, 0
2, 32160, Note_on_c, 0, 65, 69
2, 32640, Note_off_c, 0, 65, 0
2, 32640, Note_on_c, 0, 70, 87
2, 32959, Note_off_c, 0, 70, 0
2, 32959, Note_on_c, 0, 69, 76
2, 33278, Note_off_c, 0, 69, 0
2, 33278, Note_on_c, 0, 68, 70
2, 33600, Note_off_c, 0, 68, 0
2, 33600, Note_on_c, 0, 67, 75
2, 34080, Note_off_c, 0, 67, 0
2, 34080, Note_on_c, 0, 69, 76
2, 34560, Note_off_c, 0, 69, 0
2, 34560, Note_on_c, 0, 65, 63
2, 34800, Note_off_c, 0, 65, 0
2, 34800, Note_on_c, 0, 67, 79
2, 35040, Note_off_c, 0, 67, 0
2, 35040, Note_on_c, 0, 63, 69
2, 35520, Note_off_c, 0, 63, 0
2, 36960, Note_on_c, 0, 61, 66
2, 37920, Note_off_c, 0, 61, 0
2, 37920, Note_on_c, 0, 67, 89
2, 38880, Note_off_c, 0, 67, 0
2, 38880, Note_on_c, 0, 65, 70
2, 39840, Note_off_c, 0, 65, 0
2, 41760, Note_on_c, 0, 69, 69
2, 42240, Note_off_c, 0, 69, 0
2, 42240, Note_on_c, 0, 67, 68
2, 42720, Note_off_c, 0, 67, 0
2, 42720, Note_on_c, 0, 70, 82
2, 43200, Note_off_c, 0, 70, 0
2, 43200, Note_on_c, 0, 69, 69
2, 43680, Note_off_c, 0, 69, 0
2, 43680, Note_on_c, 0, 67, 74
2, 44160, Note_off_c, 0, 67, 0
2, 44160, Note_on_c, 0, 65, 70
2, 44640, Note_off_c, 0, 65, 0
2, 44640, Note_on_c, 0, 61, 68
2, 45120, Note_off_c, 0, 61, 0
2, 45120, Note_on_c, 0, 65, 80
2, 45600, Note_off_c, 0, 65, 0
2, 45600, Note_on_c, 0, 65, 81
2, 46560, Note_off_c, 0, 65, 0
2, 46560, Note_on_c, 0, 68, 81
2, 47040, Note_off_c, 0, 68, 0
2, 47040, Note_on_c, 0, 70, 82
2, 47520, Note_off_c, 0, 70, 0
2, 47520, Note_on_c, 0, 65, 69
2, 48000, Note_off_c, 0, 65, 0
2, 48000, Note_on_c, 0, 68, 79
2, 48480, Note_off_c, 0, 68, 0
2, 48480, Note_on_c, 0, 70, 80
2, 48960, Note_off_c, 0, 70, 0
2, 50400, Note_on_c, 0, 63, 64
2, 50880, Note_off_c, 0, 63, 0
2, 50880, Note_on_c, 0, 67, 82
2, 51360, Note_off_c, 0, 67, 0
2, 51360, Note_on_c, 0, 70, 85
2, 51840, Note_off_c, 0, 70, 0
2, 51840, Note_on_c, 0, 69, 74
2, 52320, Note_off_c, 0, 69, 0
2, 52320, Note_on_c, 0, 66, 70
2, 52800, Note_off_c, 0, 66, 0
2, 53760, Note_on_c, 0, 67, 71
2, 54240, Note_off_c, 0, 67, 0
2, 54240, Note_on_c, 0, 70, 81
2, 54720, Note_off_c, 0, 70, 0
2, 54720, Note_on_c, 0, 69, 69
2, 54878, Note_off_c, 0, 69, 0
2, 54878, Note_on_c, 0, 70, 77
2, 55039, Note_off_c, 0, 70, 0
2, 55039, Note_on_c, 0, 69, 72
2, 55200, Note_off_c, 0, 69, 0
2, 55200, Note_on_c, 0, 67, 68
2, 55680, Note_off_c, 0, 67, 0
2, 55680, Note_on_c, 0, 72, 89
2, 56160, Note_off_c, 0, 72, 0
2, 56160, Note_on_c, 0, 68, 67
2, 56640, Note_off_c, 0, 68, 0
2, 56640, Note_on_c, 0, 69, 74
2, 57120, Note_off_c, 0, 69, 0
2, 57120, Note_on_c, 0, 65, 69
2, 57600, Note_off_c, 0, 65, 0
2, 60000, Note_on_c, 0, 74, 73
2, 61440, Note_off_c, 0, 74, 0
2, 61440, Note_on_c, 0, 72, 70
2, 62400, Note_off_c, 0, 72, 0
2, 62640, Note_on_c, 0, 67, 67
2, 62880, Note_off_c, 0, 67, 0
2, 62880, Note_on_c, 0, 63, 66
2, 63120, Note_off_c, 0, 63, 0
2, 63120, Note_on_c, 0, 60, 66
2, 63360, Note_off_c, 0, 60, 0
2, 63360, Note_on_c, 0, 71, 90
2, 63840, Note_off_c, 0, 71, 0
2, 63840, Note_on_c, 0, 67, 67
2, 64800, Note_off_c, 0, 67, 0
2, 64800, Note_on_c, 0, 67, 72
2, 65280, Note_off_c, 0, 67, 0
2, 65280, Note_on_c, 0, 70, 85
2, 65599, Note_off_c, 0, 70, 0
2, 65599, Note_on_c, 0, 72, 81
2, 65918, Note_off_c, 0, 72, 0
2, 65918, Note_on_c, 0, 70, 71
2, 66240, Note_off_c, 0, 70, 0
2, 66240, Note_on_c, 0, 67, 70
2, 66720, Note_off_c, 0, 67, 0
2, 66720, Note_on_c, 0, 63, 68
2, 67200, Note_off_c, 0, 63, 0
2, 67200, Note_on_c, 0, 68, 89
2, 67680, Note_off_c, 0, 68, 0
2, 67680, Note_on_c, 0, 66, 72
2, 68160, Note_off_c, 0, 66, 0
2, 68160, Note_on_c, 0, 59, 70
2, 68640, Note_off_c, 0, 59, 0
2, 68640, Note_on_c, 0, 65, 91
2, 69120, Note_off_c, 0, 65, 0
2, 69120, Note_on_c, 0, 69, 90
2, 69600, Note_off_c, 0, 69, 0
2, 69600, Note_on_c, 0, 65, 71
2, 70080, Note_off_c, 0, 65, 0
2, 70080, Note_on_c, 0, 69, 80
2, 70560, Note_off_c, 0, 69, 0
2, 70560, Note_on_c, 0, 67, 74
2, 72480, Note_off_c, 0, 67, 0
2, 72480, Note_on_c, 0, 67, 72
2, 72960, Note_off_c, 0, 67, 0
2, 76320, Note_on_c, 0, 70, 69
2, 76800, Note_off_c, 0, 70, 0
2, 76800, Note_on_c, 0, 73, 79
2, 77040, Note_off_c, 0, 73, 0
2, 77040, Note_on_c, 0, 70, 71
2, 77280, Note_off_c, 0, 70, 0
2, 77280, Note_on_c, 0, 68, 68
2, 77520, Note_off_c, 0, 68, 0
2, 77520, Note_on_c, 0, 69, 76
2, 77760, Note_off_c, 0, 69, 0
2, 77760, Note_on_c, 0, 72, 86
2, 78000, Note_off_c, 0, 72, 0
2, 78000, Note_on_c, 0, 70, 70
2, 78240, Note_off_c, 0, 70, 0
2, 78240, Note_on_c, 0, 66, 65
2, 79200, Note_off_c, 0, 66, 0
2, 79200, Note_on_c, 0, 68, 83
2, 79680, Note_off_c, 0, 68, 0
2, 79680, Note_on_c, 0, 65, 67
2, 80160, Note_off_c, 0, 65, 0
2, 80160, Note_on_c, 0, 64, 75
2, 80640, Note_off_c, 0, 64, 0
2, 80640, Note_on_c, 0, 63, 69
2, 81120, Note_off_c, 0, 63, 0
2, 81120, Note_on_c, 0, 68, 88
2, 81600, Note_off_c, 0, 68, 0
2, 81600, Note_on_c, 0, 68, 79
2, 82560, Note_off_c, 0, 68, 0
2, 82560, Note_on_c, 0, 68, 76
2, 83040, Note_off_c, 0, 68, 0
2, 83040, Note_on_c, 0, 68, 77
2, 84000, Note_off_c, 0, 68, 0
2, 84000, Note_on_c, 0, 66, 69
2, 84240, Note_off_c, 0, 66, 0
2, 84240, Note_on_c, 0, 64, 69
2, 84480, Note_off_c, 0, 64, 0
2, 84480, Note_on_c, 0, 65, 78
2, 84638, Note_off_c, 0, 65, 0
2, 84638, Note_on_c, 0, 68, 79
2, 84799, Note_off_c, 0, 68, 0
2, 84799, Note_on_c, 0, 72, 88
2, 84960, Note_off_c, 0, 72, 0
2, 84960, Note_on_c, 0, 75, 90
2, 85920, Note_off_c, 0, 75, 0
2, 85920, Note_on_c, 0, 74, 74
2, 86160, Note_off_c, 0, 74, 0
2, 86160, Note_on_c, 0, 72, 68
2, 86400, Note_off_c, 0, 72, 0
2, 86400, Note_on_c, 0, 73, 78
2, 86640, Note_off_c, 0, 73, 0
2, 86640, Note_on_c, 0, 70, 69
2, 86880, Note_off_c, 0, 70, 0
2, 88800, Note_on_c, 0, 67, 69
2, 89280, Note_off_c, 0, 67, 0
2, 89280, Note_on_c, 0, 61, 58
2, 89760, Note_off_c, 0, 61, 0
2, 89760, Note_on_c, 0, 65, 81
2, 90240, Note_off_c, 0, 65, 0
2, 90240, Note_on_c, 0, 68, 81
2, 90720, Note_off_c, 0, 68, 0
2, 90720, Note_on_c, 0, 64, 68
2, 91200, Note_off_c, 0, 64, 0
2, 91200, Note_on_c, 0, 61, 65
2, 91680, Note_off_c, 0, 61, 0
2, 91680, Note_on_c, 0, 60, 73
2, 92160, Note_off_c, 0, 60, 0
2, 92640, Note_on_c, 0, 72, 68
2, 94080, Note_off_c, 0, 72, 0
2, 94080, Note_on_c, 0, 70, 72
2, 94560, Note_off_c, 0, 70, 0
2, 94560, Note_on_c, 0, 69, 71
2, 95040, Note_off_c, 0, 69, 0
2, 95040, Note_on_c, 0, 64, 64
2, 95359, Note_off_c, 0, 64, 0
2, 95359, Note_on_c, 0, 65, 77
2, 95678, Note_off_c, 0, 65, 0
2, 95678, Note_on_c, 0, 66, 75
2, 96000, Note_off_c, 0, 66, 0
2, 96000, Note_on_c, 0, 67, 74
2, 96480, Note_off_c, 0, 67, 0
2, 96480, Note_on_c, 0, 74, 88
2, 96960, Note_off_c, 0, 74, 0
2, 96960, Note_on_c, 0, 70, 71
2, 97440, Note_off_c, 0, 70, 0
2, 97440, Note_on_c, 0, 67, 66
2, 97920, Note_off_c, 0, 67, 0
2, 97920, Note_on_c, 0, 69, 78
2, 98400, Note_off_c, 0, 69, 0
2, 98400, Note_on_c, 0, 61, 63
2, 98880, Note_off_c, 0, 61, 0
2, 99360, Note_on_c, 0, 67, 60
2, 99840, Note_off_c, 0, 67, 0
2, 100320, Note_on_c, 0, 65, 71
2, 100800, Note_off_c, 0, 65, 0
2, 103200, Note_on_c, 0, 69, 70
2, 103680, Note_off_c, 0, 69, 0
2, 103680, Note_on_c, 0, 67, 77
2, 104160, Note_off_c, 0, 67, 0
2, 104160, Note_on_c, 0, 70, 83
2, 104640, Note_off_c, 0, 70, 0
2, 104640, Note_on_c, 0, 69, 69
2, 105120, Note_off_c, 0, 69, 0
2, 105120, Note_on_c, 0, 67, 70
2, 105600, Note_off_c, 0, 67, 0
2, 106080, Note_on_c, 0, 65, 70
2, 107040, Note_off_c, 0, 65, 0
2, 107040, Note_on_c, 0, 70, 82
2, 107520, Note_off_c, 0, 70, 0
2, 107520, Note_on_c, 0, 71, 78
2, 108000, Note_off_c, 0, 71, 0
2, 108000, Note_on_c, 0, 70, 79
2, 108480, Note_off_c, 0, 70, 0
2, 108480, Note_on_c, 0, 68, 71
2, 108960, Note_off_c, 0, 68, 0
2, 108960, Note_on_c, 0, 65, 67
2, 109440, Note_off_c, 0, 65, 0
2, 109440, Note_on_c, 0, 70, 85
2, 109920, Note_off_c, 0, 70, 0
2, 109920, Note_on_c, 0, 68, 71
2, 111360, Note_off_c, 0, 68, 0
2, 111840, Note_on_c, 0, 72, 66
2, 112320, Note_off_c, 0, 72, 0
2, 112320, Note_on_c, 0, 70, 68
2, 112800, Note_off_c, 0, 70, 0
2, 112800, Note_on_c, 0, 68, 71
2, 113280, Note_off_c, 0, 68, 0
2, 113280, Note_on_c, 0, 69, 72
2, 113760, Note_off_c, 0, 69, 0
2, 113760, Note_on_c, 0, 61, 62
2, 114240, Note_off_c, 0, 61, 0
2, 114240, Note_on_c, 0, 62, 75
2, 114720, Note_off_c, 0, 62, 0
2, 114720, Note_on_c, 0, 65, 81
2, 115680, Note_off_c, 0, 65, 0
2, 115680, Note_on_c, 0, 62, 70
2, 116160, Note_off_c, 0, 62, 0
2, 116160, Note_on_c, 0, 65, 85
2, 116640, Note_off_c, 0, 65, 0
2, 116640, Note_on_c, 0, 69, 84
2, 117120, Note_off_c, 0, 69, 0
2, 117600, Note_on_c, 0, 65, 66
2, 118560, Note_off_c, 0, 65, 0
2, 118560, Note_on_c, 0, 62, 73
2, 119040, Note_off_c, 0, 62, 0
2, 119040, Note_on_c, 0, 65, 81
2, 120000, Note_off_c, 0, 65, 0
2, 120000, Note_on_c, 0, 65, 73
2, 120960, Note_off_c, 0, 65, 0
2, 120960, Note_on_c, 0, 59, 70
2, 121920, Note_off_c, 0, 59, 0
2, 121920, Note_on_c, 0, 64, 84
2, 122400, Note_off_c, 0, 64, 0
2, 122400, Note_on_c, 0, 67, 86
2, 122880, Note_off_c, 0, 67, 0
2, 122880, Note_on_c, 0, 65, 72
2, 123360, Note_off_c, 0, 65, 0
2, 123360, Note_on_c, 0, 63, 73
2, 123840, Note_off_c, 0, 63, 0
2, 123840, Note_on_c, 0, 62, 70
2, 124320, Note_off_c, 0, 62, 0
2, 124320, Note_on_c, 0, 61, 76
2, 124800, Note_off_c, 0, 61, 0
2, 124800, Note_on_c, 0, 60, 71
2, 125280, Note_off_c, 0, 60, 0
2, 125280, Note_on_c, 0, 58, 75
2, 125760, Note_off_c, 0, 58, 0
2, 125760, Note_on_c, 0, 57, 76
2, 126240, Note_off_c, 0, 57, 0
2, 126240, Note_on_c, 0, 69, 96
2, 126720, Note_off_c, 0, 69, 0
2, 126720, Note_on_c, 0, 70, 82
2, 127200, Note_off_c, 0, 70, 0
2, 127200, Note_on_c, 0, 64, 66
2, 128160, Note_off_c, 0, 64, 0
2, 128160, Note_on_c, 0, 62, 71
2, 128640, Note_off_c, 0, 62, 0
2, 128640, Note_on_c, 0, 61, 70
2, 129120, Note_off_c, 0, 61, 0
2, 129120, Note_on_c, 0, 70, 90
2, 129600, Note_off_c, 0, 70, 0
2, 129600, Note_on_c, 0, 67, 67
2, 130080, Note_off_c, 0, 67, 0
2, 130080, Note_on_c, 0, 68, 74
2, 130560, Note_off_c, 0, 68, 0
2, 130560, Note_on_c, 0, 69, 78
2, 131040, Note_off_c, 0, 69, 0
2, 131040, Note_on_c, 0, 65, 71
2, 131520, Note_off_c, 0, 65, 0
2, 131520, Note_on_c, 0, 62, 69
2, 132000, Note_off_c, 0, 62, 0
2, 134880, Note_on_c, 0, 61, 66
2, 135360, Note_off_c, 0, 61, 0
2, 135360, Note_on_c, 0, 62, 77
2, 135518, Note_off_c, 0, 62, 0
2, 135518, Note_on_c, 0, 65, 81
2, 135679, Note_off_c, 0, 65, 0
2, 135679, Note_on_c, 0, 67, 82
2, 135840, Note_off_c, 0, 67, 0
2, 135840, Note_on_c, 0, 69, 80
2, 135998, Note_off_c, 0, 69, 0
2, 135998, Note_on_c, 0, 72, 79
2, 136159, Note_off_c, 0, 72, 0
2, 136159, Note_on_c, 0, 74, 84
2, 136320, Note_off_c, 0, 74, 0
2, 136320, Note_on_c, 0, 77, 82
2, 136800, Note_off_c, 0, 77, 0
2, 136800, Note_on_c, 0, 75, 71
2, 137280, Note_off_c, 0, 75, 0
2, 137280, Note_on_c, 0, 74, 73
2, 137760, Note_off_c, 0, 74, 0
2, 137760, Note_on_c, 0, 72, 76
2, 138240, Note_off_c, 0, 72, 0
2, 138240, Note_on_c, 0, 70, 72
2, 138720, Note_off_c, 0, 70, 0
2, 138720, Note_on_c, 0, 72, 79
2, 138960, Note_off_c, 0, 72, 0
2, 138960, Note_on_c, 0, 70, 70
2, 139200, Note_off_c, 0, 70, 0
2, 139200, Note_on_c, 0, 68, 72
2, 139680, Note_off_c, 0, 68, 0
2, 139680, Note_on_c, 0, 65, 69
2, 140160, Note_off_c, 0, 65, 0
2, 140160, Note_on_c, 0, 67, 82
2, 140640, Note_off_c, 0, 67, 0
2, 140640, Note_on_c, 0, 65, 75
2, 141120, Note_off_c, 0, 65, 0
2, 142560, Note_on_c, 0, 70, 68
2, 142718, Note_off_c, 0, 70, 0
2, 142718, Note_on_c, 0, 69, 71
2, 142879, Note_off_c, 0, 69, 0
2, 142879, Note_on_c, 0, 67, 74
2, 143040, Note_off_c, 0, 67, 0
2, 143040, Note_on_c, 0, 66, 77
2, 143520, Note_off_c, 0, 66, 0
2, 143520, Note_on_c, 0, 57, 68
2, 144000, Note_off_c, 0, 57, 0
2, 144000, Note_on_c, 0, 60, 82
2, 144480, Note_off_c, 0, 60, 0
2, 144480, Note_on_c, 0, 63, 85
2, 144960, Note_off_c, 0, 63, 0
2, 144960, Note_on_c, 0, 60, 72
2, 145440, Note_off_c, 0, 60, 0
2, 145440, Note_on_c, 0, 61, 84
2, 145920, Note_off_c, 0, 61, 0
2, 145920, Note_on_c, 0, 62, 83
2, 146400, Note_off_c, 0, 62, 0
2, 146400, Note_on_c, 0, 60, 69
2, 146880, Note_off_c, 0, 60, 0
2, 146880, Note_on_c, 0, 59, 74
2, 147199, Note_off_c, 0, 59, 0
2, 147199, Note_on_c, 0, 62, 88
2, 147518, Note_off_c, 0, 62, 0
2, 147518, Note_on_c, 0, 65, 83
2, 147840, Note_off_c, 0, 65, 0
2, 147840, Note_on_c, 0, 69, 90
2, 148320, Note_off_c, 0, 69, 0
2, 148320, Note_on_c, 0, 65, 72
2, 148800, Note_off_c, 0, 65, 0
2, 148800, Note_on_c, 0, 62, 69
2, 149280, Note_off_c, 0, 62, 0
2, 149280, Note_on_c, 0, 58, 70
2, 149760, Note_off_c, 0, 58, 0
2, 149760, Note_on_c, 0, 65, 94
2, 150720, Note_off_c, 0, 65, 0
2, 150720, Note_on_c, 0, 67, 84
2, 151200, Note_off_c, 0, 67, 0
2, 151200, Note_on_c, 0, 68, 77
2, 151680, Note_off_c, 0, 68, 0
2, 152160, Note_on_c, 0, 64, 68
2, 152318, Note_off_c, 0, 64, 0
2, 152318, Note_on_c, 0, 62, 66
2, 152479, Note_off_c, 0, 62, 0
2, 152479, Note_on_c, 0, 60, 71
2, 152640, Note_off_c, 0, 60, 0
2, 152640, Note_on_c, 0, 58, 74
2, 153120, Note_off_c, 0, 58, 0
2, 153120, Note_on_c, 0, 67, 94
2, 153600, Note_off_c, 0, 67, 0
2, 154080, Note_on_c, 0, 64, 67
2, 154320, Note_off_c, 0, 64, 0
2, 154320, Note_on_c, 0, 65, 80
2, 154560, Note_off_c, 0, 65, 0
2, 154560, Note_on_c, 0, 62, 69
2, 154800, Note_off_c, 0, 62, 0
2, 154800, Note_on_c, 0, 64, 79
2, 155040, Note_off_c, 0, 64, 0
2, 155040, Note_on_c, 0, 60, 68
2, 156480, Note_off_c, 0, 60, 0
2, 157680, Note_on_c, 0, 63, 68
2, 157920, Note_off_c, 0, 63, 0
2, 157920, Note_on_c, 0, 64, 80
2, 158160, Note_off_c, 0, 64, 0
2, 158160, Note_on_c, 0, 66, 79
2, 158400, Note_off_c, 0, 66, 0
2, 158400, Note_on_c, 0, 67, 79
2, 158640, Note_off_c, 0, 67, 0
2, 158640, Note_on_c, 0, 66, 71
2, 158880, Note_off_c, 0, 66, 0
2, 158880, Note_on_c, 0, 64, 71
2, 159120, Note_off_c, 0, 64, 0
2, 159120, Note_on_c, 0, 61, 65
2, 159360, Note_off_c, 0, 61, 0
2, 159360, Note_on_c, 0, 62, 76
2, 159600, Note_off_c, 0, 62, 0
2, 159600, Note_on_c, 0, 59, 70
2, 159840, Note_off_c, 0, 59, 0
2, 159840, Note_on_c, 0, 62, 80
2, 160080, Note_off_c, 0, 62, 0
2, 160080, Note_on_c, 0, 59, 74
2, 160320, Note_off_c, 0, 59, 0
2, 160320, Note_on_c, 0, 61, 80
2, 160560, Note_off_c, 0, 61, 0
2, 160560, Note_on_c, 0, 64, 84
2, 160800, Note_off_c, 0, 64, 0
2, 160800, Note_on_c, 0, 67, 83
2, 161040, Note_off_c, 0, 67, 0
2, 161040, Note_on_c, 0, 69, 86
2, 161280, Note_off_c, 0, 69, 0
2, 161280, Note_on_c, 0, 70, 78
2, 161520, Note_off_c, 0, 70, 0
2, 161520, Note_on_c, 0, 69, 74
2, 161760, Note_off_c, 0, 69, 0
2, 161760, Note_on_c, 0, 67, 69
2, 162000, Note_off_c, 0, 67, 0
2, 162000, Note_on_c, 0, 65, 70
2, 162240, Note_off_c, 0, 65, 0
2, 162240, Note_on_c, 0, 64, 69
2, 162480, Note_off_c, 0, 64, 0
2, 162480, Note_on_c, 0, 62, 66
2, 162720, Note_off_c, 0, 62, 0
2, 162720, Note_on_c, 0, 61, 70
2, 162960, Note_off_c, 0, 61, 0
2, 162960, Note_on_c, 0, 62, 77
2, 163200, Note_off_c, 0, 62, 0
2, 163200, Note_on_c, 0, 64, 82
2, 163440, Note_off_c, 0, 64, 0
2, 163440, Note_on_c, 0, 61, 71
2, 163680, Note_off_c, 0, 61, 0
2, 163680, Note_on_c, 0, 62, 79
2, 163920, Note_off_c, 0, 62, 0
2, 163920, Note_on_c, 0, 64, 86
2, 164160, Note_off_c, 0, 64, 0
2, 164160, Note_on_c, 0, 65, 78
2, 164400, Note_off_c, 0, 65, 0
2, 164400, Note_on_c, 0, 67, 79
2, 164640, Note_off_c, 0, 67, 0
2, 164640, Note_on_c, 0, 69, 80
2, 164880, Note_off_c, 0, 69, 0
2, 164880, Note_on_c, 0, 70, 82
2, 165120, Note_off_c, 0, 70, 0
2, 165120, Note_on_c, 0, 72, 74
2, 165360, Note_off_c, 0, 72, 0
2, 165360, Note_on_c, 0, 70, 70
2, 165600, Note_off_c, 0, 70, 0
2, 165600, Note_on_c, 0, 69, 74
2, 165840, Note_off_c, 0, 69, 0
2, 165840, Note_on_c, 0, 67, 73
2, 166080, Note_off_c, 0, 67, 0
2, 166080, Note_on_c, 0, 65, 72
2, 166320, Note_off_c, 0, 65, 0
2, 166320, Note_on_c, 0, 64, 72
2, 166560, Note_off_c, 0, 64, 0
2, 166560, Note_on_c, 0, 63, 78
2, 166800, Note_off_c, 0, 63, 0
2, 170400, Note_on_c, 0, 61, 68
2, 170880, Note_off_c, 0, 61, 0
2, 170880, Note_on_c, 0, 62, 79
2, 171360, Note_off_c, 0, 62, 0
2, 171360, Note_on_c, 0, 65, 84
2, 171600, Note_off_c, 0, 65, 0
2, 171600, Note_on_c, 0, 69, 91
2, 171840, Note_off_c, 0, 69, 0
2, 171840, Note_on_c, 0, 72, 87
2, 172320, Note_off_c, 0, 72, 0
2, 172320, Note_on_c, 0, 69, 69
2, 172800, Note_off_c, 0, 69, 0
2, 172800, Note_on_c, 0, 70, 82
2, 173280, Note_off_c, 0, 70, 0
2, 173280, Note_on_c, 0, 72, 85
2, 173520, Note_off_c, 0, 72, 0
2, 173520, Note_on_c, 0, 70, 75
2, 173760, Note_off_c, 0, 70, 0
2, 173760, Note_on_c, 0, 69, 74
2, 174240, Note_off_c, 0, 69, 0
2, 174240, Note_on_c, 0, 67, 71
2, 174720, Note_off_c, 0, 67, 0
2, 174720, Note_on_c, 0, 66, 67
2, 175200, Note_off_c, 0, 66, 0
2, 175200, Note_on_c, 0, 63, 68
2, 175680, Note_off_c, 0, 63, 0
2, 175680, Note_on_c, 0, 60, 71
2, 176160, Note_off_c, 0, 60, 0
2, 176160, Note_on_c, 0, 61, 79
2, 176640, Note_off_c, 0, 61, 0
2, 176640, Note_on_c, 0, 62, 79
2, 177120, Note_off_c, 0, 62, 0
2, 177120, Note_on_c, 0, 58, 73
2, 177600, Note_off_c, 0, 58, 0
2, 177600, Note_on_c, 0, 55, 74
2, 178080, Note_off_c, 0, 55, 0
2, 178080, Note_on_c, 0, 57, 79
2, 178560, Note_off_c, 0, 57, 0
2, 178560, Note_on_c, 0, 60, 81
2, 179040, Note_off_c, 0, 60, 0
2, 179040, Note_on_c, 0, 69, 93
2, 179520, Note_off_c, 0, 69, 0
2, 179520, Note_on_c, 0, 64, 67
2, 180000, Note_off_c, 0, 64, 0
2, 180000, Note_on_c, 0, 65, 78
2, 180480, Note_off_c, 0, 65, 0
2, 180480, Note_on_c, 0, 67, 80
2, 180638, Note_off_c, 0, 67, 0
2, 180638, Note_on_c, 0, 69, 82
2, 180799, Note_off_c, 0, 69, 0
2, 180799, Note_on_c, 0, 67, 71
2, 180960, Note_off_c, 0, 67, 0
2, 180960, Note_on_c, 0, 65, 67
2, 181440, Note_off_c, 0, 65, 0
2, 181440, Note_on_c, 0, 62, 68
2, 181920, Note_off_c, 0, 62, 0
2, 181920, Note_on_c, 0, 59, 78
2, 182400, Note_off_c, 0, 59, 0
2, 182400, Note_on_c, 0, 60, 77
2, 182880, Note_off_c, 0, 60, 0
2, 182880, Note_on_c, 0, 58, 74
2, 183360, Note_off_c, 0, 58, 0
2, 183360, Note_on_c, 0, 57, 75
2, 183600, Note_off_c, 0, 57, 0
2, 183600, Note_on_c, 0, 60, 85
2, 183840, Note_off_c, 0, 60, 0
2, 183840, Note_on_c, 0, 63, 83
2, 184080, Note_off_c, 0, 63, 0
2, 184080, Note_on_c, 0, 67, 83
2, 184320, Note_off_c, 0, 67, 0
2, 184320, Note_on_c, 0, 74, 88
2, 184800, Note_off_c, 0, 74, 0
2, 184800, Note_on_c, 0, 72, 74
2, 185280, Note_off_c, 0, 72, 0
2, 185280, Note_on_c, 0, 74, 82
2, 185760, Note_off_c, 0, 74, 0
2, 185760, Note_on_c, 0, 72, 71
2, 186240, Note_off_c, 0, 72, 0
2, 187680, Note_on_c, 0, 74, 68
2, 187838, Note_off_c, 0, 74, 0
2, 187838, Note_on_c, 0, 72, 70
2, 187999, Note_off_c, 0, 72, 0
2, 187999, Note_on_c, 0, 70, 73
2, 188160, Note_off_c, 0, 70, 0
2, 188160, Note_on_c, 0, 67, 69
2, 188640, Note_off_c, 0, 67, 0
2, 188640, Note_on_c, 0, 63, 67
2, 189120, Note_off_c, 0, 63, 0
2, 189120, Note_on_c, 0, 60, 69
2, 189600, Note_off_c, 0, 60, 0
2, 189600, Note_on_c, 0, 58, 75
2, 190080, Note_off_c, 0, 58, 0
2, 190080, Note_on_c, 0, 57, 71
2, 190560, Note_off_c, 0, 57, 0
2, 190560, Note_on_c, 0, 66, 90
2, 190800, Note_off_c, 0, 66, 0
2, 190800, Note_on_c, 0, 65, 74
2, 191040, Note_off_c, 0, 65, 0
2, 191040, Note_on_c, 0, 63, 72
2, 191520, Note_off_c, 0, 63, 0
2, 191520, Note_on_c, 0, 64, 86
2, 192000, Note_off_c, 0, 64, 0
2, 192000, Note_on_c, 0, 65, 81
2, 192480, Note_off_c, 0, 65, 0
2, 192480, Note_on_c, 0, 63, 71
2, 192960, Note_off_c, 0, 63, 0
2, 192960, Note_on_c, 0, 62, 72
2, 193279, Note_off_c, 0, 62, 0
2, 193279, Note_on_c, 0, 65, 77
2, 193598, Note_off_c, 0, 65, 0
2, 193598, Note_on_c, 0, 69, 84
2, 193920, Note_off_c, 0, 69, 0
2, 193920, Note_on_c, 0, 72, 83
2, 194400, Note_off_c, 0, 72, 0
2, 194400, Note_on_c, 0, 70, 70
2, 194880, Note_off_c, 0, 70, 0
2, 194880, Note_on_c, 0, 69, 71
2, 195360, Note_off_c, 0, 69, 0
2, 195360, Note_on_c, 0, 70, 78
2, 195840, Note_off_c, 0, 70, 0
2, 195840, Note_on_c, 0, 74, 85
2, 196320, Note_off_c, 0, 74, 0
2, 196320, Note_on_c, 0, 77, 92
2, 198720, Note_off_c, 0, 77, 0
2, 201120, Note_on_c, 0, 72, 67
2, 201360, Note_off_c, 0, 72, 0
2, 201360, Note_on_c, 0, 75, 80
2, 201600, Note_off_c, 0, 75, 0
2, 201600, Note_on_c, 0, 73, 70
2, 202080, Note_off_c, 0, 73, 0
2, 202080, Note_on_c, 0, 72, 75
2, 202560, Note_off_c, 0, 72, 0
2, 202560, Note_on_c, 0, 70, 69
2, 203040, Note_off_c, 0, 70, 0
2, 203040, Note_on_c, 0, 66, 66
2, 203520, Note_off_c, 0, 66, 0
2, 203520, Note_on_c, 0, 63, 72
2, 204000, Note_off_c, 0, 63, 0
2, 204000, Note_on_c, 0, 58, 76
2, 204480, Note_off_c, 0, 58, 0
2, 204480, Note_on_c, 0, 61, 81
2, 204960, Note_off_c, 0, 61, 0
2, 204960, Note_on_c, 0, 58, 75
2, 205440, Note_off_c, 0, 58, 0
2, 205440, Note_on_c, 0, 60, 85
2, 205920, Note_off_c, 0, 60, 0
2, 205920, Note_on_c, 0, 65, 86
2, 206880, Note_off_c, 0, 65, 0
2, 206880, Note_on_c, 0, 60, 67
2, 207360, Note_off_c, 0, 60, 0
2, 207360, Note_on_c, 0, 68, 91
2, 207518, Note_off_c, 0, 68, 0
2, 207518, Note_on_c, 0, 70, 83
2, 207679, Note_off_c, 0, 70, 0
2, 207679, Note_on_c, 0, 68, 76
2, 207840, Note_off_c, 0, 68, 0
2, 207840, Note_on_c, 0, 65, 70
2, 208320, Note_off_c, 0, 65, 0
2, 208320, Note_on_c, 0, 60, 65
2, 208800, Note_off_c, 0, 60, 0
2, 208800, Note_on_c, 0, 56, 74
2, 209280, Note_off_c, 0, 56, 0
2, 209280, Note_on_c, 0, 58, 76
2, 211200, Note_off_c, 0, 58, 0
2, 211680, Note_on_c, 0, 66, 68
2, 212160, Note_off_c, 0, 66, 0
2, 212160, Note_on_c, 0, 67, 77
2, 212479, Note_off_c, 0, 67, 0
2, 212479, Note_on_c, 0, 70, 81
2, 212798, Note_off_c, 0, 70, 0
2, 212798, Note_on_c, 0, 74, 91
2, 213120, Note_off_c, 0, 74, 0
2, 213120, Note_on_c, 0, 77, 85
2, 214080, Note_off_c, 0, 77, 0
2, 214080, Note_on_c, 0, 76, 74
2, 214560, Note_off_c, 0, 76, 0
2, 214560, Note_on_c, 0, 72, 67
2, 215040, Note_off_c, 0, 72, 0
2, 216480, Note_on_c, 0, 70, 65
2, 216960, Note_off_c, 0, 70, 0
2, 216960, Note_on_c, 0, 69, 66
2, 217440, Note_off_c, 0, 69, 0
2, 217440, Note_on_c, 0, 65, 67
2, 217920, Note_off_c, 0, 65, 0
2, 217920, Note_on_c, 0, 62, 69
2, 218400, Note_off_c, 0, 62, 0
2, 218400, Note_on_c, 0, 60, 68
2, 218880, Note_off_c, 0, 60, 0
2, 218880, Note_on_c, 0, 66, 88
2, 219199, Note_off_c, 0, 66, 0
2, 219199, Note_on_c, 0, 67, 84
2, 219518, Note_off_c, 0, 67, 0
2, 219518, Note_on_c, 0, 66, 75
2, 219840, Note_off_c, 0, 66, 0
2, 219840, Note_on_c, 0, 64, 71
2, 220320, Note_off_c, 0, 64, 0
2, 220320, Note_on_c, 0, 62, 67
2, 220800, Note_off_c, 0, 62, 0
2, 220800, Note_on_c, 0, 61, 72
2, 221280, Note_off_c, 0, 61, 0
2, 221280, Note_on_c, 0, 70, 100
2, 221760, Note_off_c, 0, 70, 0
2, 221760, Note_on_c, 0, 67, 73
2, 222240, Note_off_c, 0, 67, 0
2, 222240, Note_on_c, 0, 68, 76
2, 222720, Note_off_c, 0, 68, 0
2, 222720, Note_on_c, 0, 69, 78
2, 223200, Note_off_c, 0, 69, 0
2, 223200, Note_on_c, 0, 60, 60
2, 223680, Note_off_c, 0, 60, 0
2, 223680, Note_on_c, 0, 62, 76
2, 224160, Note_off_c, 0, 62, 0
2, 224160, Note_on_c, 0, 63, 74
2, 226080, Note_off_c, 0, 63, 0
2, 228000, Note_on_c, 0, 77, 67
2, 229440, Note_off_c, 0, 77, 0
2, 229440, Note_on_c, 0, 68, 58
2, 229920, Note_off_c, 0, 68, 0
2, 229920, Note_on_c, 0, 65, 73
2, 230400, Note_off_c, 0, 65, 0
2, 230400, Note_on_c, 0, 67, 78
2, 230880, Note_off_c, 0, 67, 0
2, 230880, Note_on_c, 0, 65, 70
2, 231360, Note_off_c, 0, 65, 0
2, 231360, Note_on_c, 0, 61, 68
2, 231840, Note_off_c, 0, 61, 0
2, 231840, Note_on_c, 0, 59, 69
2, 232320, Note_off_c, 0, 59, 0
2, 232320, Note_on_c, 0, 60, 83
2, 232800, Note_off_c, 0, 60, 0
2, 232800, Note_on_c, 0, 58, 72
2, 233280, Note_off_c, 0, 58, 0
2, 233280, Note_on_c, 0, 57, 81
2, 233760, Note_off_c, 0, 57, 0
2, 233760, Note_on_c, 0, 55, 73
2, 234240, Note_off_c, 0, 55, 0
2, 234240, Note_on_c, 0, 54, 75
2, 234720, Note_off_c, 0, 54, 0
2, 234720, Note_on_c, 0, 57, 77
2, 235200, Note_off_c, 0, 57, 0
2, 235200, Note_on_c, 0, 60, 85
2, 235680, Note_off_c, 0, 60, 0
2, 235680, Note_on_c, 0, 63, 86
2, 236160, Note_off_c, 0, 63, 0
2, 236160, Note_on_c, 0, 62, 70
2, 236640, Note_off_c, 0, 62, 0
2, 236640, Note_on_c, 0, 58, 73
2, 237120, Note_off_c, 0, 58, 0
2, 237120, Note_on_c, 0, 55, 71
2, 237600, Note_off_c, 0, 55, 0
2, 237600, Note_on_c, 0, 57, 77
2, 238080, Note_off_c, 0, 57, 0
2, 238080, Note_on_c, 0, 60, 85
2, 238560, Note_off_c, 0, 60, 0
2, 238560, Note_on_c, 0, 57, 75
2, 239040, Note_off_c, 0, 57, 0
2, 239040, Note_on_c, 0, 58, 79
2, 239359, Note_off_c, 0, 58, 0
2, 239359, Note_on_c, 0, 62, 84
2, 239678, Note_off_c, 0, 62, 0
2, 239678, Note_on_c, 0, 65, 78
2, 240000, Note_off_c, 0, 65, 0
2, 240000, Note_on_c, 0, 69, 85
2, 240319, Note_off_c, 0, 69, 0
2, 240319, Note_on_c, 0, 70, 79
2, 240638, Note_off_c, 0, 70, 0
2, 240638, Note_on_c, 0, 71, 79
2, 240960, Note_off_c, 0, 71, 0
2, 240960, Note_on_c, 0, 72, 82
2, 241440, Note_off_c, 0, 72, 0
2, 241440, Note_on_c, 0, 70, 74
2, 241920, Note_off_c, 0, 70, 0
2, 241920, Note_on_c, 0, 69, 71
2, 242880, Note_off_c, 0, 69, 0
2, 243360, Note_on_c, 0, 60, 67
2, 243840, Note_off_c, 0, 60, 0
2, 243840, Note_on_c, 0, 64, 87
2, 244320, Note_off_c, 0, 64, 0
2, 244320, Note_on_c, 0, 67, 80
2, 245280, Note_off_c, 0, 67, 0
2, 245280, Note_on_c, 0, 62, 65
2, 245520, Note_off_c, 0, 62, 0
2, 245520, Note_on_c, 0, 64, 76
2, 245760, Note_off_c, 0, 64, 0
2, 245760, Note_on_c, 0, 65, 82
2, 247200, Note_off_c, 0, 65, 0
2, 247200, Note_on_c, 0, 60, 68
2, 248640, Note_off_c, 0, 60, 0
2, 251040, Note_on_c, 0, 63, 66
2, 251280, Note_off_c, 0, 63, 0
2, 251280, Note_on_c, 0, 64, 77
2, 251520, Note_off_c, 0, 64, 0
2, 251520, Note_on_c, 0, 66, 83
2, 251839, Note_off_c, 0, 66, 0
2, 251839, Note_on_c, 0, 67, 79
2, 252158, Note_off_c, 0, 67, 0
2, 252158, Note_on_c, 0, 66, 72
2, 252480, Note_off_c, 0, 66, 0
2, 252480, Note_on_c, 0, 64, 70
2, 252960, Note_off_c, 0, 64, 0
2, 252960, Note_on_c, 0, 62, 65
2, 253440, Note_off_c, 0, 62, 0
2, 253440, Note_on_c, 0, 61, 69
2, 253920, Note_off_c, 0, 61, 0
2, 253920, Note_on_c, 0, 70, 93
2, 254400, Note_off_c, 0, 70, 0
2, 254400, Note_on_c, 0, 67, 72
2, 254880, Note_off_c, 0, 67, 0
2, 254880, Note_on_c, 0, 68, 74
2, 255360, Note_off_c, 0, 68, 0
2, 255360, Note_on_c, 0, 69, 78
2, 255840, Note_off_c, 0, 69, 0
2, 255840, Note_on_c, 0, 68, 74
2, 256320, Note_off_c, 0, 68, 0
2, 256320, Note_on_c, 0, 67, 73
2, 256800, Note_off_c, 0, 67, 0
2, 256800, Note_on_c, 0, 66, 69
2, 257280, Note_off_c, 0, 66, 0
2, 257280, Note_on_c, 0, 65, 72
2, 257760, Note_off_c, 0, 65, 0
2, 257760, Note_on_c, 0, 64, 70
2, 258240, Note_off_c, 0, 64, 0
2, 258240, Note_on_c, 0, 63, 76
2, 258720, Note_off_c, 0, 63, 0
2, 258720, Note_on_c, 0, 67, 86
2, 259200, Note_off_c, 0, 67, 0
2, 259200, Note_on_c, 0, 62, 69
2, 259680, Note_off_c, 0, 62, 0
2, 259680, Note_on_c, 0, 60, 70
2, 260160, Note_off_c, 0, 60, 0
2, 260160, Note_on_c, 0, 65, 84
2, 260640, Note_off_c, 0, 65, 0
2, 260640, Note_on_c, 0, 63, 74
2, 261120, Note_off_c, 0, 63, 0
2, 261120, Note_on_c, 0, 62, 71
2, 262080, Note_off_c, 0, 62, 0
2, 263040, Note_on_c, 0, 64, 67
2, 263520, Note_off_c, 0, 64, 0
2, 263520, Note_on_c, 0, 64, 79
2, 263760, Note_off_c, 0, 64, 0
2, 263760, Note_on_c, 0, 63, 73
2, 264000, Note_off_c, 0, 63, 0
2, 264000, Note_on_c, 0, 62, 69
2, 264480, Note_off_c, 0, 62, 0
2, 264480, Note_on_c, 0, 61, 74
2, 264960, Note_off_c, 0, 61, 0
2, 264960, Note_on_c, 0, 60, 74
2, 265440, Note_off_c, 0, 60, 0
2, 265440, Note_on_c, 0, 58, 77
2, 265920, Note_off_c, 0, 58, 0
2, 265920, Note_on_c, 0, 57, 76
2, 266400, Note_off_c, 0, 57, 0
2, 266400, Note_on_c, 0, 55, 73
2, 266880, Note_off_c, 0, 55, 0
2, 266880, Note_on_c, 0, 54, 75
2, 267360, Note_off_c, 0, 54, 0
2, 267360, Note_on_c, 0, 57, 76
2, 267840, Note_off_c, 0, 57, 0
2, 267840, Note_on_c, 0, 60, 83
2, 268320, Note_off_c, 0, 60, 0
2, 268320, Note_on_c, 0, 64, 81
2, 269280, Note_off_c, 0, 64, 0
2, 269280, Note_on_c, 0, 63, 74
2, 269520, Note_off_c, 0, 63, 0
2, 269520, Note_on_c, 0, 62, 76
2, 269760, Note_off_c, 0, 62, 0
2, 269760, Note_on_c, 0, 61, 73
2, 270240, Note_off_c, 0, 61, 0
2, 270240, Note_on_c, 0, 59, 78
2, 270480, Note_off_c, 0, 59, 0
2, 270480, Note_on_c, 0, 61, 76
2, 271680, Note_off_c, 0, 61, 0
2, 273120, Note_on_c, 0, 69, 71
2, 274080, Note_off_c, 0, 69, 0
2, 274080, Note_on_c, 0, 68, 74
2, 274320, Note_off_c, 0, 68, 0
2, 274320, Note_on_c, 0, 67, 70
2, 274560, Note_off_c, 0, 67, 0
2, 274560, Note_on_c, 0, 66, 72
2, 275040, Note_off_c, 0, 66, 0
2, 275040, Note_on_c, 0, 62, 67
2, 275520, Note_off_c, 0, 62, 0
2, 275520, Note_on_c, 0, 58, 70
2, 275678, Note_off_c, 0, 58, 0
2, 275678, Note_on_c, 0, 60, 81
2, 275839, Note_off_c, 0, 60, 0
2, 275839, Note_on_c, 0, 58, 77
2, 276000, Note_off_c, 0, 58, 0
2, 276000, Note_on_c, 0, 55, 72
2, 276480, Note_off_c, 0, 55, 0
2, 276480, Note_on_c, 0, 62, 89
2, 276960, Note_off_c, 0, 62, 0
2, 276960, Note_on_c, 0, 58, 78
2, 277440, Note_off_c, 0, 58, 0
2, 277440, Note_on_c, 0, 55, 73
2, 277920, Note_off_c, 0, 55, 0
2, 277920, Note_on_c, 0, 57, 81
2, 278400, Note_off_c, 0, 57, 0
2, 278400, Note_on_c, 0, 60, 83
2, 278880, Note_off_c, 0, 60, 0
2, 278880, Note_on_c, 0, 69, 92
2, 279360, Note_off_c, 0, 69, 0
2, 283200, Note_on_c, 0, 70, 71
2, 283440, Note_off_c, 0, 70, 0
2, 283440, Note_on_c, 0, 69, 68
2, 283680, Note_off_c, 0, 69, 0
2, 283680, Note_on_c, 0, 68, 70
2, 283838, Note_off_c, 0, 68, 0
2, 283838, Note_on_c, 0, 67, 74
2, 283999, Note_off_c, 0, 67, 0
2, 283999, Note_on_c, 0, 66, 73
2, 284160, Note_off_c, 0, 66, 0
2, 284160, Note_on_c, 0, 65, 72
2, 284400, Note_off_c, 0, 65, 0
2, 284400, Note_on_c, 0, 64, 71
2, 284640, Note_off_c, 0, 64, 0
2, 284640, Note_on_c, 0, 63, 73
2, 284880, Note_off_c, 0, 63, 0
2, 284880, Note_on_c, 0, 62, 72
2, 285120, Note_off_c, 0, 62, 0
2, 285120, Note_on_c, 0, 64, 77
2, 285360, Note_off_c, 0, 64, 0
2, 285360, Note_on_c, 0, 61, 73
2, 285600, Note_off_c, 0, 61, 0
2, 285600, Note_on_c, 0, 62, 83
2, 285840, Note_off_c, 0, 62, 0
2, 285840, Note_on_c, 0, 64, 84
2, 286080, Note_off_c, 0, 64, 0
2, 286080, Note_on_c, 0, 65, 77
2, 287040, Note_off_c, 0, 65, 0
2, 288480, Note_on_c, 0, 60, 68
2, 288960, Note_off_c, 0, 60, 0
2, 288960, Note_on_c, 0, 63, 85
2, 289151, Note_off_c, 0, 63, 0
2, 289151, Note_on_c, 0, 67, 83
2, 289343, Note_off_c, 0, 67, 0
2, 289343, Note_on_c, 0, 70, 84
2, 289534, Note_off_c, 0, 70, 0
2, 289534, Note_on_c, 0, 72, 82
2, 289725, Note_off_c, 0, 72, 0
2, 289725, Note_on_c, 0, 74, 81
2, 289920, Note_off_c, 0, 74, 0
2, 289920, Note_on_c, 0, 77, 82
2, 290160, Note_off_c, 0, 77, 0
2, 290160, Note_on_c, 0, 76, 75
2, 290400, Note_off_c, 0, 76, 0
2, 290400, Note_on_c, 0, 75, 74
2, 290640, Note_off_c, 0, 75, 0
2, 290880, Note_on_c, 0, 74, 72
2, 291120, Note_off_c, 0, 74, 0
2, 291120, Note_on_c, 0, 73, 71
2, 291360, Note_off_c, 0, 73, 0
2, 291360, Note_on_c, 0, 72, 73
2, 291600, Note_off_c, 0, 72, 0
2, 291600, Note_on_c, 0, 71, 73
2, 291840, Note_off_c, 0, 71, 0
2, 291840, Note_on_c, 0, 70, 76
2, 292080, Note_off_c, 0, 70, 0
2, 292080, Note_on_c, 0, 69, 77
2, 292320, Note_off_c, 0, 69, 0
2, 292320, Note_on_c, 0, 72, 82
2, 292560, Note_off_c, 0, 72, 0
2, 292560, Note_on_c, 0, 69, 70
2, 292800, Note_off_c, 0, 69, 0
2, 292800, Note_on_c, 0, 70, 81
2, 293040, Note_off_c, 0, 70, 0
2, 293040, Note_on_c, 0, 65, 68
2, 293280, Note_off_c, 0, 65, 0
2, 293280, Note_on_c, 0, 65, 77
2, 293520, Note_off_c, 0, 65, 0
2, 295200, Note_on_c, 0, 70, 68
2, 295358, Note_off_c, 0, 70, 0
2, 295358, Note_on_c, 0, 69, 65
2, 295519, Note_off_c, 0, 69, 0
2, 295519, Note_on_c, 0, 67, 70
2, 295680, Note_off_c, 0, 67, 0
2, 295680, Note_on_c, 0, 66, 71
2, 296160, Note_off_c, 0, 66, 0
2, 296160, Note_on_c, 0, 57, 65
2, 296640, Note_off_c, 0, 57, 0
2, 296640, Note_on_c, 0, 60, 86
2, 297120, Note_off_c, 0, 60, 0
2, 297120, Note_on_c, 0, 63, 81
2, 297600, Note_off_c, 0, 63, 0
2, 297600, Note_on_c, 0, 60, 70
2, 298080, Note_off_c, 0, 60, 0
2, 298080, Note_on_c, 0, 61, 78
2, 298560, Note_off_c, 0, 61, 0
2, 298560, Note_on_c, 0, 62, 85
2, 299040, Note_off_c, 0, 62, 0
2, 299040, Note_on_c, 0, 58, 68
2, 299520, Note_off_c, 0, 58, 0
2, 299520, Note_on_c, 0, 55, 76
2, 300000, Note_off_c, 0, 55, 0
2, 300000, Note_on_c, 0, 57, 76
2, 300480, Note_off_c, 0, 57, 0
2, 300480, Note_on_c, 0, 58, 77
2, 300960, Note_off_c, 0, 58, 0
2, 300960, Note_on_c, 0, 59, 75
2, 301440, Note_off_c, 0, 59, 0
2, 301440, Note_on_c, 0, 60, 84
2, 302400, Note_off_c, 0, 60, 0
2, 305280, Note_on_c, 0, 72, 64
2, 306240, Note_off_c, 0, 72, 0
2, 306240, Note_on_c, 0, 74, 78
2, 306720, Note_off_c, 0, 74, 0
2, 306720, Note_on_c, 0, 75, 80
2, 307200, Note_off_c, 0, 75, 0
2, 307680, Note_on_c, 0, 67, 68
2, 308160, Note_off_c, 0, 67, 0
2, 308160, Note_on_c, 0, 72, 88
2, 308640, Note_off_c, 0, 72, 0
2, 308640, Note_on_c, 0, 75, 84
2, 309120, Note_off_c, 0, 75, 0
2, 309120, Note_on_c, 0, 74, 72
2, 309600, Note_off_c, 0, 74, 0
2, 309600, Note_on_c, 0, 72, 75
2, 310080, Note_off_c, 0, 72, 0
2, 310080, Note_on_c, 0, 70, 68
2, 310560, Note_off_c, 0, 70, 0
2, 310560, Note_on_c, 0, 67, 67
2, 311040, Note_off_c, 0, 67, 0
2, 311040, Note_on_c, 0, 69, 80
2, 311520, Note_off_c, 0, 69, 0
2, 311520, Note_on_c, 0, 72, 84
2, 312000, Note_off_c, 0, 72, 0
2, 312000, Note_on_c, 0, 75, 85
2, 312480, Note_off_c, 0, 75, 0
2, 312480, Note_on_c, 0, 78, 84
2, 312960, Note_off_c, 0, 78, 0
2, 312960, Note_on_c, 0, 77, 76
2, 313440, Note_off_c, 0, 77, 0
2, 313440, Note_on_c, 0, 75, 72
2, 313920, Note_off_c, 0, 75, 0
2, 313920, Note_on_c, 0, 74, 70
2, 314400, Note_off_c, 0, 74, 0
2, 314400, Note_on_c, 0, 72, 71
2, 314880, Note_off_c, 0, 72, 0
2, 314880, Note_on_c, 0, 70, 74
2, 315360, Note_off_c, 0, 70, 0
2, 315360, Note_on_c, 0, 69, 71
2, 315840, Note_off_c, 0, 69, 0
2, 315840, Note_on_c, 0, 72, 81
2, 316320, Note_off_c, 0, 72, 0
2, 316320, Note_on_c, 0, 69, 72
2, 316800, Note_off_c, 0, 69, 0
2, 316800, Note_on_c, 0, 70, 77
2, 317280, Note_off_c, 0, 70, 0
2, 317280, Note_on_c, 0, 67, 70
2, 317760, Note_off_c, 0, 67, 0
2, 317760, Note_on_c, 0, 63, 68
2, 318240, Note_off_c, 0, 63, 0
2, 318240, Note_on_c, 0, 60, 70
2, 318720, Note_off_c, 0, 60, 0
2, 318720, Note_on_c, 0, 62, 81
2, 319200, Note_off_c, 0, 62, 0
2, 319200, Note_on_c, 0, 65, 88
2, 321600, Note_off_c, 0, 65, 0
2, 323040, Note_on_c, 0, 77, 73
2, 323198, Note_off_c, 0, 77, 0
2, 323198, Note_on_c, 0, 75, 69
2, 323359, Note_off_c, 0, 75, 0
2, 323359, Note_on_c, 0, 73, 69
2, 323520, Note_off_c, 0, 73, 0
2, 323520, Note_on_c, 0, 70, 69
2, 324000, Note_off_c, 0, 70, 0
2, 324000, Note_on_c, 0, 66, 64
2, 324480, Note_off_c, 0, 66, 0
2, 324480, Note_on_c, 0, 63, 69
2, 324960, Note_off_c, 0, 63, 0
2, 324960, Note_on_c, 0, 58, 70
2, 325440, Note_off_c, 0, 58, 0
2, 325440, Note_on_c, 0, 61, 84
2, 325920, Note_off_c, 0, 61, 0
2, 325920, Note_on_c, 0, 58, 75
2, 326400, Note_off_c, 0, 58, 0
2, 326400, Note_on_c, 0, 60, 85
2, 326880, Note_off_c, 0, 60, 0
2, 326880, Note_on_c, 0, 64, 88
2, 327840, Note_off_c, 0, 64, 0
2, 327840, Note_on_c, 0, 59, 70
2, 328320, Note_off_c, 0, 59, 0
2, 328320, Note_on_c, 0, 71, 93
2, 328800, Note_off_c, 0, 71, 0
2, 328800, Note_on_c, 0, 70, 75
2, 329280, Note_off_c, 0, 70, 0
2, 329280, Note_on_c, 0, 69, 72
2, 329438, Note_off_c, 0, 69, 0
2, 329438, Note_on_c, 0, 71, 81
2, 329599, Note_off_c, 0, 71, 0
2, 329599, Note_on_c, 0, 69, 70
2, 329760, Note_off_c, 0, 69, 0
2, 329760, Note_on_c, 0, 66, 67
2, 330240, Note_off_c, 0, 66, 0
2, 330240, Note_on_c, 0, 64, 66
2, 330720, Note_off_c, 0, 64, 0
2, 330720, Note_on_c, 0, 60, 68
2, 331200, Note_off_c, 0, 60, 0
2, 331200, Note_on_c, 0, 68, 92
2, 331358, Note_off_c, 0, 68, 0
2, 331358, Note_on_c, 0, 70, 85
2, 331519, Note_off_c, 0, 70, 0
2, 331519, Note_on_c, 0, 68, 74
2, 331680, Note_off_c, 0, 68, 0
2, 331680, Note_on_c, 0, 66, 70
2, 332160, Note_off_c, 0, 66, 0
2, 332160, Note_on_c, 0, 65, 74
2, 332640, Note_off_c, 0, 65, 0
2, 332640, Note_on_c, 0, 61, 68
2, 333120, Note_off_c, 0, 61, 0
2, 333120, Note_on_c, 0, 58, 82
2, 333600, Note_off_c, 0, 58, 0
2, 333600, Note_on_c, 0, 56, 73
2, 334080, Note_off_c, 0, 56, 0
2, 334080, Note_on_c, 0, 67, 96
2, 334238, Note_off_c, 0, 67, 0
2, 334238, Note_on_c, 0, 68, 88
2, 334399, Note_off_c, 0, 68, 0
2, 334399, Note_on_c, 0, 67, 74
2, 334560, Note_off_c, 0, 67, 0
2, 334560, Note_on_c, 0, 65, 68
2, 335040, Note_off_c, 0, 65, 0
2, 335040, Note_on_c, 0, 64, 69
2, 335520, Note_off_c, 0, 64, 0
2, 335520, Note_on_c, 0, 55, 66
2, 336000, Note_off_c, 0, 55, 0
2, 336000, Note_on_c, 0, 58, 84
2, 336480, Note_off_c, 0, 58, 0
2, 336480, Note_on_c, 0, 61, 81
2, 336960, Note_off_c, 0, 61, 0
2, 336960, Note_on_c, 0, 60, 70
2, 337440, Note_off_c, 0, 60, 0
2, 337440, Note_on_c, 0, 58, 73
2, 337920, Note_off_c, 0, 58, 0
2, 337920, Note_on_c, 0, 57, 73
2, 338239, Note_off_c, 0, 57, 0
2, 338239, Note_on_c, 0, 60, 79
2, 338558, Note_off_c, 0, 60, 0
2, 338558, Note_on_c, 0, 67, 91
2, 338880, Note_off_c, 0, 67, 0
2, 338880, Note_on_c, 0, 65, 72
2, 339360, Note_off_c, 0, 65, 0
2, 339360, Note_on_c, 0, 60, 71
2, 339840, Note_off_c, 0, 60, 0
2, 339840, Note_on_c, 0, 62, 76
2, 340320, Note_off_c, 0, 62, 0
2, 340320, Note_on_c, 0, 65, 80
2, 341760, Note_off_c, 0, 65, 0
2, 341760, Note_on_c, 0, 62, 68
2, 342720, Note_off_c, 0, 62, 0
2, 343200, Note_on_c, 0, 64, 62
2, 343440, Note_off_c, 0, 64, 0
2, 343440, Note_on_c, 0, 67, 78
2, 343680, Note_off_c, 0, 67, 0
2, 343680, Note_on_c, 0, 70, 81
2, 343999, Note_off_c, 0, 70, 0
2, 343999, Note_on_c, 0, 72, 82
2, 344318, Note_off_c, 0, 72, 0
2, 344318, Note_on_c, 0, 70, 70
2, 344640, Note_off_c, 0, 70, 0
2, 344640, Note_on_c, 0, 69, 69
2, 345120, Note_off_c, 0, 69, 0
2, 345120, Note_on_c, 0, 67, 72
2, 345600, Note_off_c, 0, 67, 0
2, 345600, Note_on_c, 0, 65, 76
2, 346080, Note_off_c, 0, 65, 0
2, 346080, Note_on_c, 0, 60, 66
2, 346560, Note_off_c, 0, 60, 0
2, 346560, Note_on_c, 0, 62, 83
2, 347040, Note_off_c, 0, 62, 0
2, 347040, Note_on_c, 0, 63, 82
2, 349440, Note_off_c, 0, 63, 0
2, 351840, Note_on_c, 0, 68, 71
2, 352320, Note_off_c, 0, 68, 0
2, 352320, Note_on_c, 0, 67, 68
2, 352800, Note_off_c, 0, 67, 0
2, 352800, Note_on_c, 0, 65, 70
2, 353280, Note_off_c, 0, 65, 0
2, 353760, Note_on_c, 0, 72, 65
2, 354240, Note_off_c, 0, 72, 0
2, 354240, Note_on_c, 0, 70, 65
2, 354720, Note_off_c, 0, 70, 0
2, 354720, Note_on_c, 0, 68, 72
2, 355358, Note_off_c, 0, 68, 0
2, 355358, Note_on_c, 0, 70, 80
2, 355519, Note_off_c, 0, 70, 0
2, 355519, Note_on_c, 0, 68, 70
2, 355680, Note_off_c, 0, 68, 0
2, 355680, Note_on_c, 0, 65, 69
2, 356160, Note_off_c, 0, 65, 0
2, 356160, Note_on_c, 0, 62, 72
2, 356640, Note_off_c, 0, 62, 0
2, 356640, Note_on_c, 0, 60, 72
2, 357120, Note_off_c, 0, 60, 0
2, 357120, Note_on_c, 0, 70, 91
2, 357600, Note_off_c, 0, 70, 0
2, 357600, Note_on_c, 0, 69, 76
2, 357840, Note_off_c, 0, 69, 0
2, 357840, Note_on_c, 0, 67, 71
2, 358080, Note_off_c, 0, 67, 0
2, 358080, Note_on_c, 0, 66, 74
2, 358560, Note_off_c, 0, 66, 0
2, 358560, Note_on_c, 0, 57, 68
2, 359040, Note_off_c, 0, 57, 0
2, 359040, Note_on_c, 0, 60, 84
2, 359520, Note_off_c, 0, 60, 0
2, 359520, Note_on_c, 0, 63, 86
2, 360000, Note_off_c, 0, 63, 0
2, 360000, Note_on_c, 0, 60, 71
2, 360480, Note_off_c, 0, 60, 0
2, 360480, Note_on_c, 0, 61, 82
2, 360960, Note_off_c, 0, 61, 0
2, 360960, Note_on_c, 0, 62, 77
2, 361440, Note_off_c, 0, 62, 0
2, 361440, Note_on_c, 0, 58, 73
2, 361920, Note_off_c, 0, 58, 0
2, 361920, Note_on_c, 0, 55, 76
2, 362400, Note_off_c, 0, 55, 0
2, 362400, Note_on_c, 0, 57, 73
2, 362880, Note_off_c, 0, 57, 0
2, 362880, Note_on_c, 0, 60, 83
2, 363360, Note_off_c, 0, 60, 0
2, 363360, Note_on_c, 0, 69, 94
2, 363840, Note_off_c, 0, 69, 0
2, 363840, Note_on_c, 0, 64, 66
2, 364320, Note_off_c, 0, 64, 0
2, 364320, Note_on_c, 0, 65, 79
2, 364800, Note_off_c, 0, 65, 0
2, 364800, Note_on_c, 0, 67, 81
2, 364958, Note_off_c, 0, 67, 0
2, 364958, Note_on_c, 0, 69, 81
2, 365119, Note_off_c, 0, 69, 0
2, 365119, Note_on_c, 0, 67, 73
2, 365280, Note_off_c, 0, 67, 0
2, 365280, Note_on_c, 0, 65, 74
2, 365760, Note_off_c, 0, 65, 0
2, 365760, Note_on_c, 0, 61, 67
2, 366240, Note_off_c, 0, 61, 0
2, 366240, Note_on_c, 0, 59, 73
2, 366720, Note_off_c, 0, 59, 0
2, 366720, Note_on_c, 0, 60, 79
2, 367200, Note_off_c, 0, 60, 0
2, 367200, Note_on_c, 0, 58, 71
2, 367680, Note_off_c, 0, 58, 0
2, 367680, Note_on_c, 0, 60, 83
2, 367999, Note_off_c, 0, 60, 0
2, 367999, Note_on_c, 0, 64, 85
2, 368318, Note_off_c, 0, 64, 0
2, 368318, Note_on_c, 0, 67, 88
2, 368640, Note_off_c, 0, 67, 0
2, 368640, Note_on_c, 0, 65, 74
2, 369278, Note_off_c, 0, 65, 0
2, 369278, Note_on_c, 0, 60, 67
2, 369919, Note_off_c, 0, 60, 0
2, 369919, Note_on_c, 0, 58, 75
2, 370560, Note_off_c, 0, 58, 0
2, 370560, Note_on_c, 0, 57, 74
2, 372480, Note_off_c, 0, 57, 0
2, 372481, End_track
0, 0, End_of_file
