0, 0, Header, 1, 2, 960
1, 0, Start_track
1, 0, Time_signature, 4, 2, 24, 8
1, 0, Key_signature, -1, "major"
1, 0, Tempo, 267857
1, 0, Copyright_t, "Copyright "
1, 1, End_track
2, 0, Start_track
2, 0, Program_c, 0, 65
2, 0, Control_c, 0, 121, 0
2, 0, Control_c, 0, 64, 0
2, 0, Control_c, 0, 91, 48
2, 0, Control_c, 0, 10, 51
2, 0, Control_c, 0, 7, 95
2, 0, Title_t, "Alto Saxophone"
2, 3360, Note_on_c, 0, 67, 66
2, 6720, Note_off_c, 0, 67, 0
2, 6720, Note_on_c, 0, 67, 70
2, 7200, Note_off_c, 0, 67, 0
2, 7200, Note_on_c, 0, 70, 83
2, 8640, Note_off_c, 0, 70, 0
2, 8640, Note_on_c, 0, 72, 79
2, 9600, Note_off_c, 0, 72, 0
2, 9600, Note_on_c, 0, 73, 81
2, 10080, Note_off_c, 0, 73, 0
2, 10080, Note_on_c, 0, 76, 82
2, 11040, Note_off_c, 0, 76, 0
2, 11040, Note_on_c, 0, 70, 64
2, 11520, Note_off_c, 0, 70, 0
2, 11520, Note_on_c, 0, 73, 81
2, 12480, Note_off_c, 0, 73, 0
2, 12480, Note_on_c, 0, 72, 75
2, 12960, Note_off_c, 0, 72, 0
2, 12960, Note_on_c, 0, 70, 74
2, 13440, Note_off_c, 0, 70, 0
2, 13440, Note_on_c, 0, 73, 84
2, 16320, Note_off_c, 0, 73, 0
2, 16320, Note_on_c, 0, 72, 70
2, 18240, Note_off_c, 0, 72, 0
2, 18240, Note_on_c, 0, 70, 71
2, 18720, Note_off_c, 0, 70, 0
2, 18720, Note_on_c, 0, 76, 81
2, 19200, Note_off_c, 0, 76, 0
2, 20160, Note_on_c, 0, 74, 69
2, 20640, Note_off_c, 0, 74, 0
2, 20640, Note_on_c, 0, 69, 68
2, 21120, Note_off_c, 0, 69, 0
2, 21120, Note_on_c, 0, 66, 66
2, 21600, Note_off_c, 0, 66, 0
2, 21600, Note_on_c, 0, 69, 82
2, 22080, Note_off_c, 0, 69, 0
2, 22080, Note_on_c, 0, 66, 69
2, 22560, Note_off_c, 0, 66, 0
2, 22560, Note_on_c, 0, 64, 72
2, 23040, Note_off_c, 0, 64, 0
2, 23040, Note_on_c, 0, 70, 85
2, 24000, Note_off_c, 0, 70, 0
2, 24000, Note_on_c, 0, 70, 77
2, 26400, Note_off_c, 0, 70, 0
2, 26400, Note_on_c, 0, 72, 79
2, 26880, Note_off_c, 0, 72, 0
2, 26880, Note_on_c, 0, 70, 70
2, 27360, Note_off_c, 0, 70, 0
2, 27360, Note_on_c, 0, 69, 75
2, 27840, Note_off_c, 0, 69, 0
2, 27840, Note_on_c, 0, 69, 70
2, 28800, Note_off_c, 0, 69, 0
2, 30240, Note_on_c, 0, 69, 70
2, 30720, Note_off_c, 0, 69, 0
2, 30720, Note_on_c, 0, 67, 68
2, 31200, Note_off_c, 0, 67, 0
2, 31200, Note_on_c, 0, 66, 68
2, 31680, Note_off_c, 0, 66, 0
2, 31680, Note_on_c, 0, 66, 74
2, 32640, Note_off_c, 0, 66, 0
2, 64800, Note_on_c, 0, 52, 69
2, 65040, Note_off_c, 0, 52, 0
2, 65040, Note_on_c, 0, 55, 78
2, 65280, Note_off_c, 0, 55, 0
2, 65280, Note_on_c, 0, 60, 91
2, 65760, Note_off_c, 0, 60, 0
2, 65760, Note_on_c, 0, 64, 92
2, 66240, Note_off_c, 0, 64, 0
2, 66240, Note_on_c, 0, 62, 73
2, 66720, Note_off_c, 0, 62, 0
2, 66720, Note_on_c, 0, 60, 74
2, 67200, Note_off_c, 0, 60, 0
2, 67200, Note_on_c, 0, 59, 69
2, 67680, Note_off_c, 0, 59, 0
2, 67680, Note_on_c, 0, 60, 81
2, 68160, Note_off_c, 0, 60, 0
2, 68160, Note_on_c, 0, 62, 83
2, 68640, Note_off_c, 0, 62, 0
2, 68640, Note_on_c, 0, 59, 72
2, 69120, Note_off_c, 0, 59, 0
2, 69120, Note_on_c, 0, 60, 80
2, 69600, Note_off_c, 0, 60, 0
2, 69600, Note_on_c, 0, 67, 89
2, 72000, Note_off_c, 0, 67, 0
2, 74880, Note_on_c, 0, 69, 69
2, 75360, Note_off_c, 0, 69, 0
2, 75360, Note_on_c, 0, 67, 69
2, 75600, Note_off_c, 0, 67, 0
2, 75600, Note_on_c, 0, 66, 73
2, 75840, Note_off_c, 0, 66, 0
2, 75840, Note_on_c, 0, 65, 73
2, 76320, Note_off_c, 0, 65, 0
2, 76320, Note_on_c, 0, 64, 75
2, 76800, Note_off_c, 0, 64, 0
2, 76800, Note_on_c, 0, 62, 74
2, 77280, Note_off_c, 0, 62, 0
2, 77280, Note_on_c, 0, 60, 69
2, 77760, Note_off_c, 0, 60, 0
2, 77760, Note_on_c, 0, 59, 73
2, 78240, Note_off_c, 0, 59, 0
2, 78240, Note_on_c, 0, 62, 81
2, 78720, Note_off_c, 0, 62, 0
2, 78720, Note_on_c, 0, 65, 85
2, 79200, Note_off_c, 0, 65, 0
2, 79200, Note_on_c, 0, 69, 80
2, 79680, Note_off_c, 0, 69, 0
2, 79680, Note_on_c, 0, 67, 75
2, 80160, Note_off_c, 0, 67, 0
2, 80160, Note_on_c, 0, 65, 70
2, 80640, Note_off_c, 0, 65, 0
2, 80640, Note_on_c, 0, 64, 73
2, 81120, Note_off_c, 0, 64, 0
2, 81120, Note_on_c, 0, 67, 81
2, 81600, Note_off_c, 0, 67, 0
2, 81600, Note_on_c, 0, 70, 84
2, 82080, Note_off_c, 0, 70, 0
2, 82080, Note_on_c, 0, 74, 80
2, 82560, Note_off_c, 0, 74, 0
2, 82560, Note_on_c, 0, 77, 82
2, 84000, Note_off_c, 0, 77, 0
2, 84000, Note_on_c, 0, 76, 71
2, 84480, Note_off_c, 0, 76, 0
2, 84480, Note_on_c, 0, 76, 77
2, 85440, Note_off_c, 0, 76, 0
2, 86880, Note_on_c, 0, 62, 70
2, 87360, Note_off_c, 0, 62, 0
2, 87360, Note_on_c, 0, 64, 83
2, 87679, Note_off_c, 0, 64, 0
2, 87679, Note_on_c, 0, 67, 86
2, 87998, Note_off_c, 0, 67, 0
2, 87998, Note_on_c, 0, 70, 83
2, 88320, Note_off_c, 0, 70, 0
2, 88320, Note_on_c, 0, 74, 84
2, 88800, Note_off_c, 0, 74, 0
2, 88800, Note_on_c, 0, 73, 73
2, 89280, Note_off_c, 0, 73, 0
2, 89280, Note_on_c, 0, 72, 77
2, 89760, Note_off_c, 0, 72, 0
2, 89760, Note_on_c, 0, 71, 75
2, 90240, Note_off_c, 0, 71, 0
2, 90240, Note_on_c, 0, 70, 75
2, 90720, Note_off_c, 0, 70, 0
2, 90720, Note_on_c, 0, 67, 70
2, 91200, Note_off_c, 0, 67, 0
2, 91200, Note_on_c, 0, 64, 66
2, 91680, Note_off_c, 0, 64, 0
2, 91680, Note_on_c, 0, 60, 68
2, 92160, Note_off_c, 0, 60, 0
2, 92160, Note_on_c, 0, 62, 81
2, 92640, Note_off_c, 0, 62, 0
2, 92640, Note_on_c, 0, 60, 74
2, 93120, Note_off_c, 0, 60, 0
2, 93120, Note_on_c, 0, 62, 78
2, 93600, Note_off_c, 0, 62, 0
2, 93600, Note_on_c, 0, 60, 70
2, 94080, Note_off_c, 0, 60, 0
2, 94080, Note_on_c, 0, 65, 85
2, 95040, Note_off_c, 0, 65, 0
2, 96960, Note_on_c, 0, 74, 66
2, 98880, Note_off_c, 0, 74, 0
2, 98880, Note_on_c, 0, 76, 81
2, 102240, Note_off_c, 0, 76, 0
2, 102240, Note_on_c, 0, 74, 67
2, 103200, Note_off_c, 0, 74, 0
2, 103200, Note_on_c, 0, 70, 63
2, 103680, Note_off_c, 0, 70, 0
2, 103680, Note_on_c, 0, 69, 68
2, 104160, Note_off_c, 0, 69, 0
2, 104160, Note_on_c, 0, 67, 72
2, 104640, Note_off_c, 0, 67, 0
2, 104640, Note_on_c, 0, 69, 81
2, 105120, Note_off_c, 0, 69, 0
2, 105120, Note_on_c, 0, 70, 80
2, 105600, Note_off_c, 0, 70, 0
2, 105600, Note_on_c, 0, 72, 83
2, 111360, Note_off_c, 0, 72, 0
2, 111360, Note_on_c, 0, 77, 86
2, 112320, Note_off_c, 0, 77, 0
2, 112320, Note_on_c, 0, 65, 57
2, 113280, Note_off_c, 0, 65, 0
2, 115680, Note_on_c, 0, 53, 67
2, 116160, Note_off_c, 0, 53, 0
2, 116160, Note_on_c, 0, 55, 77
2, 116640, Note_off_c, 0, 55, 0
2, 116640, Note_on_c, 0, 58, 78
2, 117120, Note_off_c, 0, 58, 0
2, 117120, Note_on_c, 0, 64, 86
2, 117600, Note_off_c, 0, 64, 0
2, 117600, Note_on_c, 0, 59, 74
2, 118080, Note_off_c, 0, 59, 0
2, 118080, Note_on_c, 0, 57, 74
2, 118560, Note_off_c, 0, 57, 0
2, 118560, Note_on_c, 0, 52, 69
2, 119040, Note_off_c, 0, 52, 0
2, 119040, Note_on_c, 0, 55, 75
2, 119520, Note_off_c, 0, 55, 0
2, 119520, Note_on_c, 0, 58, 79
2, 120000, Note_off_c, 0, 58, 0
2, 120000, Note_on_c, 0, 60, 78
2, 120480, Note_off_c, 0, 60, 0
2, 120480, Note_on_c, 0, 58, 76
2, 120960, Note_off_c, 0, 58, 0
2, 120960, Note_on_c, 0, 61, 81
2, 122400, Note_off_c, 0, 61, 0
2, 122400, Note_on_c, 0, 58, 71
2, 122880, Note_off_c, 0, 58, 0
2, 122880, Note_on_c, 0, 60, 78
2, 123360, Note_off_c, 0, 60, 0
2, 123360, Note_on_c, 0, 54, 73
2, 123840, Note_off_c, 0, 54, 0
2, 126720, Note_on_c, 0, 69, 73
2, 127200, Note_off_c, 0, 69, 0
2, 127200, Note_on_c, 0, 70, 78
2, 127680, Note_off_c, 0, 70, 0
2, 127680, Note_on_c, 0, 72, 85
2, 128160, Note_off_c, 0, 72, 0
2, 128160, Note_on_c, 0, 69, 73
2, 128640, Note_off_c, 0, 69, 0
2, 128640, Note_on_c, 0, 70, 79
2, 129120, Note_off_c, 0, 70, 0
2, 129120, Note_on_c, 0, 65, 71
2, 129600, Note_off_c, 0, 65, 0
2, 129600, Note_on_c, 0, 62, 65
2, 130080, Note_off_c, 0, 62, 0
2, 130080, Note_on_c, 0, 58, 68
2, 130560, Note_off_c, 0, 58, 0
2, 130560, Note_on_c, 0, 66, 91
2, 131040, Note_off_c, 0, 66, 0
2, 131040, Note_on_c, 0, 67, 84
2, 131520, Note_off_c, 0, 67, 0
2, 131520, Note_on_c, 0, 64, 63
2, 132000, Note_off_c, 0, 64, 0
2, 132000, Note_on_c, 0, 60, 69
2, 132480, Note_off_c, 0, 60, 0
2, 132480, Note_on_c, 0, 65, 85
2, 132960, Note_off_c, 0, 65, 0
2, 132960, Note_on_c, 0, 64, 76
2, 133440, Note_off_c, 0, 64, 0
2, 133440, Note_on_c, 0, 62, 76
2, 133920, Note_off_c, 0, 62, 0
2, 133920, Note_on_c, 0, 60, 75
2, 134400, Note_off_c, 0, 60, 0
2, 134400, Note_on_c, 0, 58, 72
2, 134880, Note_off_c, 0, 58, 0
2, 134880, Note_on_c, 0, 57, 76
2, 135360, Note_off_c, 0, 57, 0
2, 135360, Note_on_c, 0, 57, 82
2, 135840, Note_off_c, 0, 57, 0
2, 135840, Note_on_c, 0, 58, 82
2, 136320, Note_off_c, 0, 58, 0
2, 136320, Note_on_c, 0, 70, 95
2, 136800, Note_off_c, 0, 70, 0
2, 136800, Note_on_c, 0, 66, 73
2, 137280, Note_off_c, 0, 66, 0
2, 142560, Note_on_c, 0, 67, 64
2, 143040, Note_off_c, 0, 67, 0
2, 143040, Note_on_c, 0, 70, 83
2, 143359, Note_off_c, 0, 70, 0
2, 143359, Note_on_c, 0, 72, 83
2, 143678, Note_off_c, 0, 72, 0
2, 143678, Note_on_c, 0, 77, 85
2, 144000, Note_off_c, 0, 77, 0
2, 144000, Note_on_c, 0, 72, 66
2, 144960, Note_off_c, 0, 72, 0
2, 145440, Note_on_c, 0, 67, 70
2, 145920, Note_off_c, 0, 67, 0
2, 145920, Note_on_c, 0, 70, 81
2, 146239, Note_off_c, 0, 70, 0
2, 146239, Note_on_c, 0, 72, 76
2, 146558, Note_off_c, 0, 72, 0
2, 146558, Note_on_c, 0, 77, 88
2, 146880, Note_off_c, 0, 77, 0
2, 146880, Note_on_c, 0, 72, 65
2, 147840, Note_off_c, 0, 72, 0
2, 150240, Note_on_c, 0, 66, 63
2, 150720, Note_off_c, 0, 66, 0
2, 150720, Note_on_c, 0, 70, 87
2, 151039, Note_off_c, 0, 70, 0
2, 151039, Note_on_c, 0, 72, 83
2, 151358, Note_off_c, 0, 72, 0
2, 151358, Note_on_c, 0, 77, 89
2, 151680, Note_off_c, 0, 77, 0
2, 151680, Note_on_c, 0, 72, 69
2, 152640, Note_off_c, 0, 72, 0
2, 153120, Note_on_c, 0, 66, 68
2, 153600, Note_off_c, 0, 66, 0
2, 153600, Note_on_c, 0, 70, 82
2, 153919, Note_off_c, 0, 70, 0
2, 153919, Note_on_c, 0, 72, 79
2, 154238, Note_off_c, 0, 72, 0
2, 154238, Note_on_c, 0, 77, 85
2, 154560, Note_off_c, 0, 77, 0
2, 154560, Note_on_c, 0, 72, 67
2, 155520, Note_off_c, 0, 72, 0
2, 159360, Note_on_c, 0, 67, 68
2, 159840, Note_off_c, 0, 67, 0
2, 159840, Note_on_c, 0, 70, 80
2, 160320, Note_off_c, 0, 70, 0
2, 160320, Note_on_c, 0, 74, 84
2, 160800, Note_off_c, 0, 74, 0
2, 160800, Note_on_c, 0, 77, 87
2, 161280, Note_off_c, 0, 77, 0
2, 161280, Note_on_c, 0, 76, 72
2, 161760, Note_off_c, 0, 76, 0
2, 161760, Note_on_c, 0, 74, 74
2, 162240, Note_off_c, 0, 74, 0
2, 162240, Note_on_c, 0, 72, 69
2, 162720, Note_off_c, 0, 72, 0
2, 162720, Note_on_c, 0, 71, 75
2, 163200, Note_off_c, 0, 71, 0
2, 163200, Note_on_c, 0, 70, 76
2, 163680, Note_off_c, 0, 70, 0
2, 163680, Note_on_c, 0, 69, 74
2, 164160, Note_off_c, 0, 69, 0
2, 164160, Note_on_c, 0, 67, 68
2, 164640, Note_off_c, 0, 67, 0
2, 164640, Note_on_c, 0, 65, 72
2, 165120, Note_off_c, 0, 65, 0
2, 165120, Note_on_c, 0, 64, 71
2, 165600, Note_off_c, 0, 64, 0
2, 165600, Note_on_c, 0, 60, 69
2, 166080, Note_off_c, 0, 60, 0
2, 166080, Note_on_c, 0, 61, 78
2, 166560, Note_off_c, 0, 61, 0
2, 166560, Note_on_c, 0, 62, 80
2, 167040, Note_off_c, 0, 62, 0
2, 169920, Note_on_c, 0, 62, 66
2, 170160, Note_off_c, 0, 62, 0
2, 170160, Note_on_c, 0, 64, 84
2, 170400, Note_off_c, 0, 64, 0
2, 170400, Note_on_c, 0, 65, 81
2, 170640, Note_off_c, 0, 65, 0
2, 170640, Note_on_c, 0, 67, 78
2, 170880, Note_off_c, 0, 67, 0
2, 170880, Note_on_c, 0, 69, 82
2, 171360, Note_off_c, 0, 69, 0
2, 171360, Note_on_c, 0, 67, 70
2, 171840, Note_off_c, 0, 67, 0
2, 171840, Note_on_c, 0, 66, 71
2, 172320, Note_off_c, 0, 66, 0
2, 172320, Note_on_c, 0, 67, 75
2, 172800, Note_off_c, 0, 67, 0
2, 172800, Note_on_c, 0, 70, 78
2, 173280, Note_off_c, 0, 70, 0
2, 173280, Note_on_c, 0, 67, 70
2, 173760, Note_off_c, 0, 67, 0
2, 175680, Note_on_c, 0, 69, 65
2, 175999, Note_off_c, 0, 69, 0
2, 175999, Note_on_c, 0, 67, 70
2, 176318, Note_off_c, 0, 67, 0
2, 176318, Note_on_c, 0, 66, 73
2, 176640, Note_off_c, 0, 66, 0
2, 176640, Note_on_c, 0, 65, 73
2, 177120, Note_off_c, 0, 65, 0
2, 177120, Note_on_c, 0, 64, 73
2, 177600, Note_off_c, 0, 64, 0
2, 177600, Note_on_c, 0, 62, 72
2, 178080, Note_off_c, 0, 62, 0
2, 178080, Note_on_c, 0, 60, 70
2, 178560, Note_off_c, 0, 60, 0
2, 178560, Note_on_c, 0, 59, 76
2, 179040, Note_off_c, 0, 59, 0
2, 179040, Note_on_c, 0, 62, 84
2, 179520, Note_off_c, 0, 62, 0
2, 179520, Note_on_c, 0, 65, 86
2, 180000, Note_off_c, 0, 65, 0
2, 180000, Note_on_c, 0, 69, 86
2, 180480, Note_off_c, 0, 69, 0
2, 180480, Note_on_c, 0, 67, 76
2, 180960, Note_off_c, 0, 67, 0
2, 180960, Note_on_c, 0, 65, 71
2, 181440, Note_off_c, 0, 65, 0
2, 181440, Note_on_c, 0, 64, 69
2, 181759, Note_off_c, 0, 64, 0
2, 181759, Note_on_c, 0, 67, 80
2, 182078, Note_off_c, 0, 67, 0
2, 182078, Note_on_c, 0, 70, 86
2, 182400, Note_off_c, 0, 70, 0
2, 182400, Note_on_c, 0, 74, 86
2, 182880, Note_off_c, 0, 74, 0
2, 182880, Note_on_c, 0, 73, 73
2, 183360, Note_off_c, 0, 73, 0
2, 183360, Note_on_c, 0, 72, 73
2, 183840, Note_off_c, 0, 72, 0
2, 183840, Note_on_c, 0, 71, 70
2, 184320, Note_off_c, 0, 71, 0
2, 184320, Note_on_c, 0, 70, 71
2, 184800, Note_off_c, 0, 70, 0
2, 184800, Note_on_c, 0, 67, 69
2, 185280, Note_off_c, 0, 67, 0
2, 185280, Note_on_c, 0, 64, 69
2, 185760, Note_off_c, 0, 64, 0
2, 185760, Note_on_c, 0, 60, 70
2, 186240, Note_off_c, 0, 60, 0
2, 186240, Note_on_c, 0, 70, 93
2, 186720, Note_off_c, 0, 70, 0
2, 186720, Note_on_c, 0, 66, 70
2, 187200, Note_off_c, 0, 66, 0
2, 187200, Note_on_c, 0, 64, 67
2, 187680, Note_off_c, 0, 64, 0
2, 187680, Note_on_c, 0, 59, 70
2, 188160, Note_off_c, 0, 59, 0
2, 188160, Note_on_c, 0, 69, 97
2, 188479, Note_off_c, 0, 69, 0
2, 188479, Note_on_c, 0, 70, 83
2, 188798, Note_off_c, 0, 70, 0
2, 188798, Note_on_c, 0, 71, 77
2, 189120, Note_off_c, 0, 71, 0
2, 189120, Note_on_c, 0, 72, 82
2, 189600, Note_off_c, 0, 72, 0
2, 189600, Note_on_c, 0, 69, 73
2, 190080, Note_off_c, 0, 69, 0
2, 190080, Note_on_c, 0, 70, 80
2, 190560, Note_off_c, 0, 70, 0
2, 190560, Note_on_c, 0, 65, 67
2, 191040, Note_off_c, 0, 65, 0
2, 191040, Note_on_c, 0, 62, 68
2, 191520, Note_off_c, 0, 62, 0
2, 191520, Note_on_c, 0, 58, 68
2, 192000, Note_off_c, 0, 58, 0
2, 192000, Note_on_c, 0, 66, 85
2, 192480, Note_off_c, 0, 66, 0
2, 192480, Note_on_c, 0, 67, 84
2, 192960, Note_off_c, 0, 67, 0
2, 192960, Note_on_c, 0, 64, 72
2, 193440, Note_off_c, 0, 64, 0
2, 193440, Note_on_c, 0, 60, 69
2, 193920, Note_off_c, 0, 60, 0
2, 193920, Note_on_c, 0, 65, 84
2, 194400, Note_off_c, 0, 65, 0
2, 194400, Note_on_c, 0, 64, 77
2, 194880, Note_off_c, 0, 64, 0
2, 194880, Note_on_c, 0, 62, 70
2, 195360, Note_off_c, 0, 62, 0
2, 195360, Note_on_c, 0, 60, 69
2, 195840, Note_off_c, 0, 60, 0
2, 195840, Note_on_c, 0, 58, 74
2, 196320, Note_off_c, 0, 58, 0
2, 196320, Note_on_c, 0, 57, 77
2, 196800, Note_off_c, 0, 57, 0
2, 196800, Note_on_c, 0, 57, 75
2, 197280, Note_off_c, 0, 57, 0
2, 197280, Note_on_c, 0, 58, 77
2, 197760, Note_off_c, 0, 58, 0
2, 197760, Note_on_c, 0, 70, 92
2, 198240, Note_off_c, 0, 70, 0
2, 198240, Note_on_c, 0, 66, 73
2, 199680, Note_off_c, 0, 66, 0
2, 204000, Note_on_c, 0, 65, 74
2, 204480, Note_off_c, 0, 65, 0
2, 204480, Note_on_c, 0, 67, 79
2, 204799, Note_off_c, 0, 67, 0
2, 204799, Note_on_c, 0, 70, 80
2, 205118, Note_off_c, 0, 70, 0
2, 205118, Note_on_c, 0, 74, 86
2, 205440, Note_off_c, 0, 74, 0
2, 205440, Note_on_c, 0, 77, 82
2, 205920, Note_off_c, 0, 77, 0
2, 205920, Note_on_c, 0, 76, 72
2, 206400, Note_off_c, 0, 76, 0
2, 206400, Note_on_c, 0, 74, 71
2, 206880, Note_off_c, 0, 74, 0
2, 206880, Note_on_c, 0, 72, 75
2, 207360, Note_off_c, 0, 72, 0
2, 207360, Note_on_c, 0, 70, 73
2, 207840, Note_off_c, 0, 70, 0
2, 207840, Note_on_c, 0, 69, 71
2, 208320, Note_off_c, 0, 69, 0
2, 208320, Note_on_c, 0, 67, 75
2, 208800, Note_off_c, 0, 67, 0
2, 208800, Note_on_c, 0, 65, 72
2, 209280, Note_off_c, 0, 65, 0
2, 209280, Note_on_c, 0, 64, 68
2, 209760, Note_off_c, 0, 64, 0
2, 209760, Note_on_c, 0, 60, 73
2, 210240, Note_off_c, 0, 60, 0
2, 210240, Note_on_c, 0, 66, 86
2, 210720, Note_off_c, 0, 66, 0
2, 210720, Note_on_c, 0, 70, 90
2, 211200, Note_off_c, 0, 70, 0
2, 211200, Note_on_c, 0, 73, 84
2, 212160, Note_off_c, 0, 73, 0
2, 212160, Note_on_c, 0, 73, 78
2, 212640, Note_off_c, 0, 73, 0
2, 212640, Note_on_c, 0, 72, 71
2, 214080, Note_off_c, 0, 72, 0
2, 219360, Note_on_c, 0, 61, 68
2, 219840, Note_off_c, 0, 61, 0
2, 219840, Note_on_c, 0, 62, 80
2, 220320, Note_off_c, 0, 62, 0
2, 220320, Note_on_c, 0, 65, 86
2, 220800, Note_off_c, 0, 65, 0
2, 220800, Note_on_c, 0, 69, 85
2, 221280, Note_off_c, 0, 69, 0
2, 221280, Note_on_c, 0, 70, 82
2, 221760, Note_off_c, 0, 70, 0
2, 221760, Note_on_c, 0, 72, 85
2, 222240, Note_off_c, 0, 72, 0
2, 222240, Note_on_c, 0, 71, 69
2, 222720, Note_off_c, 0, 71, 0
2, 222720, Note_on_c, 0, 70, 73
2, 223200, Note_off_c, 0, 70, 0
2, 223200, Note_on_c, 0, 65, 65
2, 223680, Note_off_c, 0, 65, 0
2, 223680, Note_on_c, 0, 62, 68
2, 224160, Note_off_c, 0, 62, 0
2, 224160, Note_on_c, 0, 58, 70
2, 224640, Note_off_c, 0, 58, 0
2, 224640, Note_on_c, 0, 69, 95
2, 224959, Note_off_c, 0, 69, 0
2, 224959, Note_on_c, 0, 67, 75
2, 225278, Note_off_c, 0, 67, 0
2, 225278, Note_on_c, 0, 66, 71
2, 225600, Note_off_c, 0, 66, 0
2, 225600, Note_on_c, 0, 67, 77
2, 226560, Note_off_c, 0, 67, 0
2, 228480, Note_on_c, 0, 69, 63
2, 228799, Note_off_c, 0, 69, 0
2, 228799, Note_on_c, 0, 70, 80
2, 229118, Note_off_c, 0, 70, 0
2, 229118, Note_on_c, 0, 69, 75
2, 229440, Note_off_c, 0, 69, 0
2, 229440, Note_on_c, 0, 67, 71
2, 229920, Note_off_c, 0, 67, 0
2, 229920, Note_on_c, 0, 65, 68
2, 230400, Note_off_c, 0, 65, 0
2, 230400, Note_on_c, 0, 64, 74
2, 230880, Note_off_c, 0, 64, 0
2, 230880, Note_on_c, 0, 67, 83
2, 231360, Note_off_c, 0, 67, 0
2, 231360, Note_on_c, 0, 70, 84
2, 231840, Note_off_c, 0, 70, 0
2, 231840, Note_on_c, 0, 74, 91
2, 232320, Note_off_c, 0, 74, 0
2, 232320, Note_on_c, 0, 69, 63
2, 233280, Note_off_c, 0, 69, 0
2, 234720, Note_on_c, 0, 72, 68
2, 234960, Note_off_c, 0, 72, 0
2, 234960, Note_on_c, 0, 71, 70
2, 235200, Note_off_c, 0, 71, 0
2, 235200, Note_on_c, 0, 70, 70
2, 235680, Note_off_c, 0, 70, 0
2, 235680, Note_on_c, 0, 69, 69
2, 236160, Note_off_c, 0, 69, 0
2, 236160, Note_on_c, 0, 67, 68
2, 236640, Note_off_c, 0, 67, 0
2, 236640, Note_on_c, 0, 66, 72
2, 237120, Note_off_c, 0, 66, 0
2, 237120, Note_on_c, 0, 65, 76
2, 237600, Note_off_c, 0, 65, 0
2, 237600, Note_on_c, 0, 64, 72
2, 238080, Note_off_c, 0, 64, 0
2, 238080, Note_on_c, 0, 64, 80
2, 238560, Note_off_c, 0, 64, 0
2, 238560, Note_on_c, 0, 58, 73
2, 239040, Note_off_c, 0, 58, 0
2, 239040, Note_on_c, 0, 55, 70
2, 239520, Note_off_c, 0, 55, 0
2, 239520, Note_on_c, 0, 58, 83
2, 240000, Note_off_c, 0, 58, 0
2, 240000, Note_on_c, 0, 62, 86
2, 240480, Note_off_c, 0, 62, 0
2, 240480, Note_on_c, 0, 60, 76
2, 240960, Note_off_c, 0, 60, 0
2, 240960, Note_on_c, 0, 57, 72
2, 241440, Note_off_c, 0, 57, 0
2, 241440, Note_on_c, 0, 58, 79
2, 241920, Note_off_c, 0, 58, 0
2, 241920, Note_on_c, 0, 60, 81
2, 242400, Note_off_c, 0, 60, 0
2, 242400, Note_on_c, 0, 58, 72
2, 242880, Note_off_c, 0, 58, 0
2, 242880, Note_on_c, 0, 57, 73
2, 243360, Note_off_c, 0, 57, 0
2, 243360, Note_on_c, 0, 58, 74
2, 243840, Note_off_c, 0, 58, 0
2, 243840, Note_on_c, 0, 62, 83
2, 244320, Note_off_c, 0, 62, 0
2, 244320, Note_on_c, 0, 65, 82
2, 244800, Note_off_c, 0, 65, 0
2, 250560, Note_on_c, 0, 64, 67
2, 250879, Note_off_c, 0, 64, 0
2, 250879, Note_on_c, 0, 64, 78
2, 251198, Note_off_c, 0, 64, 0
2, 251198, Note_on_c, 0, 64, 78
2, 251520, Note_off_c, 0, 64, 0
2, 251520, Note_on_c, 0, 64, 74
2, 252000, Note_off_c, 0, 64, 0
2, 252000, Note_on_c, 0, 66, 82
2, 252480, Note_off_c, 0, 66, 0
2, 252480, Note_on_c, 0, 69, 78
2, 252960, Note_off_c, 0, 69, 0
2, 252960, Note_on_c, 0, 71, 83
2, 253440, Note_off_c, 0, 71, 0
2, 253440, Note_on_c, 0, 75, 91
2, 254400, Note_off_c, 0, 75, 0
2, 254400, Note_on_c, 0, 78, 80
2, 254880, Note_off_c, 0, 78, 0
2, 254880, Note_on_c, 0, 74, 68
2, 255840, Note_off_c, 0, 74, 0
2, 255840, Note_on_c, 0, 78, 82
2, 256320, Note_off_c, 0, 78, 0
2, 256320, Note_on_c, 0, 73, 69
2, 257280, Note_off_c, 0, 73, 0
2, 265920, Note_on_c, 0, 62, 69
2, 266239, Note_off_c, 0, 62, 0
2, 266239, Note_on_c, 0, 62, 70
2, 266558, Note_off_c, 0, 62, 0
2, 266558, Note_on_c, 0, 62, 74
2, 266880, Note_off_c, 0, 62, 0
2, 266880, Note_on_c, 0, 62, 77
2, 267360, Note_off_c, 0, 62, 0
2, 267360, Note_on_c, 0, 64, 81
2, 267840, Note_off_c, 0, 64, 0
2, 267840, Note_on_c, 0, 66, 76
2, 268320, Note_off_c, 0, 66, 0
2, 268320, Note_on_c, 0, 69, 89
2, 268800, Note_off_c, 0, 69, 0
2, 268800, Note_on_c, 0, 73, 87
2, 269280, Note_off_c, 0, 73, 0
2, 269280, Note_on_c, 0, 76, 87
2, 270240, Note_off_c, 0, 76, 0
2, 270240, Note_on_c, 0, 72, 67
2, 271200, Note_off_c, 0, 72, 0
2, 271200, Note_on_c, 0, 76, 86
2, 271680, Note_off_c, 0, 76, 0
2, 271680, Note_on_c, 0, 71, 66
2, 274080, Note_off_c, 0, 71, 0
2, 274080, Note_on_c, 0, 76, 86
2, 274320, Note_off_c, 0, 76, 0
2, 274320, Note_on_c, 0, 74, 74
2, 274560, Note_off_c, 0, 74, 0
2, 274560, Note_on_c, 0, 73, 72
2, 275040, Note_off_c, 0, 73, 0
2, 275040, Note_on_c, 0, 64, 62
2, 275520, Note_off_c, 0, 64, 0
2, 275520, Note_on_c, 0, 66, 81
2, 276000, Note_off_c, 0, 66, 0
2, 276000, Note_on_c, 0, 69, 83
2, 276480, Note_off_c, 0, 69, 0
2, 276480, Note_on_c, 0, 71, 84
2, 276960, Note_off_c, 0, 71, 0
2, 276960, Note_on_c, 0, 69, 73
2, 277440, Note_off_c, 0, 69, 0
2, 277440, Note_on_c, 0, 69, 80
2, 277920, Note_off_c, 0, 69, 0
2, 277920, Note_on_c, 0, 71, 81
2, 278400, Note_off_c, 0, 71, 0
2, 278400, Note_on_c, 0, 73, 79
2, 278880, Note_off_c, 0, 73, 0
2, 278880, Note_on_c, 0, 76, 82
2, 280320, Note_off_c, 0, 76, 0
2, 282240, Note_on_c, 0, 69, 65
2, 282720, Note_off_c, 0, 69, 0
2, 282720, Note_on_c, 0, 72, 81
2, 283200, Note_off_c, 0, 72, 0
2, 283200, Note_on_c, 0, 76, 82
2, 283680, Note_off_c, 0, 76, 0
2, 283680, Note_on_c, 0, 79, 85
2, 284160, Note_off_c, 0, 79, 0
2, 284160, Note_on_c, 0, 78, 73
2, 284640, Note_off_c, 0, 78, 0
2, 284640, Note_on_c, 0, 76, 76
2, 285120, Note_off_c, 0, 76, 0
2, 285120, Note_on_c, 0, 74, 69
2, 285600, Note_off_c, 0, 74, 0
2, 285600, Note_on_c, 0, 73, 76
2, 286080, Note_off_c, 0, 73, 0
2, 286080, Note_on_c, 0, 72, 69
2, 287040, Note_off_c, 0, 72, 0
2, 289440, Note_on_c, 0, 74, 66
2, 289680, Note_off_c, 0, 74, 0
2, 289680, Note_on_c, 0, 72, 65
2, 289920, Note_off_c, 0, 72, 0
2, 289920, Note_on_c, 0, 71, 70
2, 290400, Note_off_c, 0, 71, 0
2, 290400, Note_on_c, 0, 67, 66
2, 290880, Note_off_c, 0, 67, 0
2, 290880, Note_on_c, 0, 64, 70
2, 291360, Note_off_c, 0, 64, 0
2, 291360, Note_on_c, 0, 63, 72
2, 291840, Note_off_c, 0, 63, 0
2, 291840, Note_on_c, 0, 62, 74
2, 292320, Note_off_c, 0, 62, 0
2, 292320, Note_on_c, 0, 59, 74
2, 292800, Note_off_c, 0, 59, 0
2, 292800, Note_on_c, 0, 60, 78
2, 293280, Note_off_c, 0, 60, 0
2, 293280, Note_on_c, 0, 66, 87
2, 293760, Note_off_c, 0, 66, 0
2, 293760, Note_on_c, 0, 69, 84
2, 294240, Note_off_c, 0, 69, 0
2, 294240, Note_on_c, 0, 66, 68
2, 294720, Note_off_c, 0, 66, 0
2, 294720, Note_on_c, 0, 67, 80
2, 295039, Note_off_c, 0, 67, 0
2, 295039, Note_on_c, 0, 70, 80
2, 295358, Note_off_c, 0, 70, 0
2, 295358, Note_on_c, 0, 74, 92
2, 295680, Note_off_c, 0, 74, 0
2, 295680, Note_on_c, 0, 77, 82
2, 296160, Note_off_c, 0, 77, 0
2, 296160, Note_on_c, 0, 74, 73
2, 296640, Note_off_c, 0, 74, 0
2, 296640, Note_on_c, 0, 76, 79
2, 297120, Note_off_c, 0, 76, 0
2, 297120, Note_on_c, 0, 76, 72
2, 297600, Note_off_c, 0, 76, 0
2, 297600, Note_on_c, 0, 72, 72
2, 298080, Note_off_c, 0, 72, 0
2, 298080, Note_on_c, 0, 73, 73
2, 298560, Note_off_c, 0, 73, 0
2, 298560, Note_on_c, 0, 74, 79
2, 299040, Note_off_c, 0, 74, 0
2, 299040, Note_on_c, 0, 72, 72
2, 299520, Note_off_c, 0, 72, 0
2, 299520, Note_on_c, 0, 70, 67
2, 300000, Note_off_c, 0, 70, 0
2, 300000, Note_on_c, 0, 69, 74
2, 300480, Note_off_c, 0, 69, 0
2, 300480, Note_on_c, 0, 67, 71
2, 300960, Note_off_c, 0, 67, 0
2, 300960, Note_on_c, 0, 65, 69
2, 301440, Note_off_c, 0, 65, 0
2, 301440, Note_on_c, 0, 64, 72
2, 301920, Note_off_c, 0, 64, 0
2, 301920, Note_on_c, 0, 67, 78
2, 302400, Note_off_c, 0, 67, 0
2, 302400, Note_on_c, 0, 70, 83
2, 302880, Note_off_c, 0, 70, 0
2, 302880, Note_on_c, 0, 74, 84
2, 303360, Note_off_c, 0, 74, 0
2, 303360, Note_on_c, 0, 72, 73
2, 303840, Note_off_c, 0, 72, 0
2, 303840, Note_on_c, 0, 71, 70
2, 304320, Note_off_c, 0, 71, 0
2, 304320, Note_on_c, 0, 72, 77
2, 304800, Note_off_c, 0, 72, 0
2, 304800, Note_on_c, 0, 74, 78
2, 305280, Note_off_c, 0, 74, 0
2, 305280, Note_on_c, 0, 76, 81
2, 305599, Note_off_c, 0, 76, 0
2, 305599, Note_on_c, 0, 74, 71
2, 305918, Note_off_c, 0, 74, 0
2, 305918, Note_on_c, 0, 73, 69
2, 306240, Note_off_c, 0, 73, 0
2, 306240, Note_on_c, 0, 72, 75
2, 306720, Note_off_c, 0, 72, 0
2, 306720, Note_on_c, 0, 71, 71
2, 307200, Note_off_c, 0, 71, 0
2, 307200, Note_on_c, 0, 70, 72
2, 307680, Note_off_c, 0, 70, 0
2, 307680, Note_on_c, 0, 66, 70
2, 308160, Note_off_c, 0, 66, 0
2, 308160, Note_on_c, 0, 64, 70
2, 308640, Note_off_c, 0, 64, 0
2, 308640, Note_on_c, 0, 59, 73
2, 309120, Note_off_c, 0, 59, 0
2, 309120, Note_on_c, 0, 62, 87
2, 309600, Note_off_c, 0, 62, 0
2, 309600, Note_on_c, 0, 58, 71
2, 310080, Note_off_c, 0, 58, 0
2, 310080, Note_on_c, 0, 55, 77
2, 310560, Note_off_c, 0, 55, 0
2, 310560, Note_on_c, 0, 57, 76
2, 311040, Note_off_c, 0, 57, 0
2, 311040, Note_on_c, 0, 60, 79
2, 311520, Note_off_c, 0, 60, 0
2, 311520, Note_on_c, 0, 58, 74
2, 312000, Note_off_c, 0, 58, 0
2, 312000, Note_on_c, 0, 57, 72
2, 312480, Note_off_c, 0, 57, 0
2, 312480, Note_on_c, 0, 58, 79
2, 312960, Note_off_c, 0, 58, 0
2, 312960, Note_on_c, 0, 62, 87
2, 313440, Note_off_c, 0, 62, 0
2, 313440, Note_on_c, 0, 65, 85
2, 315840, Note_off_c, 0, 65, 0
2, 320640, Note_on_c, 0, 69, 66
2, 321120, Note_off_c, 0, 69, 0
2, 321120, Note_on_c, 0, 70, 75
2, 321360, Note_off_c, 0, 70, 0
2, 321360, Note_on_c, 0, 69, 75
2, 321600, Note_off_c, 0, 69, 0
2, 321600, Note_on_c, 0, 67, 71
2, 322080, Note_off_c, 0, 67, 0
2, 322080, Note_on_c, 0, 66, 71
2, 322560, Note_off_c, 0, 66, 0
2, 322560, Note_on_c, 0, 65, 71
2, 323040, Note_off_c, 0, 65, 0
2, 323040, Note_on_c, 0, 64, 73
2, 323520, Note_off_c, 0, 64, 0
2, 323520, Note_on_c, 0, 62, 74
2, 324000, Note_off_c, 0, 62, 0
2, 324000, Note_on_c, 0, 60, 72
2, 324480, Note_off_c, 0, 60, 0
2, 324480, Note_on_c, 0, 58, 71
2, 324960, Note_off_c, 0, 58, 0
2, 324960, Note_on_c, 0, 57, 76
2, 325440, Note_off_c, 0, 57, 0
2, 325440, Note_on_c, 0, 56, 75
2, 325920, Note_off_c, 0, 56, 0
2, 325920, Note_on_c, 0, 58, 80
2, 326400, Note_off_c, 0, 58, 0
2, 326400, Note_on_c, 0, 55, 72
2, 326880, Note_off_c, 0, 55, 0
2, 326880, Note_on_c, 0, 58, 84
2, 327360, Note_off_c, 0, 58, 0
2, 327360, Note_on_c, 0, 60, 78
2, 327840, Note_off_c, 0, 60, 0
2, 327840, Note_on_c, 0, 62, 83
2, 328320, Note_off_c, 0, 62, 0
2, 328320, Note_on_c, 0, 65, 84
2, 328800, Note_off_c, 0, 65, 0
2, 328800, Note_on_c, 0, 64, 77
2, 329280, Note_off_c, 0, 64, 0
2, 329280, Note_on_c, 0, 67, 83
2, 329760, Note_off_c, 0, 67, 0
2, 329760, Note_on_c, 0, 70, 88
2, 330240, Note_off_c, 0, 70, 0
2, 330240, Note_on_c, 0, 74, 89
2, 330720, Note_off_c, 0, 74, 0
2, 330720, Note_on_c, 0, 72, 74
2, 331200, Note_off_c, 0, 72, 0
2, 331200, Note_on_c, 0, 74, 82
2, 331680, Note_off_c, 0, 74, 0
2, 331680, Note_on_c, 0, 72, 68
2, 332160, Note_off_c, 0, 72, 0
2, 335040, Note_on_c, 0, 73, 67
2, 335359, Note_off_c, 0, 73, 0
2, 335359, Note_on_c, 0, 74, 75
2, 335678, Note_off_c, 0, 74, 0
2, 335678, Note_on_c, 0, 73, 71
2, 336000, Note_off_c, 0, 73, 0
2, 336000, Note_on_c, 0, 70, 65
2, 336480, Note_off_c, 0, 70, 0
2, 336480, Note_on_c, 0, 66, 68
2, 336960, Note_off_c, 0, 66, 0
2, 336960, Note_on_c, 0, 64, 70
2, 337440, Note_off_c, 0, 64, 0
2, 337440, Note_on_c, 0, 66, 79
2, 337920, Note_off_c, 0, 66, 0
2, 337920, Note_on_c, 0, 70, 85
2, 338400, Note_off_c, 0, 70, 0
2, 338400, Note_on_c, 0, 73, 82
2, 338880, Note_off_c, 0, 73, 0
2, 338880, Note_on_c, 0, 72, 71
2, 339360, Note_off_c, 0, 72, 0
2, 339360, Note_on_c, 0, 70, 68
2, 339840, Note_off_c, 0, 70, 0
2, 339840, Note_on_c, 0, 69, 71
2, 340320, Note_off_c, 0, 69, 0
2, 340320, Note_on_c, 0, 67, 70
2, 340800, Note_off_c, 0, 67, 0
2, 340800, Note_on_c, 0, 66, 70
2, 341280, Note_off_c, 0, 66, 0
2, 341280, Note_on_c, 0, 67, 80
2, 341760, Note_off_c, 0, 67, 0
2, 341760, Note_on_c, 0, 70, 83
2, 342240, Note_off_c, 0, 70, 0
2, 342240, Note_on_c, 0, 66, 70
2, 342720, Note_off_c, 0, 66, 0
2, 342720, Note_on_c, 0, 64, 74
2, 343200, Note_off_c, 0, 64, 0
2, 343200, Note_on_c, 0, 60, 68
2, 343680, Note_off_c, 0, 60, 0
2, 343680, Note_on_c, 0, 62, 80
2, 344160, Note_off_c, 0, 62, 0
2, 344160, Note_on_c, 0, 58, 75
2, 344640, Note_off_c, 0, 58, 0
2, 344640, Note_on_c, 0, 55, 71
2, 345120, Note_off_c, 0, 55, 0
2, 345120, Note_on_c, 0, 57, 80
2, 345600, Note_off_c, 0, 57, 0
2, 345600, Note_on_c, 0, 60, 82
2, 346080, Note_off_c, 0, 60, 0
2, 346080, Note_on_c, 0, 58, 76
2, 346560, Note_off_c, 0, 58, 0
2, 346560, Note_on_c, 0, 57, 75
2, 347040, Note_off_c, 0, 57, 0
2, 347040, Note_on_c, 0, 58, 81
2, 347520, Note_off_c, 0, 58, 0
2, 347520, Note_on_c, 0, 62, 79
2, 348000, Note_off_c, 0, 62, 0
2, 348000, Note_on_c, 0, 65, 86
2, 348480, Note_off_c, 0, 65, 0
2, 348480, Note_on_c, 0, 67, 77
2, 348960, Note_off_c, 0, 67, 0
2, 348960, Note_on_c, 0, 69, 80
2, 349440, Note_off_c, 0, 69, 0
2, 349440, Note_on_c, 0, 72, 84
2, 349920, Note_off_c, 0, 72, 0
2, 349920, Note_on_c, 0, 71, 74
2, 350400, Note_off_c, 0, 71, 0
2, 350400, Note_on_c, 0, 70, 70
2, 350880, Note_off_c, 0, 70, 0
2, 350880, Note_on_c, 0, 69, 72
2, 351360, Note_off_c, 0, 69, 0
2, 351360, Note_on_c, 0, 67, 75
2, 351840, Note_off_c, 0, 67, 0
2, 351840, Note_on_c, 0, 65, 73
2, 352320, Note_off_c, 0, 65, 0
2, 352320, Note_on_c, 0, 64, 70
2, 352800, Note_off_c, 0, 64, 0
2, 352800, Note_on_c, 0, 60, 67
2, 353280, Note_off_c, 0, 60, 0
2, 353280, Note_on_c, 0, 62, 78
2, 355200, Note_off_c, 0, 62, 0
2, 359040, Note_on_c, 0, 64, 69
2, 359520, Note_off_c, 0, 64, 0
2, 359520, Note_on_c, 0, 65, 82
2, 366720, Note_off_c, 0, 65, 0
2, 368640, Note_on_c, 0, 65, 68
2, 368959, Note_off_c, 0, 65, 0
2, 368959, Note_on_c, 0, 67, 75
2, 369278, Note_off_c, 0, 67, 0
2, 369278, Note_on_c, 0, 65, 70
2, 369600, Note_off_c, 0, 65, 0
2, 369600, Note_on_c, 0, 62, 67
2, 370080, Note_off_c, 0, 62, 0
2, 370080, Note_on_c, 0, 65, 82
2, 370560, Note_off_c, 0, 65, 0
2, 370560, Note_on_c, 0, 70, 87
2, 370879, Note_off_c, 0, 70, 0
2, 370879, Note_on_c, 0, 72, 83
2, 371198, Note_off_c, 0, 72, 0
2, 371198, Note_on_c, 0, 70, 73
2, 371520, Note_off_c, 0, 70, 0
2, 371520, Note_on_c, 0, 65, 68
2, 372000, Note_off_c, 0, 65, 0
2, 372000, Note_on_c, 0, 70, 87
2, 372480, Note_off_c, 0, 70, 0
2, 372480, Note_on_c, 0, 74, 82
2, 372960, Note_off_c, 0, 74, 0
2, 372960, Note_on_c, 0, 72, 69
2, 373440, Note_off_c, 0, 72, 0
2, 373440, Note_on_c, 0, 70, 72
2, 373920, Note_off_c, 0, 70, 0
2, 373920, Note_on_c, 0, 69, 68
2, 374400, Note_off_c, 0, 69, 0
2, 374400, Note_on_c, 0, 72, 85
2, 374880, Note_off_c, 0, 72, 0
2, 374880, Note_on_c, 0, 70, 74
2, 375360, Note_off_c, 0, 70, 0
2, 375360, Note_on_c, 0, 69, 73
2, 375840, Note_off_c, 0, 69, 0
2, 375840, Note_on_c, 0, 67, 73
2, 376320, Note_off_c, 0, 67, 0
2, 376320, Note_on_c, 0, 65, 75
2, 376800, Note_off_c, 0, 65, 0
2, 376800, Note_on_c, 0, 64, 68
2, 377280, Note_off_c, 0, 64, 0
2, 377280, Note_on_c, 0, 62, 76
2, 377760, Note_off_c, 0, 62, 0
2, 377760, Note_on_c, 0, 60, 70
2, 378240, Note_off_c, 0, 60, 0
2, 378240, Note_on_c, 0, 58, 77
2, 378720, Note_off_c, 0, 58, 0
2, 378720, Note_on_c, 0, 57, 80
2, 379200, Note_off_c, 0, 57, 0
2, 379200, Note_on_c, 0, 57, 75
2, 379680, Note_off_c, 0, 57, 0
2, 379680, Note_on_c, 0, 58, 83
2, 380160, Note_off_c, 0, 58, 0
2, 380160, Note_on_c, 0, 70, 97
2, 380640, Note_off_c, 0, 70, 0
2, 380640, Note_on_c, 0, 66, 72
2, 381120, Note_off_c, 0, 66, 0
2, 381120, Note_on_c, 0, 62, 66
2, 381600, Note_off_c, 0, 62, 0
2, 381600, Note_on_c, 0, 58, 70
2, 382080, Note_off_c, 0, 58, 0
2, 382080, Note_on_c, 0, 60, 75
2, 382560, Note_off_c, 0, 60, 0
2, 383520, Note_on_c, 0, 58, 72
2, 384000, Note_off_c, 0, 58, 0
2, 384000, Note_on_c, 0, 55, 70
2, 384480, Note_off_c, 0, 55, 0
2, 384480, Note_on_c, 0, 58, 78
2, 384960, Note_off_c, 0, 58, 0
2, 384960, Note_on_c, 0, 60, 80
2, 385440, Note_off_c, 0, 60, 0
2, 385440, Note_on_c, 0, 62, 85
2, 385920, Note_off_c, 0, 62, 0
2, 385920, Note_on_c, 0, 65, 84
2, 386400, Note_off_c, 0, 65, 0
2, 386400, Note_on_c, 0, 64, 76
2, 386880, Note_off_c, 0, 64, 0
2, 386880, Note_on_c, 0, 62, 69
2, 387360, Note_off_c, 0, 62, 0
2, 387360, Note_on_c, 0, 64, 81
2, 387840, Note_off_c, 0, 64, 0
2, 387840, Note_on_c, 0, 67, 87
2, 388320, Note_off_c, 0, 67, 0
2, 388320, Note_on_c, 0, 70, 85
2, 388800, Note_off_c, 0, 70, 0
2, 388800, Note_on_c, 0, 72, 83
2, 389280, Note_off_c, 0, 72, 0
2, 389280, Note_on_c, 0, 74, 83
2, 389760, Note_off_c, 0, 74, 0
2, 389760, Note_on_c, 0, 77, 83
2, 390240, Note_off_c, 0, 77, 0
2, 390240, Note_on_c, 0, 74, 71
2, 390720, Note_off_c, 0, 74, 0
2, 394080, Note_on_c, 0, 65, 66
2, 394560, Note_off_c, 0, 65, 0
2, 394560, Note_on_c, 0, 66, 78
2, 394879, Note_off_c, 0, 66, 0
2, 394879, Note_on_c, 0, 70, 83
2, 395198, Note_off_c, 0, 70, 0
2, 395198, Note_on_c, 0, 73, 85
2, 395520, Note_off_c, 0, 73, 0
2, 395520, Note_on_c, 0, 77, 88
2, 396000, Note_off_c, 0, 77, 0
2, 396000, Note_on_c, 0, 76, 77
2, 396480, Note_off_c, 0, 76, 0
2, 396480, Note_on_c, 0, 76, 76
2, 396960, Note_off_c, 0, 76, 0
2, 396960, Note_on_c, 0, 74, 71
2, 397440, Note_off_c, 0, 74, 0
2, 397440, Note_on_c, 0, 73, 76
2, 397920, Note_off_c, 0, 73, 0
2, 397920, Note_on_c, 0, 72, 71
2, 398400, Note_off_c, 0, 72, 0
2, 398400, Note_on_c, 0, 70, 72
2, 398880, Note_off_c, 0, 70, 0
2, 398880, Note_on_c, 0, 66, 66
2, 399360, Note_off_c, 0, 66, 0
2, 399360, Note_on_c, 0, 64, 69
2, 399840, Note_off_c, 0, 64, 0
2, 399840, Note_on_c, 0, 60, 65
2, 400320, Note_off_c, 0, 60, 0
2, 400320, Note_on_c, 0, 69, 95
2, 400800, Note_off_c, 0, 69, 0
2, 400800, Note_on_c, 0, 67, 77
2, 401280, Note_off_c, 0, 67, 0
2, 401280, Note_on_c, 0, 65, 72
2, 401760, Note_off_c, 0, 65, 0
2, 401760, Note_on_c, 0, 64, 73
2, 402240, Note_off_c, 0, 64, 0
2, 402240, Note_on_c, 0, 62, 73
2, 402720, Note_off_c, 0, 62, 0
2, 402720, Note_on_c, 0, 58, 72
2, 403200, Note_off_c, 0, 58, 0
2, 403200, Note_on_c, 0, 60, 80
2, 403680, Note_off_c, 0, 60, 0
2, 403680, Note_on_c, 0, 58, 75
2, 404160, Note_off_c, 0, 58, 0
2, 404160, Note_on_c, 0, 57, 72
2, 404640, Note_off_c, 0, 57, 0
2, 404640, Note_on_c, 0, 58, 77
2, 405120, Note_off_c, 0, 58, 0
2, 405120, Note_on_c, 0, 62, 86
2, 405600, Note_off_c, 0, 62, 0
2, 405600, Note_on_c, 0, 65, 83
2, 406080, Note_off_c, 0, 65, 0
2, 406080, Note_on_c, 0, 67, 81
2, 406560, Note_off_c, 0, 67, 0
2, 406560, Note_on_c, 0, 69, 84
2, 407040, Note_off_c, 0, 69, 0
2, 407040, Note_on_c, 0, 72, 79
2, 407520, Note_off_c, 0, 72, 0
2, 407520, Note_on_c, 0, 71, 71
2, 408000, Note_off_c, 0, 71, 0
2, 408000, Note_on_c, 0, 70, 75
2, 408480, Note_off_c, 0, 70, 0
2, 408480, Note_on_c, 0, 69, 68
2, 408960, Note_off_c, 0, 69, 0
2, 408960, Note_on_c, 0, 67, 70
2, 409440, Note_off_c, 0, 67, 0
2, 409440, Note_on_c, 0, 65, 71
2, 409920, Note_off_c, 0, 65, 0
2, 409920, Note_on_c, 0, 64, 70
2, 410400, Note_off_c, 0, 64, 0
2, 410400, Note_on_c, 0, 60, 62
2, 410880, Note_off_c, 0, 60, 0
2, 410880, Note_on_c, 0, 62, 82
2, 412800, Note_off_c, 0, 62, 0
2, 416640, Note_on_c, 0, 52, 68
2, 417120, Note_off_c, 0, 52, 0
2, 417120, Note_on_c, 0, 55, 77
2, 417600, Note_off_c, 0, 55, 0
2, 417600, Note_on_c, 0, 60, 80
2, 418080, Note_off_c, 0, 60, 0
2, 418080, Note_on_c, 0, 64, 85
2, 418560, Note_off_c, 0, 64, 0
2, 418560, Note_on_c, 0, 62, 74
2, 419040, Note_off_c, 0, 62, 0
2, 419040, Note_on_c, 0, 60, 72
2, 419520, Note_off_c, 0, 60, 0
2, 419520, Note_on_c, 0, 59, 71
2, 420000, Note_off_c, 0, 59, 0
2, 420000, Note_on_c, 0, 62, 85
2, 420480, Note_off_c, 0, 62, 0
2, 420480, Note_on_c, 0, 65, 84
2, 420960, Note_off_c, 0, 65, 0
2, 420960, Note_on_c, 0, 69, 91
2, 421440, Note_off_c, 0, 69, 0
2, 421440, Note_on_c, 0, 67, 71
2, 421920, Note_off_c, 0, 67, 0
2, 421920, Note_on_c, 0, 65, 74
2, 422400, Note_off_c, 0, 65, 0
2, 422400, Note_on_c, 0, 64, 73
2, 422880, Note_off_c, 0, 64, 0
2, 422880, Note_on_c, 0, 67, 83
2, 423360, Note_off_c, 0, 67, 0
2, 423360, Note_on_c, 0, 70, 83
2, 423840, Note_off_c, 0, 70, 0
2, 423840, Note_on_c, 0, 74, 87
2, 424320, Note_off_c, 0, 74, 0
2, 424320, Note_on_c, 0, 77, 82
2, 424800, Note_off_c, 0, 77, 0
2, 424800, Note_on_c, 0, 76, 75
2, 425280, Note_off_c, 0, 76, 0
2, 430080, Note_on_c, 0, 74, 69
2, 430399, Note_off_c, 0, 74, 0
2, 430399, Note_on_c, 0, 76, 75
2, 430718, Note_off_c, 0, 76, 0
2, 430718, Note_on_c, 0, 76, 72
2, 431040, Note_off_c, 0, 76, 0
2, 431040, Note_on_c, 0, 77, 79
2, 431359, Note_off_c, 0, 77, 0
2, 431359, Note_on_c, 0, 76, 71
2, 431678, Note_off_c, 0, 76, 0
2, 431678, Note_on_c, 0, 75, 72
2, 432000, Note_off_c, 0, 75, 0
2, 432000, Note_on_c, 0, 74, 74
2, 432480, Note_off_c, 0, 74, 0
2, 432480, Note_on_c, 0, 70, 71
2, 432960, Note_off_c, 0, 70, 0
2, 432960, Note_on_c, 0, 67, 69
2, 433440, Note_off_c, 0, 67, 0
2, 433440, Note_on_c, 0, 65, 73
2, 433920, Note_off_c, 0, 65, 0
2, 433920, Note_on_c, 0, 72, 92
2, 434400, Note_off_c, 0, 72, 0
2, 434400, Note_on_c, 0, 69, 71
2, 434880, Note_off_c, 0, 69, 0
2, 434880, Note_on_c, 0, 72, 84
2, 435360, Note_off_c, 0, 72, 0
2, 435360, Note_on_c, 0, 73, 76
2, 435840, Note_off_c, 0, 73, 0
2, 437280, Note_on_c, 0, 61, 68
2, 437760, Note_off_c, 0, 61, 0
2, 437760, Note_on_c, 0, 62, 81
2, 438079, Note_off_c, 0, 62, 0
2, 438079, Note_on_c, 0, 65, 87
2, 438398, Note_off_c, 0, 65, 0
2, 438398, Note_on_c, 0, 69, 83
2, 438720, Note_off_c, 0, 69, 0
2, 438720, Note_on_c, 0, 72, 86
2, 439200, Note_off_c, 0, 72, 0
2, 439200, Note_on_c, 0, 71, 68
2, 439680, Note_off_c, 0, 71, 0
2, 439680, Note_on_c, 0, 70, 73
2, 440160, Note_off_c, 0, 70, 0
2, 440160, Note_on_c, 0, 69, 74
2, 440640, Note_off_c, 0, 69, 0
2, 440640, Note_on_c, 0, 69, 77
2, 441120, Note_off_c, 0, 69, 0
2, 441120, Note_on_c, 0, 60, 60
2, 441600, Note_off_c, 0, 60, 0
2, 441600, Note_on_c, 0, 61, 77
2, 442080, Note_off_c, 0, 61, 0
2, 442080, Note_on_c, 0, 62, 79
2, 442560, Note_off_c, 0, 62, 0
2, 442560, Note_on_c, 0, 67, 88
2, 443040, Note_off_c, 0, 67, 0
2, 443040, Note_on_c, 0, 66, 75
2, 443520, Note_off_c, 0, 66, 0
2, 443520, Note_on_c, 0, 65, 74
2, 444000, Note_off_c, 0, 65, 0
2, 444000, Note_on_c, 0, 64, 73
2, 444480, Note_off_c, 0, 64, 0
2, 444480, Note_on_c, 0, 62, 69
2, 444960, Note_off_c, 0, 62, 0
2, 444960, Note_on_c, 0, 60, 74
2, 445440, Note_off_c, 0, 60, 0
2, 445440, Note_on_c, 0, 58, 73
2, 445920, Note_off_c, 0, 58, 0
2, 445920, Note_on_c, 0, 57, 74
2, 446400, Note_off_c, 0, 57, 0
2, 446400, Note_on_c, 0, 57, 80
2, 446880, Note_off_c, 0, 57, 0
2, 446880, Note_on_c, 0, 60, 87
2, 447360, Note_off_c, 0, 60, 0
2, 447360, Note_on_c, 0, 55, 72
2, 447840, Note_off_c, 0, 55, 0
2, 447840, Note_on_c, 0, 58, 77
2, 448320, Note_off_c, 0, 58, 0
2, 448320, Note_on_c, 0, 60, 84
2, 448800, Note_off_c, 0, 60, 0
2, 448800, Note_on_c, 0, 62, 78
2, 449280, Note_off_c, 0, 62, 0
2, 449280, Note_on_c, 0, 65, 84
2, 449760, Note_off_c, 0, 65, 0
2, 449760, Note_on_c, 0, 64, 76
2, 450240, Note_off_c, 0, 64, 0
2, 450240, Note_on_c, 0, 67, 81
2, 450720, Note_off_c, 0, 67, 0
2, 450720, Note_on_c, 0, 70, 90
2, 451200, Note_off_c, 0, 70, 0
2, 451200, Note_on_c, 0, 74, 83
2, 451680, Note_off_c, 0, 74, 0
2, 451680, Note_on_c, 0, 72, 73
2, 452160, Note_off_c, 0, 72, 0
2, 452160, Note_on_c, 0, 70, 69
2, 452640, Note_off_c, 0, 70, 0
2, 452640, Note_on_c, 0, 67, 73
2, 453120, Note_off_c, 0, 67, 0
2, 453120, Note_on_c, 0, 64, 71
2, 453600, Note_off_c, 0, 64, 0
2, 453600, Note_on_c, 0, 60, 63
2, 454080, Note_off_c, 0, 60, 0
2, 454080, Note_on_c, 0, 62, 81
2, 454560, Note_off_c, 0, 62, 0
2, 454560, Note_on_c, 0, 65, 83
2, 455520, Note_off_c, 0, 65, 0
2, 455520, Note_on_c, 0, 65, 75
2, 456000, Note_off_c, 0, 65, 0
2, 456000, Note_on_c, 0, 64, 72
2, 456960, Note_off_c, 0, 64, 0
2, 458880, Note_on_c, 0, 62, 75
2, 459199, Note_off_c, 0, 62, 0
2, 459199, Note_on_c, 0, 64, 79
2, 459518, Note_off_c, 0, 64, 0
2, 459518, Note_on_c, 0, 64, 78
2, 459840, Note_off_c, 0, 64, 0
2, 459840, Note_on_c, 0, 65, 79
2, 460159, Note_off_c, 0, 65, 0
2, 460159, Note_on_c, 0, 64, 71
2, 460478, Note_off_c, 0, 64, 0
2, 460478, Note_on_c, 0, 63, 71
2, 460800, Note_off_c, 0, 63, 0
2, 460800, Note_on_c, 0, 62, 75
2, 461280, Note_off_c, 0, 62, 0
2, 461280, Note_on_c, 0, 58, 72
2, 461760, Note_off_c, 0, 58, 0
2, 461760, Note_on_c, 0, 55, 71
2, 462240, Note_off_c, 0, 55, 0
2, 462240, Note_on_c, 0, 57, 77
2, 462720, Note_off_c, 0, 57, 0
2, 462720, Note_on_c, 0, 60, 88
2, 463200, Note_off_c, 0, 60, 0
2, 463200, Note_on_c, 0, 57, 75
2, 463680, Note_off_c, 0, 57, 0
2, 463680, Note_on_c, 0, 58, 78
2, 463999, Note_off_c, 0, 58, 0
2, 463999, Note_on_c, 0, 62, 84
2, 464318, Note_off_c, 0, 62, 0
2, 464318, Note_on_c, 0, 64, 78
2, 464640, Note_off_c, 0, 64, 0
2, 464640, Note_on_c, 0, 69, 83
2, 465120, Note_off_c, 0, 69, 0
2, 465120, Note_on_c, 0, 67, 74
2, 465600, Note_off_c, 0, 67, 0
2, 465600, Note_on_c, 0, 64, 68
2, 466080, Note_off_c, 0, 64, 0
2, 466080, Note_on_c, 0, 60, 67
2, 466560, Note_off_c, 0, 60, 0
2, 466560, Note_on_c, 0, 62, 82
2, 468480, Note_off_c, 0, 62, 0
2, 474240, Note_on_c, 0, 69, 71
2, 474720, Note_off_c, 0, 69, 0
2, 474720, Note_on_c, 0, 69, 75
2, 475200, Note_off_c, 0, 69, 0
2, 475200, Note_on_c, 0, 72, 84
2, 475680, Note_off_c, 0, 72, 0
2, 475680, Note_on_c, 0, 71, 75
2, 476160, Note_off_c, 0, 71, 0
2, 476160, Note_on_c, 0, 70, 69
2, 476640, Note_off_c, 0, 70, 0
2, 476640, Note_on_c, 0, 69, 74
2, 477120, Note_off_c, 0, 69, 0
2, 477120, Note_on_c, 0, 69, 71
2, 477600, Note_off_c, 0, 69, 0
2, 477600, Note_on_c, 0, 67, 73
2, 478080, Note_off_c, 0, 67, 0
2, 478080, Note_on_c, 0, 66, 68
2, 478560, Note_off_c, 0, 66, 0
2, 478560, Note_on_c, 0, 65, 74
2, 479040, Note_off_c, 0, 65, 0
2, 479040, Note_on_c, 0, 64, 68
2, 479520, Note_off_c, 0, 64, 0
2, 479520, Note_on_c, 0, 58, 68
2, 480000, Note_off_c, 0, 58, 0
2, 480000, Note_on_c, 0, 59, 76
2, 480480, Note_off_c, 0, 59, 0
2, 480480, Note_on_c, 0, 61, 81
2, 480960, Note_off_c, 0, 61, 0
2, 480960, Note_on_c, 0, 60, 73
2, 481440, Note_off_c, 0, 60, 0
2, 481440, Note_on_c, 0, 58, 70
2, 481920, Note_off_c, 0, 58, 0
2, 481920, Note_on_c, 0, 57, 78
2, 482400, Note_off_c, 0, 57, 0
2, 482400, Note_on_c, 0, 66, 95
2, 482880, Note_off_c, 0, 66, 0
2, 482880, Note_on_c, 0, 64, 78
2, 483360, Note_off_c, 0, 64, 0
2, 483360, Note_on_c, 0, 64, 78
2, 483840, Note_off_c, 0, 64, 0
2, 483840, Note_on_c, 0, 65, 81
2, 484320, Note_off_c, 0, 65, 0
2, 484320, Note_on_c, 0, 62, 71
2, 484800, Note_off_c, 0, 62, 0
2, 488640, Note_on_c, 0, 71, 68
2, 489120, Note_off_c, 0, 71, 0
2, 489120, Note_on_c, 0, 69, 70
2, 489600, Note_off_c, 0, 69, 0
2, 489600, Note_on_c, 0, 64, 66
2, 490080, Note_off_c, 0, 64, 0
2, 490080, Note_on_c, 0, 61, 69
2, 490560, Note_off_c, 0, 61, 0
2, 490560, Note_on_c, 0, 70, 86
2, 491040, Note_off_c, 0, 70, 0
2, 491040, Note_on_c, 0, 69, 75
2, 491520, Note_off_c, 0, 69, 0
2, 491520, Note_on_c, 0, 71, 80
2, 492000, Note_off_c, 0, 71, 0
2, 492000, Note_on_c, 0, 69, 75
2, 492480, Note_off_c, 0, 69, 0
2, 492480, Note_on_c, 0, 64, 63
2, 492960, Note_off_c, 0, 64, 0
2, 492960, Note_on_c, 0, 61, 72
2, 493440, Note_off_c, 0, 61, 0
2, 493440, Note_on_c, 0, 70, 91
2, 493920, Note_off_c, 0, 70, 0
2, 493920, Note_on_c, 0, 66, 68
2, 494400, Note_off_c, 0, 66, 0
2, 494400, Note_on_c, 0, 63, 69
2, 494880, Note_off_c, 0, 63, 0
2, 494880, Note_on_c, 0, 59, 75
2, 495360, Note_off_c, 0, 59, 0
2, 495360, Note_on_c, 0, 70, 95
2, 495840, Note_off_c, 0, 70, 0
2, 495840, Note_on_c, 0, 66, 71
2, 496320, Note_off_c, 0, 66, 0
2, 496320, Note_on_c, 0, 64, 68
2, 496800, Note_off_c, 0, 64, 0
2, 496800, Note_on_c, 0, 59, 71
2, 497280, Note_off_c, 0, 59, 0
2, 497280, Note_on_c, 0, 69, 95
2, 497760, Note_off_c, 0, 69, 0
2, 497760, Note_on_c, 0, 66, 72
2, 498240, Note_off_c, 0, 66, 0
2, 498240, Note_on_c, 0, 70, 80
2, 498720, Note_off_c, 0, 70, 0
2, 498720, Note_on_c, 0, 66, 76
2, 499200, Note_off_c, 0, 66, 0
2, 499200, Note_on_c, 0, 64, 66
2, 499680, Note_off_c, 0, 64, 0
2, 499680, Note_on_c, 0, 59, 67
2, 500160, Note_off_c, 0, 59, 0
2, 500160, Note_on_c, 0, 69, 96
2, 501120, Note_off_c, 0, 69, 0
2, 504000, Note_on_c, 0, 69, 64
2, 504480, Note_off_c, 0, 69, 0
2, 504480, Note_on_c, 0, 66, 67
2, 504960, Note_off_c, 0, 66, 0
2, 504960, Note_on_c, 0, 62, 65
2, 505440, Note_off_c, 0, 62, 0
2, 505440, Note_on_c, 0, 59, 74
2, 505920, Note_off_c, 0, 59, 0
2, 505920, Note_on_c, 0, 68, 92
2, 506400, Note_off_c, 0, 68, 0
2, 506400, Note_on_c, 0, 66, 74
2, 506880, Note_off_c, 0, 66, 0
2, 506880, Note_on_c, 0, 64, 74
2, 509280, Note_off_c, 0, 64, 0
2, 509280, Note_on_c, 0, 63, 75
2, 509760, Note_off_c, 0, 63, 0
2, 509760, Note_on_c, 0, 62, 65
2, 510240, Note_off_c, 0, 62, 0
2, 510240, Note_on_c, 0, 64, 76
2, 510720, Note_off_c, 0, 64, 0
2, 510720, Note_on_c, 0, 66, 78
2, 511200, Note_off_c, 0, 66, 0
2, 511200, Note_on_c, 0, 69, 88
2, 511680, Note_off_c, 0, 69, 0
2, 511680, Note_on_c, 0, 73, 86
2, 512160, Note_off_c, 0, 73, 0
2, 512160, Note_on_c, 0, 72, 69
2, 512640, Note_off_c, 0, 72, 0
2, 512640, Note_on_c, 0, 71, 73
2, 513120, Note_off_c, 0, 71, 0
2, 513120, Note_on_c, 0, 70, 75
2, 513600, Note_off_c, 0, 70, 0
2, 513600, Note_on_c, 0, 69, 71
2, 514080, Note_off_c, 0, 69, 0
2, 514080, Note_on_c, 0, 66, 68
2, 514560, Note_off_c, 0, 66, 0
2, 514560, Note_on_c, 0, 62, 65
2, 515040, Note_off_c, 0, 62, 0
2, 515040, Note_on_c, 0, 59, 73
2, 515520, Note_off_c, 0, 59, 0
2, 515520, Note_on_c, 0, 61, 82
2, 516000, Note_off_c, 0, 61, 0
2, 516000, Note_on_c, 0, 64, 83
2, 516480, Note_off_c, 0, 64, 0
2, 520320, Note_on_c, 0, 79, 70
2, 520800, Note_off_c, 0, 79, 0
2, 520800, Note_on_c, 0, 76, 70
2, 521040, Note_off_c, 0, 76, 0
2, 521040, Note_on_c, 0, 72, 64
2, 521280, Note_off_c, 0, 72, 0
2, 521280, Note_on_c, 0, 69, 64
2, 521760, Note_off_c, 0, 69, 0
2, 522240, Note_on_c, 0, 78, 67
2, 522720, Note_off_c, 0, 78, 0
2, 522720, Note_on_c, 0, 74, 67
2, 522960, Note_off_c, 0, 74, 0
2, 522960, Note_on_c, 0, 71, 68
2, 523200, Note_off_c, 0, 71, 0
2, 523200, Note_on_c, 0, 67, 69
2, 523680, Note_off_c, 0, 67, 0
2, 524160, Note_on_c, 0, 76, 66
2, 524640, Note_off_c, 0, 76, 0
2, 524640, Note_on_c, 0, 72, 69
2, 524880, Note_off_c, 0, 72, 0
2, 524880, Note_on_c, 0, 69, 67
2, 525120, Note_off_c, 0, 69, 0
2, 525120, Note_on_c, 0, 66, 64
2, 526080, Note_off_c, 0, 66, 0
2, 526080, Note_on_c, 0, 74, 82
2, 527040, Note_off_c, 0, 74, 0
2, 528480, Note_on_c, 0, 66, 63
2, 528960, Note_off_c, 0, 66, 0
2, 528960, Note_on_c, 0, 67, 82
2, 529440, Note_off_c, 0, 67, 0
2, 529440, Note_on_c, 0, 72, 87
2, 529920, Note_off_c, 0, 72, 0
2, 529920, Note_on_c, 0, 71, 79
2, 530400, Note_off_c, 0, 71, 0
2, 530400, Note_on_c, 0, 67, 66
2, 530880, Note_off_c, 0, 67, 0
2, 530880, Note_on_c, 0, 64, 64
2, 531360, Note_off_c, 0, 64, 0
2, 531360, Note_on_c, 0, 63, 75
2, 531840, Note_off_c, 0, 63, 0
2, 531840, Note_on_c, 0, 62, 66
2, 532320, Note_off_c, 0, 62, 0
2, 532320, Note_on_c, 0, 60, 72
2, 532800, Note_off_c, 0, 60, 0
2, 532800, Note_on_c, 0, 59, 75
2, 533119, Note_off_c, 0, 59, 0
2, 533119, Note_on_c, 0, 60, 79
2, 533438, Note_off_c, 0, 60, 0
2, 533438, Note_on_c, 0, 66, 90
2, 533760, Note_off_c, 0, 66, 0
2, 533760, Note_on_c, 0, 69, 87
2, 534240, Note_off_c, 0, 69, 0
2, 534240, Note_on_c, 0, 67, 68
2, 534720, Note_off_c, 0, 67, 0
2, 538080, Note_on_c, 0, 66, 69
2, 538560, Note_off_c, 0, 66, 0
2, 538560, Note_on_c, 0, 67, 76
2, 538879, Note_off_c, 0, 67, 0
2, 538879, Note_on_c, 0, 70, 88
2, 539198, Note_off_c, 0, 70, 0
2, 539198, Note_on_c, 0, 74, 88
2, 539520, Note_off_c, 0, 74, 0
2, 539520, Note_on_c, 0, 77, 83
2, 540000, Note_off_c, 0, 77, 0
2, 540000, Note_on_c, 0, 74, 69
2, 540480, Note_off_c, 0, 74, 0
2, 540480, Note_on_c, 0, 76, 83
2, 540960, Note_off_c, 0, 76, 0
2, 540960, Note_on_c, 0, 76, 78
2, 541440, Note_off_c, 0, 76, 0
2, 541440, Note_on_c, 0, 72, 61
2, 541920, Note_off_c, 0, 72, 0
2, 541920, Note_on_c, 0, 73, 78
2, 542400, Note_off_c, 0, 73, 0
2, 542400, Note_on_c, 0, 74, 81
2, 542880, Note_off_c, 0, 74, 0
2, 542880, Note_on_c, 0, 72, 73
2, 543360, Note_off_c, 0, 72, 0
2, 543360, Note_on_c, 0, 70, 74
2, 543840, Note_off_c, 0, 70, 0
2, 543840, Note_on_c, 0, 69, 72
2, 544320, Note_off_c, 0, 69, 0
2, 544320, Note_on_c, 0, 67, 70
2, 544800, Note_off_c, 0, 67, 0
2, 544800, Note_on_c, 0, 65, 72
2, 545280, Note_off_c, 0, 65, 0
2, 545280, Note_on_c, 0, 64, 75
2, 545760, Note_off_c, 0, 64, 0
2, 545760, Note_on_c, 0, 67, 83
2, 546240, Note_off_c, 0, 67, 0
2, 546240, Note_on_c, 0, 70, 84
2, 546720, Note_off_c, 0, 70, 0
2, 546720, Note_on_c, 0, 74, 92
2, 547200, Note_off_c, 0, 74, 0
2, 547200, Note_on_c, 0, 72, 77
2, 547680, Note_off_c, 0, 72, 0
2, 547680, Note_on_c, 0, 70, 73
2, 548160, Note_off_c, 0, 70, 0
2, 548160, Note_on_c, 0, 69, 71
2, 548640, Note_off_c, 0, 69, 0
2, 548640, Note_on_c, 0, 67, 74
2, 549120, Note_off_c, 0, 67, 0
2, 549120, Note_on_c, 0, 66, 73
2, 549600, Note_off_c, 0, 66, 0
2, 549600, Note_on_c, 0, 67, 79
2, 550080, Note_off_c, 0, 67, 0
2, 550080, Note_on_c, 0, 70, 85
2, 550560, Note_off_c, 0, 70, 0
2, 550560, Note_on_c, 0, 67, 69
2, 551040, Note_off_c, 0, 67, 0
2, 551040, Note_on_c, 0, 64, 66
2, 551520, Note_off_c, 0, 64, 0
2, 551520, Note_on_c, 0, 60, 64
2, 552000, Note_off_c, 0, 60, 0
2, 552000, Note_on_c, 0, 65, 83
2, 552480, Note_off_c, 0, 65, 0
2, 552480, Note_on_c, 0, 64, 72
2, 552960, Note_off_c, 0, 64, 0
2, 552960, Note_on_c, 0, 62, 73
2, 553440, Note_off_c, 0, 62, 0
2, 553440, Note_on_c, 0, 58, 72
2, 553920, Note_off_c, 0, 58, 0
2, 553920, Note_on_c, 0, 55, 74
2, 554400, Note_off_c, 0, 55, 0
2, 554400, Note_on_c, 0, 57, 80
2, 554880, Note_off_c, 0, 57, 0
2, 554880, Note_on_c, 0, 60, 77
2, 555360, Note_off_c, 0, 60, 0
2, 555360, Note_on_c, 0, 59, 77
2, 555840, Note_off_c, 0, 59, 0
2, 555840, Note_on_c, 0, 58, 71
2, 556320, Note_off_c, 0, 58, 0
2, 556320, Note_on_c, 0, 57, 76
2, 556800, Note_off_c, 0, 57, 0
2, 556800, Note_on_c, 0, 57, 77
2, 557280, Note_off_c, 0, 57, 0
2, 557280, Note_on_c, 0, 58, 81
2, 557760, Note_off_c, 0, 58, 0
2, 557760, Note_on_c, 0, 60, 84
2, 558240, Note_off_c, 0, 60, 0
2, 558240, Note_on_c, 0, 62, 83
2, 558720, Note_off_c, 0, 62, 0
2, 558720, Note_on_c, 0, 70, 96
2, 559200, Note_off_c, 0, 70, 0
2, 559200, Note_on_c, 0, 66, 67
2, 559680, Note_off_c, 0, 66, 0
2, 566400, Note_on_c, 0, 67, 72
2, 566880, Note_off_c, 0, 67, 0
2, 566880, Note_on_c, 0, 70, 79
2, 567360, Note_off_c, 0, 70, 0
2, 567360, Note_on_c, 0, 74, 86
2, 567840, Note_off_c, 0, 74, 0
2, 567840, Note_on_c, 0, 77, 88
2, 568320, Note_off_c, 0, 77, 0
2, 568320, Note_on_c, 0, 74, 67
2, 568639, Note_off_c, 0, 74, 0
2, 568639, Note_on_c, 0, 72, 68
2, 568958, Note_off_c, 0, 72, 0
2, 568958, Note_on_c, 0, 70, 73
2, 569280, Note_off_c, 0, 70, 0
2, 569280, Note_on_c, 0, 67, 71
2, 569760, Note_off_c, 0, 67, 0
2, 569760, Note_on_c, 0, 70, 74
2, 570240, Note_off_c, 0, 70, 0
2, 570240, Note_on_c, 0, 74, 89
2, 570720, Note_off_c, 0, 74, 0
2, 570720, Note_on_c, 0, 77, 82
2, 573120, Note_off_c, 0, 77, 0
2, 574560, Note_on_c, 0, 65, 71
2, 575040, Note_off_c, 0, 65, 0
2, 575040, Note_on_c, 0, 66, 82
2, 575359, Note_off_c, 0, 66, 0
2, 575359, Note_on_c, 0, 70, 84
2, 575678, Note_off_c, 0, 70, 0
2, 575678, Note_on_c, 0, 73, 84
2, 576000, Note_off_c, 0, 73, 0
2, 576000, Note_on_c, 0, 77, 85
2, 576480, Note_off_c, 0, 77, 0
2, 576480, Note_on_c, 0, 76, 76
2, 576960, Note_off_c, 0, 76, 0
2, 576960, Note_on_c, 0, 76, 73
2, 577440, Note_off_c, 0, 76, 0
2, 577440, Note_on_c, 0, 74, 77
2, 577920, Note_off_c, 0, 74, 0
2, 577920, Note_on_c, 0, 73, 69
2, 578400, Note_off_c, 0, 73, 0
2, 578400, Note_on_c, 0, 72, 72
2, 578880, Note_off_c, 0, 72, 0
2, 578880, Note_on_c, 0, 70, 72
2, 579360, Note_off_c, 0, 70, 0
2, 579360, Note_on_c, 0, 66, 64
2, 579840, Note_off_c, 0, 66, 0
2, 579840, Note_on_c, 0, 64, 72
2, 580320, Note_off_c, 0, 64, 0
2, 580320, Note_on_c, 0, 60, 64
2, 580800, Note_off_c, 0, 60, 0
2, 580800, Note_on_c, 0, 69, 91
2, 581280, Note_off_c, 0, 69, 0
2, 581280, Note_on_c, 0, 67, 73
2, 581760, Note_off_c, 0, 67, 0
2, 581760, Note_on_c, 0, 65, 72
2, 582240, Note_off_c, 0, 65, 0
2, 582240, Note_on_c, 0, 74, 92
2, 582720, Note_off_c, 0, 74, 0
2, 582720, Note_on_c, 0, 62, 62
2, 583200, Note_off_c, 0, 62, 0
2, 583200, Note_on_c, 0, 58, 69
2, 583680, Note_off_c, 0, 58, 0
2, 583680, Note_on_c, 0, 60, 81
2, 584160, Note_off_c, 0, 60, 0
2, 584160, Note_on_c, 0, 57, 78
2, 584640, Note_off_c, 0, 57, 0
2, 584640, Note_on_c, 0, 58, 77
2, 585120, Note_off_c, 0, 58, 0
2, 585120, Note_on_c, 0, 60, 82
2, 585600, Note_off_c, 0, 60, 0
2, 585600, Note_on_c, 0, 62, 86
2, 586080, Note_off_c, 0, 62, 0
2, 586080, Note_on_c, 0, 65, 83
2, 586560, Note_off_c, 0, 65, 0
2, 586560, Note_on_c, 0, 67, 83
2, 587040, Note_off_c, 0, 67, 0
2, 587040, Note_on_c, 0, 69, 81
2, 587520, Note_off_c, 0, 69, 0
2, 587520, Note_on_c, 0, 72, 87
2, 588000, Note_off_c, 0, 72, 0
2, 588000, Note_on_c, 0, 71, 74
2, 588480, Note_off_c, 0, 71, 0
2, 588480, Note_on_c, 0, 70, 73
2, 588960, Note_off_c, 0, 70, 0
2, 588960, Note_on_c, 0, 69, 74
2, 589440, Note_off_c, 0, 69, 0
2, 589440, Note_on_c, 0, 67, 72
2, 589920, Note_off_c, 0, 67, 0
2, 589920, Note_on_c, 0, 65, 75
2, 590400, Note_off_c, 0, 65, 0
2, 590400, Note_on_c, 0, 64, 75
2, 590880, Note_off_c, 0, 64, 0
2, 590880, Note_on_c, 0, 60, 71
2, 591360, Note_off_c, 0, 60, 0
2, 591360, Note_on_c, 0, 62, 75
2, 593280, Note_off_c, 0, 62, 0
2, 597120, Note_on_c, 0, 65, 68
2, 597600, Note_off_c, 0, 65, 0
2, 597600, Note_on_c, 0, 67, 81
2, 598080, Note_off_c, 0, 67, 0
2, 598080, Note_on_c, 0, 70, 82
2, 598560, Note_off_c, 0, 70, 0
2, 598560, Note_on_c, 0, 73, 80
2, 599520, Note_off_c, 0, 73, 0
2, 599520, Note_on_c, 0, 70, 67
2, 600000, Note_off_c, 0, 70, 0
2, 600000, Note_on_c, 0, 72, 80
2, 602400, Note_off_c, 0, 72, 0
2, 602400, Note_on_c, 0, 69, 68
2, 602880, Note_off_c, 0, 69, 0
2, 602880, Note_on_c, 0, 70, 77
2, 603360, Note_off_c, 0, 70, 0
2, 603360, Note_on_c, 0, 65, 62
2, 603840, Note_off_c, 0, 65, 0
2, 603840, Note_on_c, 0, 62, 66
2, 604320, Note_off_c, 0, 62, 0
2, 604320, Note_on_c, 0, 58, 71
2, 604800, Note_off_c, 0, 58, 0
2, 604800, Note_on_c, 0, 69, 97
2, 605280, Note_off_c, 0, 69, 0
2, 605280, Note_on_c, 0, 68, 73
2, 605760, Note_off_c, 0, 68, 0
2, 605760, Note_on_c, 0, 67, 77
2, 606240, Note_off_c, 0, 67, 0
2, 606240, Note_on_c, 0, 66, 72
2, 606720, Note_off_c, 0, 66, 0
2, 606720, Note_on_c, 0, 65, 75
2, 607200, Note_off_c, 0, 65, 0
2, 607200, Note_on_c, 0, 64, 71
2, 607680, Note_off_c, 0, 64, 0
2, 607680, Note_on_c, 0, 64, 75
2, 608160, Note_off_c, 0, 64, 0
2, 608160, Note_on_c, 0, 58, 71
2, 608640, Note_off_c, 0, 58, 0
2, 608640, Note_on_c, 0, 55, 72
2, 609120, Note_off_c, 0, 55, 0
2, 609120, Note_on_c, 0, 54, 75
2, 609600, Note_off_c, 0, 54, 0
2, 609600, Note_on_c, 0, 62, 90
2, 610080, Note_off_c, 0, 62, 0
2, 610080, Note_on_c, 0, 60, 75
2, 610560, Note_off_c, 0, 60, 0
2, 610560, Note_on_c, 0, 58, 70
2, 611520, Note_off_c, 0, 58, 0
2, 611521, End_track
0, 0, End_of_file
